<?xml version="1.0" encoding="UTF-8" ?>
<!DOCTYPE svg PUBLIC "-//W3C//DTD SVG 1.1//EN" "http://www.w3.org/Graphics/SVG/1.1/DTD/svg11.dtd">
<svg width="256pt" height="256pt" viewBox="0 0 256 256" version="1.1" xmlns="http://www.w3.org/2000/svg">
<g id="#5d5e5dff">
<path fill="#5d5e5d" opacity="1.00" d=" M 115.51 33.90 C 136.06 31.16 157.52 35.02 175.52 45.41 C 193.93 55.82 208.71 72.51 216.76 92.08 C 225.26 112.47 226.23 135.87 219.65 156.95 C 212.76 179.17 197.39 198.60 177.40 210.48 C 162.02 219.78 143.94 224.46 125.99 223.89 C 101.55 223.49 77.57 212.90 60.50 195.46 C 43.41 178.23 33.21 154.28 33.08 129.98 C 32.55 107.77 40.32 85.55 54.37 68.37 C 69.41 49.69 91.73 37.08 115.51 33.90 M 115.61 45.91 C 89.89 49.82 66.57 66.54 54.57 89.62 C 44.26 108.89 42.14 132.30 48.67 153.15 C 53.89 170.16 64.76 185.37 79.15 195.85 C 95.31 207.81 115.94 213.65 135.97 211.67 C 150.82 210.49 165.26 204.98 177.31 196.26 C 192.58 185.32 203.95 169.06 208.97 150.95 C 214.23 132.34 212.71 111.88 204.71 94.26 C 196.20 75.28 180.36 59.71 161.20 51.62 C 146.94 45.45 130.94 43.61 115.61 45.91 Z" />
<path fill="#5d5e5d" opacity="1.00" d=" M 122.54 77.05 C 122.25 73.91 124.95 71.15 127.96 70.76 C 131.38 70.46 134.76 73.56 134.46 77.05 C 134.51 94.74 134.42 112.43 134.50 130.11 C 147.82 143.28 161.03 156.57 174.26 169.83 C 177.25 172.34 176.77 177.48 173.34 179.36 C 170.95 181.02 167.69 180.25 165.82 178.18 C 152.14 164.55 138.51 150.85 124.83 137.21 C 123.44 135.86 122.28 134.10 122.53 132.07 C 122.54 113.73 122.52 95.39 122.54 77.05 Z" />
</g>
</svg>
