<?xml version="1.0" encoding="UTF-8" ?>
<!DOCTYPE svg PUBLIC "-//W3C//DTD SVG 1.1//EN" "http://www.w3.org/Graphics/SVG/1.1/DTD/svg11.dtd">
<svg width="512pt" height="512pt" viewBox="0 0 512 512" version="1.1" xmlns="http://www.w3.org/2000/svg">
<g id="#000000ff">
<path fill="#000000" opacity="1.00" d=" M 17.75 4.80 C 25.87 2.64 34.87 5.35 40.65 11.40 C 55.17 25.89 69.69 40.38 84.14 54.94 C 88.36 59.10 90.68 64.82 91.16 70.68 C 228.83 83.15 366.50 95.65 504.16 108.18 C 508.47 108.19 512.13 111.86 512.00 116.19 L 512.00 116.71 C 504.63 171.77 497.69 226.89 490.34 281.96 C 488.47 296.41 475.52 308.29 460.98 309.00 C 366.68 315.98 272.38 322.83 178.07 329.73 C 166.89 330.51 155.41 326.53 147.45 318.58 C 142.25 313.57 138.74 307.04 136.72 300.16 C 122.59 253.41 108.48 206.64 94.35 159.89 C 87.88 138.05 80.95 116.34 74.77 94.43 C 66.61 96.13 57.50 94.66 51.40 88.61 C 36.79 74.22 22.37 59.61 7.84 45.12 C 3.32 40.84 0.41 34.96 0.00 28.72 L 0.00 25.43 C 1.07 15.80 8.22 7.04 17.75 4.80 M 21.97 19.08 C 17.88 19.83 14.59 23.87 14.96 28.07 C 15.00 30.91 16.98 33.19 18.85 35.13 C 32.68 48.95 46.50 62.78 60.33 76.61 C 62.21 78.28 64.30 80.35 67.04 80.08 C 71.97 80.75 76.80 75.98 76.08 71.03 C 76.31 68.31 74.27 66.20 72.60 64.33 C 58.77 50.49 44.94 36.67 31.11 22.83 C 28.77 20.38 25.53 18.24 21.97 19.08 M 87.56 85.46 C 94.04 107.02 100.56 128.58 107.06 150.14 C 112.89 150.27 118.71 150.81 124.54 150.60 C 141.68 151.66 158.98 151.91 176.19 152.65 C 173.48 138.20 170.83 123.75 168.09 109.32 C 167.03 103.67 166.11 97.98 164.86 92.37 C 139.08 90.20 113.33 87.64 87.56 85.46 M 180.53 93.86 C 181.29 99.85 183.19 105.69 183.34 111.75 L 183.67 111.55 C 186.52 125.40 188.80 139.40 191.61 153.26 C 214.96 154.02 238.31 154.96 261.65 155.78 C 260.77 143.08 260.31 130.33 259.14 117.66 C 257.03 117.79 254.88 117.84 252.88 117.06 C 254.96 117.09 257.05 117.07 259.13 117.25 C 259.09 111.78 258.65 106.31 258.18 100.86 C 232.29 98.60 206.42 96.17 180.53 93.86 M 273.38 102.30 C 273.72 109.20 274.52 116.09 274.16 123.01 C 274.25 124.37 273.90 125.97 274.82 127.12 C 275.64 136.83 276.06 146.56 276.71 156.28 C 298.79 157.11 320.86 158.00 342.94 158.64 C 343.09 147.51 343.53 136.39 343.77 125.27 C 343.90 120.09 344.09 114.92 344.18 109.74 C 344.21 108.01 342.15 108.65 341.12 108.37 C 318.53 106.42 295.96 104.28 273.38 102.30 M 359.18 110.08 C 358.99 115.18 359.06 120.29 358.65 125.38 C 359.44 125.87 360.26 126.29 361.12 126.64 C 360.42 126.81 359.02 127.16 358.32 127.33 C 358.42 127.99 358.61 129.32 358.70 129.99 C 358.33 139.74 358.16 149.49 357.88 159.24 C 379.29 160.11 400.71 160.83 422.12 161.61 C 422.85 153.33 423.35 145.02 424.23 136.75 C 425.36 135.94 424.60 134.19 424.76 133.03 C 424.47 127.35 425.65 121.71 425.72 116.03 C 403.53 114.16 381.36 112.01 359.18 110.08 M 439.43 133.95 C 438.70 143.38 437.82 152.80 437.22 162.24 C 445.81 162.38 454.39 162.82 462.97 163.13 L 463.43 163.69 C 472.51 163.63 481.59 163.78 490.69 163.98 C 492.28 150.09 494.53 136.27 495.90 122.37 C 477.50 120.98 459.14 118.91 440.74 117.59 C 440.30 123.04 439.85 128.50 439.43 133.95 M 111.68 165.40 C 118.81 189.03 126.00 212.65 133.08 236.30 C 138.81 236.27 144.54 236.07 150.27 235.96 C 164.02 235.68 177.77 235.36 191.52 235.06 C 187.37 212.64 183.16 190.23 179.01 167.81 C 162.46 167.21 145.90 166.44 129.34 166.07 C 123.50 165.63 117.56 165.51 111.68 165.40 M 194.38 168.35 C 198.47 190.46 202.63 212.56 206.69 234.68 C 226.60 234.33 246.51 233.82 266.43 233.41 C 265.19 212.92 263.91 192.43 262.67 171.94 C 262.96 170.30 260.98 170.85 260.07 170.69 C 238.17 169.97 216.28 169.12 194.38 168.35 M 277.66 171.38 C 278.86 191.89 280.27 212.38 281.35 232.89 C 301.20 232.88 321.05 232.03 340.90 231.78 C 341.47 212.42 341.97 193.07 342.44 173.71 C 320.84 172.95 299.25 172.14 277.66 171.38 M 357.46 174.30 C 356.98 193.33 356.43 212.36 355.95 231.40 C 376.20 230.87 396.47 230.71 416.70 229.91 C 417.90 212.10 419.72 194.32 420.81 176.51 C 399.69 175.93 378.58 174.98 357.46 174.30 M 435.94 177.13 C 434.53 194.66 433.12 212.18 431.72 229.71 C 442.97 229.48 454.22 229.22 465.47 228.96 C 471.07 228.83 476.67 228.77 482.28 228.54 C 484.25 212.02 486.70 195.54 488.60 179.01 C 483.03 179.14 477.40 178.17 471.89 178.79 L 471.92 178.37 C 459.92 178.11 447.93 177.51 435.94 177.13 M 430.60 244.70 C 429.39 255.59 429.03 266.56 427.69 277.43 L 427.37 277.24 C 427.62 283.68 426.78 290.10 426.39 296.54 C 437.59 295.67 448.80 294.92 460.01 294.03 C 467.87 293.65 474.81 286.96 475.62 279.15 C 477.17 267.33 478.72 255.51 480.23 243.68 C 474.65 243.75 469.07 243.91 463.50 244.03 C 452.53 244.23 441.57 244.57 430.60 244.70 M 355.56 246.41 C 355.32 254.29 355.19 262.17 354.88 270.05 C 354.51 271.33 354.09 272.63 354.17 274.00 C 354.28 283.28 354.48 292.55 354.09 301.83 C 373.00 300.38 391.92 299.09 410.82 297.62 C 412.18 292.32 411.80 286.45 412.53 280.95 C 413.54 269.02 414.40 257.08 415.48 245.16 C 395.50 245.45 375.53 246.00 355.56 246.41 M 282.39 248.02 C 283.23 262.10 284.11 276.19 284.99 290.28 C 285.33 295.79 285.61 301.31 286.05 306.83 C 303.70 305.48 321.36 304.22 339.02 302.91 C 339.38 297.55 338.91 292.13 339.79 286.82 C 336.71 286.86 333.63 286.89 330.55 286.80 C 333.57 286.14 336.71 286.48 339.78 286.11 C 339.42 273.04 340.40 259.86 340.52 246.75 C 321.14 247.16 301.77 247.62 282.39 248.02 M 209.51 249.66 C 212.32 264.85 215.17 280.04 217.99 295.24 L 218.70 295.17 L 217.92 295.42 C 219.42 300.75 219.50 306.49 221.41 311.68 C 237.91 310.16 254.47 309.18 271.00 307.93 C 270.72 302.41 270.35 296.90 270.00 291.39 C 269.20 277.06 268.15 262.74 267.46 248.41 C 248.14 248.75 228.83 249.25 209.51 249.66 M 154.80 250.89 C 149.11 250.97 143.43 251.14 137.74 251.24 C 142.14 266.68 146.94 282.01 151.57 297.39 C 154.49 307.52 164.46 314.98 175.03 314.78 C 185.35 314.34 195.64 313.29 205.96 312.69 C 205.03 307.21 203.95 301.76 202.94 296.30 C 200.05 280.85 197.23 265.39 194.27 249.96 C 181.11 250.35 167.96 250.53 154.80 250.89 Z" />
<path fill="#000000" opacity="1.00" d=" M 143.34 346.24 C 144.73 342.35 149.39 339.98 153.28 341.69 C 157.25 343.18 159.03 348.22 157.13 351.95 C 150.25 368.34 143.09 384.62 136.20 401.01 C 133.70 406.29 138.16 412.96 143.96 412.80 C 247.98 412.93 352.00 412.76 456.02 412.88 C 460.40 412.59 464.41 416.73 463.75 421.11 C 463.48 424.96 459.81 427.93 456.03 427.80 C 450.64 427.94 445.25 427.78 439.86 427.86 C 439.85 433.86 439.80 439.86 439.89 445.86 C 448.22 447.94 455.62 453.50 459.80 461.03 C 464.02 468.39 464.96 477.50 462.42 485.59 C 459.57 495.29 451.67 503.33 442.02 506.35 C 433.42 509.23 423.61 508.01 415.92 503.25 C 405.38 496.96 399.33 484.13 401.20 471.99 C 402.79 459.50 412.66 448.81 424.84 445.82 C 424.85 439.84 424.84 433.86 424.84 427.88 C 367.57 427.81 310.29 427.87 253.01 427.85 C 224.43 427.96 195.83 427.62 167.27 428.02 C 167.35 433.93 167.33 439.84 167.28 445.75 C 174.10 447.66 180.45 451.54 184.73 457.26 C 191.00 465.19 192.91 476.27 189.80 485.87 C 186.92 495.31 179.27 503.12 169.91 506.20 C 160.85 509.40 150.38 507.98 142.42 502.65 C 132.48 496.19 126.92 483.80 128.63 472.08 C 130.20 459.62 140.01 448.77 152.23 445.90 C 152.39 439.88 152.30 433.86 152.28 427.85 C 146.84 427.78 141.17 428.27 135.98 426.29 C 128.11 423.50 122.14 416.14 120.90 407.91 C 119.99 402.87 121.24 397.75 123.21 393.11 C 129.96 377.51 136.58 361.85 143.34 346.24 M 156.34 460.47 C 149.20 461.93 143.55 468.66 143.47 475.96 C 142.96 484.85 151.12 493.22 160.06 492.72 C 168.69 492.96 176.86 484.80 175.80 476.04 C 176.56 466.09 165.76 458.14 156.34 460.47 M 429.28 460.39 C 421.66 461.69 415.47 469.15 416.21 476.96 C 415.91 485.38 423.72 492.92 432.07 492.72 C 441.02 493.25 449.22 484.96 448.64 476.03 C 448.80 466.25 438.80 458.30 429.28 460.39 Z" />
</g>
<g id="#955a66ff">
<path fill="#955a66" opacity="1.00" d=" M 21.97 19.08 C 25.53 18.24 28.77 20.38 31.11 22.83 C 44.94 36.67 58.77 50.49 72.60 64.33 C 74.27 66.20 76.31 68.31 76.08 71.03 C 76.80 75.98 71.97 80.75 67.04 80.08 C 64.30 80.35 62.21 78.28 60.33 76.61 C 46.50 62.78 32.68 48.95 18.85 35.13 C 16.98 33.19 15.00 30.91 14.96 28.07 C 14.59 23.87 17.88 19.83 21.97 19.08 Z" />
<path fill="#955a66" opacity="1.00" d=" M 156.34 460.47 C 165.76 458.14 176.56 466.09 175.80 476.04 C 176.86 484.80 168.69 492.96 160.06 492.72 C 151.12 493.22 142.96 484.85 143.47 475.96 C 143.55 468.66 149.20 461.93 156.34 460.47 Z" />
<path fill="#955a66" opacity="1.00" d=" M 429.28 460.39 C 438.80 458.30 448.80 466.25 448.64 476.03 C 449.22 484.96 441.02 493.25 432.07 492.72 C 423.72 492.92 415.91 485.38 416.21 476.96 C 415.47 469.15 421.66 461.69 429.28 460.39 Z" />
</g>
<g id="#edebedff">
<path fill="#edebed" opacity="1.00" d=" M 113.58 107.49 C 114.89 105.24 117.66 104.65 120.07 104.97 C 136.08 106.40 152.09 107.89 168.09 109.32 C 170.83 123.75 173.48 138.20 176.19 152.65 C 158.98 151.91 141.68 151.66 124.54 150.60 C 120.83 138.60 117.30 126.55 113.60 114.55 C 112.98 112.29 112.08 109.62 113.58 107.49 Z" />
<path fill="#edebed" opacity="1.00" d=" M 183.67 111.55 C 183.81 111.37 184.09 111.00 184.23 110.81 C 207.12 112.86 230.00 114.91 252.88 117.06 C 254.88 117.84 257.03 117.79 259.14 117.66 C 260.31 130.33 260.77 143.08 261.65 155.78 C 238.31 154.96 214.96 154.02 191.61 153.26 C 188.80 139.40 186.52 125.40 183.67 111.55 Z" />
<path fill="#edebed" opacity="1.00" d=" M 274.82 127.12 C 274.72 124.39 274.37 121.53 275.53 118.95 C 298.25 121.30 321.02 123.14 343.77 125.27 C 343.53 136.39 343.09 147.51 342.94 158.64 C 320.86 158.00 298.79 157.11 276.71 156.28 C 276.06 146.56 275.64 136.83 274.82 127.12 Z" />
<path fill="#edebed" opacity="1.00" d=" M 358.32 127.33 C 359.02 127.16 360.42 126.81 361.12 126.64 C 362.75 126.99 364.40 127.21 366.07 127.32 C 385.48 128.89 404.85 131.11 424.28 132.37 C 424.26 133.83 424.25 135.29 424.23 136.75 C 423.35 145.02 422.85 153.33 422.12 161.61 C 400.71 160.83 379.29 160.11 357.88 159.24 C 358.16 149.49 358.33 139.74 358.70 129.99 C 358.61 129.32 358.42 127.99 358.32 127.33 Z" />
<path fill="#edebed" opacity="1.00" d=" M 439.43 133.95 C 449.98 134.95 460.54 135.81 471.08 136.86 C 474.23 136.91 477.08 139.83 476.59 143.05 C 475.91 149.85 474.85 156.60 474.01 163.38 C 470.33 163.30 466.65 163.20 462.97 163.13 C 454.39 162.82 445.81 162.38 437.22 162.24 C 437.82 152.80 438.70 143.38 439.43 133.95 Z" />
<path fill="#edebed" opacity="1.00" d=" M 129.34 166.07 C 145.90 166.44 162.46 167.21 179.01 167.81 C 183.16 190.23 187.37 212.64 191.52 235.06 C 177.77 235.36 164.02 235.68 150.27 235.96 C 143.35 212.65 136.03 189.44 129.34 166.07 Z" />
<path fill="#edebed" opacity="1.00" d=" M 194.38 168.35 C 216.28 169.12 238.17 169.97 260.07 170.69 C 260.98 170.85 262.96 170.30 262.67 171.94 C 263.91 192.43 265.19 212.92 266.43 233.41 C 246.51 233.82 226.60 234.33 206.69 234.68 C 202.63 212.56 198.47 190.46 194.38 168.35 Z" />
<path fill="#edebed" opacity="1.00" d=" M 277.66 171.38 C 299.25 172.14 320.84 172.95 342.44 173.71 C 341.97 193.07 341.47 212.42 340.90 231.78 C 321.05 232.03 301.20 232.88 281.35 232.89 C 280.27 212.38 278.86 191.89 277.66 171.38 Z" />
<path fill="#edebed" opacity="1.00" d=" M 357.46 174.30 C 378.58 174.98 399.69 175.93 420.81 176.51 C 419.72 194.32 417.90 212.10 416.70 229.91 C 396.47 230.71 376.20 230.87 355.95 231.40 C 356.43 212.36 356.98 193.33 357.46 174.30 Z" />
<path fill="#edebed" opacity="1.00" d=" M 435.94 177.13 C 447.93 177.51 459.92 178.11 471.92 178.37 L 471.89 178.79 C 469.99 195.54 467.56 212.23 465.47 228.96 C 454.22 229.22 442.97 229.48 431.72 229.71 C 433.12 212.18 434.53 194.66 435.94 177.13 Z" />
<path fill="#edebed" opacity="1.00" d=" M 430.60 244.70 C 441.57 244.57 452.53 244.23 463.50 244.03 C 462.26 253.41 461.07 262.79 459.81 272.17 C 459.70 274.88 457.69 277.55 454.87 277.78 C 446.16 278.69 437.38 278.89 428.68 279.92 C 428.33 279.09 428.01 278.26 427.69 277.43 C 429.03 266.56 429.39 255.59 430.60 244.70 Z" />
<path fill="#edebed" opacity="1.00" d=" M 355.56 246.41 C 375.53 246.00 395.50 245.45 415.48 245.16 C 414.40 257.08 413.54 269.02 412.53 280.95 C 396.70 282.11 380.88 283.27 365.06 284.42 C 361.60 284.80 358.08 284.59 354.71 285.52 C 354.67 280.36 354.74 275.20 354.88 270.05 C 355.19 262.17 355.32 254.29 355.56 246.41 Z" />
<path fill="#edebed" opacity="1.00" d=" M 282.39 248.02 C 301.77 247.62 321.14 247.16 340.52 246.75 C 340.40 259.86 339.42 273.04 339.78 286.11 C 336.71 286.48 333.57 286.14 330.55 286.80 C 315.40 288.26 300.17 289.07 284.99 290.28 C 284.11 276.19 283.23 262.10 282.39 248.02 Z" />
<path fill="#edebed" opacity="1.00" d=" M 209.51 249.66 C 228.83 249.25 248.14 248.75 267.46 248.41 C 268.15 262.74 269.20 277.06 270.00 291.39 C 252.90 292.65 235.79 293.83 218.70 295.17 L 217.99 295.24 C 215.17 280.04 212.32 264.85 209.51 249.66 Z" />
<path fill="#edebed" opacity="1.00" d=" M 154.80 250.89 C 167.96 250.53 181.11 250.35 194.27 249.96 C 197.23 265.39 200.05 280.85 202.94 296.30 C 193.96 296.90 184.99 297.64 176.01 298.23 C 172.19 298.66 168.41 296.11 167.37 292.42 C 163.09 278.60 158.98 264.74 154.80 250.89 Z" />
</g>
</svg>
