<?xml version="1.0" encoding="UTF-8" ?>
<!DOCTYPE svg PUBLIC "-//W3C//DTD SVG 1.1//EN" "http://www.w3.org/Graphics/SVG/1.1/DTD/svg11.dtd">
<svg width="256pt" height="256pt" viewBox="0 0 256 256" version="1.1" xmlns="http://www.w3.org/2000/svg">
<g id="#5d5e5dff">
<path fill="#5d5e5d" opacity="1.00" d=" M 139.60 2.53 C 142.37 0.84 145.69 -0.51 148.97 0.42 C 152.27 1.15 154.59 3.83 156.21 6.63 C 159.64 12.43 163.06 18.25 166.48 24.05 C 174.90 18.96 183.15 13.58 191.62 8.58 C 196.35 5.58 202.99 7.47 205.67 12.31 C 216.60 30.05 227.41 47.88 238.25 65.68 C 239.59 68.00 241.84 69.53 243.75 71.33 C 251.25 78.39 255.56 88.49 256.00 98.73 L 256.00 178.62 C 255.65 181.47 254.58 184.38 252.22 186.16 C 249.45 188.62 245.53 188.48 242.06 188.53 C 228.73 188.41 215.40 188.63 202.07 188.42 C 192.25 188.26 182.64 183.05 177.38 174.72 C 170.92 164.95 171.07 151.41 177.72 141.77 C 183.05 133.75 192.42 128.74 202.03 128.58 C 213.35 128.39 224.67 128.55 235.99 128.50 C 235.97 118.99 236.07 109.47 235.95 99.95 C 236.02 92.05 230.91 84.48 223.59 81.55 C 218.99 79.59 213.88 80.05 209.01 79.99 C 150.00 80.01 90.98 79.99 31.97 80.00 C 27.91 80.06 23.88 79.48 20.00 78.32 C 20.04 124.24 19.93 170.16 20.05 216.07 C 19.83 226.70 29.34 236.18 39.96 235.95 C 97.97 236.07 155.98 235.95 213.98 236.01 C 222.29 236.62 230.73 231.78 234.18 224.17 C 235.63 220.60 237.88 216.82 241.96 215.95 C 248.46 213.92 255.60 220.28 254.19 226.98 C 250.20 243.55 233.93 255.57 217.09 256.00 L 39.73 256.00 C 27.96 255.69 16.33 250.33 8.99 241.04 C 3.38 234.25 0.48 225.57 0.00 216.85 L 0.00 47.39 C 1.47 37.19 7.85 27.62 17.39 23.36 C 25.68 19.30 35.13 20.80 44.02 20.47 C 48.40 20.33 53.63 20.55 56.38 24.54 C 60.68 29.75 57.62 38.67 50.99 40.04 C 43.36 41.28 35.54 39.77 27.90 40.86 C 21.26 41.92 17.71 50.73 22.10 55.96 C 25.47 60.78 31.91 59.99 37.04 60.01 C 40.33 59.75 44.03 60.82 46.96 58.88 C 77.81 40.05 108.74 21.35 139.60 2.53 M 83.59 59.99 C 110.55 60.01 137.52 60.00 164.49 60.00 C 157.38 47.93 150.27 35.86 143.12 23.82 C 123.27 35.87 103.42 47.92 83.59 59.99 M 176.69 41.28 C 180.37 47.53 184.06 53.77 187.76 60.00 C 195.63 59.99 203.50 60.01 211.37 59.99 C 205.44 50.26 199.50 40.55 193.57 30.82 C 187.93 34.29 182.31 37.79 176.69 41.28 M 192.74 157.08 C 191.70 162.67 196.46 168.31 202.12 168.39 C 213.40 168.66 224.71 168.42 236.00 168.50 C 236.00 161.83 236.00 155.17 236.00 148.50 C 225.01 148.53 214.03 148.44 203.05 148.54 C 198.11 148.37 193.30 152.08 192.74 157.08 Z" />
</g>
</svg>
