<?xml version="1.0" encoding="UTF-8" ?>
<!DOCTYPE svg PUBLIC "-//W3C//DTD SVG 1.1//EN" "http://www.w3.org/Graphics/SVG/1.1/DTD/svg11.dtd">
<svg width="512pt" height="512pt" viewBox="0 0 512 512" version="1.1" xmlns="http://www.w3.org/2000/svg">
<g id="#000000ff">
<path fill="#000000" opacity="1.00" d=" M 163.51 49.44 C 184.88 31.03 212.78 20.37 241.01 20.02 C 258.06 20.13 275.39 18.96 292.08 23.25 C 329.37 31.78 361.80 58.93 376.58 94.23 C 378.10 97.64 376.22 101.77 372.90 103.26 C 370.99 103.72 368.87 104.04 367.07 103.03 C 364.48 101.88 363.56 99.02 362.41 96.67 C 349.25 67.86 322.71 45.66 292.10 37.60 C 279.54 34.05 266.40 33.57 253.44 33.93 C 241.93 33.66 230.30 33.90 219.05 36.60 C 191.35 42.79 166.52 60.46 151.38 84.44 C 143.02 97.55 137.55 112.50 135.47 127.91 C 134.03 138.33 134.52 148.86 134.45 159.34 C 157.56 169.02 183.52 169.93 207.92 165.30 C 238.62 159.49 267.50 146.36 294.02 130.10 C 301.82 125.32 309.36 120.13 316.70 114.66 C 318.66 113.05 321.30 113.08 323.65 113.63 C 327.92 116.10 328.37 121.45 330.82 125.32 C 339.22 141.13 355.45 151.41 372.53 155.60 C 372.57 146.69 372.83 137.76 371.77 128.90 C 371.01 124.92 374.13 121.30 377.98 120.75 C 381.37 120.61 384.82 122.92 385.39 126.37 C 386.62 133.92 386.44 141.59 386.56 149.21 C 393.69 152.09 398.98 159.19 399.10 166.96 C 399.16 178.63 399.12 190.30 399.12 201.96 C 399.19 209.98 393.76 217.28 386.49 220.35 C 386.43 229.89 386.66 239.43 386.37 248.97 C 385.46 265.63 373.10 280.84 356.98 285.15 C 339.20 289.87 321.37 294.42 303.57 299.07 C 303.34 302.94 304.46 306.86 307.32 309.60 C 312.27 307.79 317.34 309.49 322.06 311.12 C 348.17 319.27 374.29 327.38 400.39 335.54 C 418.01 341.15 433.80 352.28 445.01 366.99 C 457.09 382.60 463.93 402.21 464.00 421.96 C 464.00 440.31 464.00 458.66 464.00 477.00 C 464.22 482.92 460.44 488.68 454.96 490.88 C 451.50 492.42 447.63 491.93 443.96 492.00 C 316.98 492.00 190.00 492.00 63.03 492.00 C 54.95 492.42 47.60 485.11 48.00 477.04 C 48.04 460.33 47.92 443.62 48.06 426.91 C 48.08 423.28 51.47 420.53 54.94 420.35 C 58.39 420.62 61.76 423.23 61.79 426.90 C 62.05 443.95 61.72 461.01 61.95 478.06 C 74.67 478.19 87.39 478.10 100.11 478.11 C 100.12 457.73 100.14 437.36 100.10 416.98 C 100.14 414.81 100.10 412.41 101.58 410.66 C 103.95 407.37 109.23 407.04 112.01 409.98 C 113.96 411.75 114.10 414.52 114.09 416.98 C 114.04 437.36 114.07 457.74 114.07 478.11 C 208.69 478.12 303.31 478.12 397.93 478.11 C 397.99 457.05 397.85 435.98 397.99 414.91 C 397.81 411.25 400.88 408.54 404.21 407.76 C 408.12 407.78 412.01 410.75 411.83 414.90 C 411.96 435.97 411.83 457.04 411.89 478.11 C 424.61 478.10 437.34 478.18 450.07 478.07 C 450.19 464.04 450.09 450.00 450.12 435.97 C 450.04 426.94 450.57 417.83 448.85 408.92 C 444.73 385.62 429.26 364.70 408.25 353.85 C 400.36 349.62 391.62 347.48 383.16 344.75 C 372.37 341.38 361.59 338.03 350.81 334.67 C 348.79 336.90 346.80 339.16 344.83 341.43 C 336.67 350.74 328.50 360.05 320.34 369.37 C 317.39 372.73 314.53 376.27 310.79 378.78 C 302.83 384.33 292.26 385.86 283.04 382.86 C 274.00 379.88 265.02 376.71 255.99 373.70 C 246.51 376.91 237.03 380.15 227.56 383.38 C 219.83 386.26 210.83 385.57 203.78 381.23 C 199.21 378.60 196.04 374.30 192.60 370.44 C 182.12 358.52 171.71 346.53 161.18 334.66 C 149.60 338.30 138.00 341.89 126.41 345.50 C 119.04 347.83 111.51 349.84 104.62 353.43 C 86.99 362.25 73.12 378.07 66.48 396.60 C 65.48 400.50 61.40 402.67 57.56 401.78 C 54.16 400.49 51.78 396.64 53.02 393.05 C 61.94 366.31 84.06 344.48 110.87 335.80 C 138.89 326.98 166.96 318.32 194.99 309.55 C 198.12 308.49 201.49 308.66 204.62 309.62 C 207.43 307.00 208.70 303.17 208.36 299.38 C 188.86 294.65 169.40 289.78 149.96 284.84 C 133.97 280.53 121.70 265.49 120.70 248.96 C 120.36 238.46 120.69 227.96 120.54 217.46 C 115.95 213.65 112.85 207.97 112.89 201.94 C 112.85 190.63 112.88 179.33 112.88 168.02 C 112.74 161.87 115.75 155.93 120.50 152.09 C 120.64 144.34 120.38 136.57 121.33 128.87 C 124.61 98.30 140.09 69.32 163.51 49.44 M 258.48 164.29 C 228.10 177.11 194.68 184.86 161.62 180.82 C 161.66 190.20 161.21 199.65 162.97 208.92 C 167.59 236.60 185.45 261.59 209.96 275.19 C 226.72 284.72 246.44 288.56 265.58 286.76 C 257.81 283.24 252.87 274.57 253.87 266.09 C 254.63 257.44 261.57 249.82 270.12 248.28 C 278.04 246.87 285.98 245.52 293.92 244.18 C 301.99 242.86 310.30 247.20 314.39 254.17 C 319.53 253.34 324.66 252.43 329.80 251.56 C 342.55 235.61 349.95 215.46 350.34 195.03 C 350.37 184.12 350.34 173.22 350.35 162.32 C 336.67 155.58 325.00 144.67 318.01 131.05 C 299.36 144.11 279.45 155.41 258.48 164.29 M 364.31 167.90 C 364.06 181.15 365.01 194.48 363.32 207.68 C 368.85 207.62 374.39 207.84 379.92 207.59 C 383.13 207.34 385.50 204.14 385.23 201.01 C 385.31 190.08 385.15 179.16 385.30 168.23 C 383.71 169.29 382.15 170.75 380.12 170.75 C 374.73 170.69 369.53 169.08 364.31 167.90 M 126.76 171.19 C 126.76 181.13 126.73 191.06 126.77 200.99 C 126.41 204.48 129.37 207.79 132.90 207.69 C 138.16 207.84 143.44 207.75 148.71 207.69 C 147.27 197.94 147.78 188.08 147.69 178.27 C 140.54 176.47 133.53 174.13 126.76 171.19 M 134.51 221.63 C 134.53 230.08 134.45 238.54 134.54 246.99 C 134.80 258.29 143.17 268.74 154.10 271.56 C 167.16 274.87 180.23 278.12 193.31 281.33 C 187.84 276.96 182.32 272.59 177.55 267.43 C 165.25 254.62 156.33 238.68 151.50 221.61 C 145.83 221.65 140.17 221.61 134.51 221.63 M 357.79 229.92 C 355.72 235.76 352.91 241.29 350.05 246.77 C 359.00 241.78 362.58 230.91 361.00 221.17 C 359.48 223.91 358.92 227.03 357.79 229.92 M 360.49 256.50 C 353.88 261.72 345.43 263.27 337.30 264.41 C 332.08 270.33 326.05 275.45 319.95 280.44 C 330.65 277.63 341.36 274.88 352.05 272.08 C 358.51 270.53 364.34 266.52 368.02 260.98 C 372.19 255.16 372.91 247.81 372.61 240.86 C 369.99 246.99 365.91 252.55 360.49 256.50 M 294.23 258.22 C 286.83 259.60 279.35 260.58 271.99 262.18 C 267.39 263.46 266.16 270.21 269.95 273.10 C 272.85 275.69 276.86 274.12 280.21 273.67 C 286.33 272.52 292.52 271.71 298.61 270.40 C 302.75 269.31 304.50 263.64 301.71 260.39 C 300.01 258.04 296.89 257.53 294.23 258.22 M 222.31 295.78 C 222.91 303.83 221.26 312.37 215.54 318.40 C 228.99 331.22 242.52 343.96 256.00 356.75 C 269.47 343.93 283.06 331.23 296.46 318.34 C 290.69 312.37 289.11 303.81 289.69 295.79 C 267.96 302.85 244.04 302.88 222.31 295.78 M 175.86 330.35 C 185.32 340.80 194.48 351.53 203.82 362.09 C 206.56 365.09 208.95 368.76 212.91 370.26 C 216.19 371.69 219.92 371.36 223.22 370.15 C 229.72 367.88 236.30 365.78 242.77 363.40 C 228.51 349.83 214.12 336.41 199.95 322.75 C 191.87 325.08 183.73 327.41 175.86 330.35 M 269.20 363.43 C 275.13 365.52 281.08 367.54 287.05 369.54 C 291.95 371.23 297.55 370.59 301.97 367.89 C 304.83 366.20 306.90 363.54 309.06 361.09 C 318.07 350.75 327.19 340.50 336.15 330.12 C 328.16 327.63 320.19 325.04 312.15 322.70 C 297.89 336.34 283.51 349.84 269.20 363.43 Z" />
<path fill="#000000" opacity="1.00" d=" M 141.43 404.52 C 159.27 404.17 177.15 404.48 195.00 404.37 C 201.46 403.99 207.53 409.48 207.63 415.99 C 207.75 423.97 207.72 431.96 207.65 439.94 C 207.65 446.09 202.30 451.69 196.12 451.78 C 178.42 451.85 160.72 451.81 143.02 451.80 C 138.44 451.84 134.07 448.90 132.20 444.75 C 130.75 441.72 131.09 438.25 131.05 435.00 C 131.14 428.62 130.93 422.23 131.13 415.86 C 131.30 410.27 135.88 405.23 141.43 404.52 M 145.03 418.25 C 145.01 424.81 145.03 431.37 145.02 437.93 C 161.26 437.90 177.50 437.93 193.74 437.91 C 193.72 431.36 193.74 424.81 193.74 418.26 C 177.50 418.26 161.26 418.28 145.03 418.25 Z" />
</g>
<g id="#fd9726ff">
<path fill="#fd9726" opacity="1.00" d=" M 219.05 36.60 C 230.30 33.90 241.93 33.66 253.44 33.93 C 259.27 37.04 265.50 39.39 271.11 42.92 C 296.10 57.52 315.26 81.83 323.39 109.62 C 323.67 110.93 323.61 112.29 323.65 113.63 C 321.30 113.08 318.66 113.05 316.70 114.66 C 309.36 120.13 301.82 125.32 294.02 130.10 C 267.50 146.36 238.62 159.49 207.92 165.30 C 183.52 169.93 157.56 169.02 134.45 159.34 C 134.52 148.86 134.03 138.33 135.47 127.91 C 137.55 112.50 143.02 97.55 151.38 84.44 C 166.52 60.46 191.35 42.79 219.05 36.60 Z" />
<path fill="#fd9726" opacity="1.00" d=" M 134.51 221.63 C 140.17 221.61 145.83 221.65 151.50 221.61 C 156.33 238.68 165.25 254.62 177.55 267.43 C 182.32 272.59 187.84 276.96 193.31 281.33 C 180.23 278.12 167.16 274.87 154.10 271.56 C 143.17 268.74 134.80 258.29 134.54 246.99 C 134.45 238.54 134.53 230.08 134.51 221.63 Z" />
<path fill="#fd9726" opacity="1.00" d=" M 145.03 418.25 C 161.26 418.28 177.50 418.26 193.74 418.26 C 193.74 424.81 193.72 431.36 193.74 437.91 C 177.50 437.93 161.26 437.90 145.02 437.93 C 145.03 431.37 145.01 424.81 145.03 418.25 Z" />
</g>
<g id="#ff6d3aff">
<path fill="#ff6d3a" opacity="1.00" d=" M 253.44 33.93 C 266.40 33.57 279.54 34.05 292.10 37.60 C 322.71 45.66 349.25 67.86 362.41 96.67 C 363.56 99.02 364.48 101.88 367.07 103.03 C 368.87 104.04 370.99 103.72 372.90 103.26 C 375.38 108.84 376.39 114.90 377.98 120.75 C 374.13 121.30 371.01 124.92 371.77 128.90 C 372.83 137.76 372.57 146.69 372.53 155.60 C 355.45 151.41 339.22 141.13 330.82 125.32 C 328.37 121.45 327.92 116.10 323.65 113.63 C 323.61 112.29 323.67 110.93 323.39 109.62 C 315.26 81.83 296.10 57.52 271.11 42.92 C 265.50 39.39 259.27 37.04 253.44 33.93 Z" />
<path fill="#ff6d3a" opacity="1.00" d=" M 357.79 229.92 C 358.92 227.03 359.48 223.91 361.00 221.17 C 362.58 230.91 359.00 241.78 350.05 246.77 C 352.91 241.29 355.72 235.76 357.79 229.92 Z" />
<path fill="#ff6d3a" opacity="1.00" d=" M 360.49 256.50 C 365.91 252.55 369.99 246.99 372.61 240.86 C 372.91 247.81 372.19 255.16 368.02 260.98 C 364.34 266.52 358.51 270.53 352.05 272.08 C 341.36 274.88 330.65 277.63 319.95 280.44 C 326.05 275.45 332.08 270.33 337.30 264.41 C 345.43 263.27 353.88 261.72 360.49 256.50 Z" />
</g>
<g id="#fcd5a3ff">
<path fill="#fcd5a3" opacity="1.00" d=" M 258.48 164.29 C 279.45 155.41 299.36 144.11 318.01 131.05 C 325.00 144.67 336.67 155.58 350.35 162.32 C 350.34 173.22 350.37 184.12 350.34 195.03 C 349.95 215.46 342.55 235.61 329.80 251.56 C 324.66 252.43 319.53 253.34 314.39 254.17 C 310.30 247.20 301.99 242.86 293.92 244.18 C 285.98 245.52 278.04 246.87 270.12 248.28 C 261.57 249.82 254.63 257.44 253.87 266.09 C 252.87 274.57 257.81 283.24 265.58 286.76 C 246.44 288.56 226.72 284.72 209.96 275.19 C 185.45 261.59 167.59 236.60 162.97 208.92 C 161.21 199.65 161.66 190.20 161.62 180.82 C 194.68 184.86 228.10 177.11 258.48 164.29 Z" />
<path fill="#fcd5a3" opacity="1.00" d=" M 222.31 295.78 C 244.04 302.88 267.96 302.85 289.69 295.79 C 289.11 303.81 290.69 312.37 296.46 318.34 C 283.06 331.23 269.47 343.93 256.00 356.75 C 242.52 343.96 228.99 331.22 215.54 318.40 C 221.26 312.37 222.91 303.83 222.31 295.78 Z" />
</g>
<g id="#3d6687ff">
<path fill="#3d6687" opacity="1.00" d=" M 364.31 167.90 C 369.53 169.08 374.73 170.69 380.12 170.75 C 382.15 170.75 383.71 169.29 385.30 168.23 C 385.15 179.16 385.31 190.08 385.23 201.01 C 385.50 204.14 383.13 207.34 379.92 207.59 C 374.39 207.84 368.85 207.62 363.32 207.68 C 365.01 194.48 364.06 181.15 364.31 167.90 Z" />
<path fill="#3d6687" opacity="1.00" d=" M 126.76 171.19 C 133.53 174.13 140.54 176.47 147.69 178.27 C 147.78 188.08 147.27 197.94 148.71 207.69 C 143.44 207.75 138.16 207.84 132.90 207.69 C 129.37 207.79 126.41 204.48 126.77 200.99 C 126.73 191.06 126.76 181.13 126.76 171.19 Z" />
</g>
<g id="#8cc152ff">
<path fill="#8cc152" opacity="1.00" d=" M 294.23 258.22 C 296.89 257.53 300.01 258.04 301.71 260.39 C 304.50 263.64 302.75 269.31 298.61 270.40 C 292.52 271.71 286.33 272.52 280.21 273.67 C 276.86 274.12 272.85 275.69 269.95 273.10 C 266.16 270.21 267.39 263.46 271.99 262.18 C 279.35 260.58 286.83 259.60 294.23 258.22 Z" />
<path fill="#8cc152" opacity="1.00" d=" M 126.41 345.50 C 138.00 341.89 149.60 338.30 161.18 334.66 C 171.71 346.53 182.12 358.52 192.60 370.44 C 196.04 374.30 199.21 378.60 203.78 381.23 C 210.83 385.57 219.83 386.26 227.56 383.38 C 237.03 380.15 246.51 376.91 255.99 373.70 C 265.02 376.71 274.00 379.88 283.04 382.86 C 292.26 385.86 302.83 384.33 310.79 378.78 C 314.53 376.27 317.39 372.73 320.34 369.37 C 328.50 360.05 336.67 350.74 344.83 341.43 C 353.14 344.14 361.21 347.70 368.43 352.66 C 386.95 365.36 400.45 385.53 404.21 407.76 C 400.88 408.54 397.81 411.25 397.99 414.91 C 397.85 435.98 397.99 457.05 397.93 478.11 C 303.31 478.12 208.69 478.12 114.07 478.11 C 114.07 457.74 114.04 437.36 114.09 416.98 C 114.10 414.52 113.96 411.75 112.01 409.98 C 109.23 407.04 103.95 407.37 101.58 410.66 C 100.10 412.41 100.14 414.81 100.10 416.98 C 100.14 437.36 100.12 457.73 100.11 478.11 C 87.39 478.10 74.67 478.19 61.95 478.06 C 61.72 461.01 62.05 443.95 61.79 426.90 C 61.76 423.23 58.39 420.62 54.94 420.35 C 55.13 414.08 56.03 407.85 57.56 401.78 C 61.40 402.67 65.48 400.50 66.48 396.60 C 73.12 378.07 86.99 362.25 104.62 353.43 C 111.51 349.84 119.04 347.83 126.41 345.50 M 141.43 404.52 C 135.88 405.23 131.30 410.27 131.13 415.86 C 130.93 422.23 131.14 428.62 131.05 435.00 C 131.09 438.25 130.75 441.72 132.20 444.75 C 134.07 448.90 138.44 451.84 143.02 451.80 C 160.72 451.81 178.42 451.85 196.12 451.78 C 202.30 451.69 207.65 446.09 207.65 439.94 C 207.72 431.96 207.75 423.97 207.63 415.99 C 207.53 409.48 201.46 403.99 195.00 404.37 C 177.15 404.48 159.27 404.17 141.43 404.52 Z" />
</g>
<g id="#629b18ff">
<path fill="#629b18" opacity="1.00" d=" M 175.86 330.35 C 183.73 327.41 191.87 325.08 199.95 322.75 C 214.12 336.41 228.51 349.83 242.77 363.40 C 236.30 365.78 229.72 367.88 223.22 370.15 C 219.92 371.36 216.19 371.69 212.91 370.26 C 208.95 368.76 206.56 365.09 203.82 362.09 C 194.48 351.53 185.32 340.80 175.86 330.35 Z" />
<path fill="#629b18" opacity="1.00" d=" M 269.20 363.43 C 283.51 349.84 297.89 336.34 312.15 322.70 C 320.19 325.04 328.16 327.63 336.15 330.12 C 327.19 340.50 318.07 350.75 309.06 361.09 C 306.90 363.54 304.83 366.20 301.97 367.89 C 297.55 370.59 291.95 371.23 287.05 369.54 C 281.08 367.54 275.13 365.52 269.20 363.43 Z" />
</g>
<g id="#80b739ff">
<path fill="#80b739" opacity="1.00" d=" M 344.83 341.43 C 346.80 339.16 348.79 336.90 350.81 334.67 C 361.59 338.03 372.37 341.38 383.16 344.75 C 391.62 347.48 400.36 349.62 408.25 353.85 C 429.26 364.70 444.73 385.62 448.85 408.92 C 450.57 417.83 450.04 426.94 450.12 435.97 C 450.09 450.00 450.19 464.04 450.07 478.07 C 437.34 478.18 424.61 478.10 411.89 478.11 C 411.83 457.04 411.96 435.97 411.83 414.90 C 412.01 410.75 408.12 407.78 404.21 407.76 C 400.45 385.53 386.95 365.36 368.43 352.66 C 361.21 347.70 353.14 344.14 344.83 341.43 Z" />
</g>
</svg>
