<?xml version="1.0" encoding="UTF-8" ?>
<!DOCTYPE svg PUBLIC "-//W3C//DTD SVG 1.1//EN" "http://www.w3.org/Graphics/SVG/1.1/DTD/svg11.dtd">
<svg width="256pt" height="256pt" viewBox="0 0 256 256" version="1.1" xmlns="http://www.w3.org/2000/svg">
<g id="#ff7043ff">
<path fill="#ff7043" opacity="1.00" d=" M 92.50 0.00 L 121.88 0.00 C 130.70 0.86 139.67 -0.03 148.43 1.56 C 170.99 8.39 190.61 24.52 201.71 45.31 C 207.00 55.36 210.10 66.63 210.00 78.03 C 209.98 83.46 210.79 90.00 215.96 93.04 C 225.08 99.34 236.78 94.92 246.73 98.29 C 251.68 99.93 254.67 104.97 255.28 109.94 C 255.92 117.22 255.75 124.54 256.00 131.84 L 256.00 151.11 C 255.61 165.27 255.79 179.48 254.16 193.57 C 246.98 226.12 217.44 252.86 183.97 255.31 C 171.43 255.89 158.87 255.82 146.32 256.00 L 115.22 256.00 C 99.82 255.69 84.40 255.72 68.99 255.06 C 60.97 254.91 53.24 252.22 46.02 248.91 C 24.71 238.71 7.97 218.90 2.43 195.83 C -0.05 184.48 0.38 172.78 0.00 161.24 L 0.00 122.25 C 0.52 103.79 -0.06 85.27 1.27 66.83 C 6.05 39.12 26.29 14.58 52.89 5.16 C 65.44 0.12 79.19 0.27 92.50 0.00 M 78.42 68.69 C 72.09 69.46 67.26 75.72 67.46 81.98 C 67.33 88.86 72.67 96.39 80.04 96.17 C 96.74 96.71 113.51 97.12 130.19 95.71 C 137.62 95.76 142.94 87.88 141.92 80.87 C 141.86 74.06 135.53 68.91 129.11 68.30 C 122.41 67.85 115.69 67.94 108.97 67.93 C 98.79 68.10 88.55 67.49 78.42 68.69 M 78.51 160.86 C 69.32 161.75 64.39 174.18 69.46 181.56 C 71.56 184.77 74.69 187.91 78.75 188.06 C 86.48 188.72 94.24 188.69 101.98 188.81 C 125.33 188.83 148.67 188.34 172.02 188.19 C 174.93 187.75 177.85 187.31 180.74 186.74 C 186.81 183.50 189.61 175.40 186.86 169.08 C 185.74 166.10 183.30 163.99 180.94 162.00 C 176.22 160.05 170.99 160.30 166.00 160.00 C 147.31 159.73 128.63 159.88 109.94 159.86 C 99.47 160.10 88.94 159.64 78.51 160.86 Z" />
</g>
</svg>
