<?xml version="1.0" encoding="UTF-8" ?>
<!DOCTYPE svg PUBLIC "-//W3C//DTD SVG 1.1//EN" "http://www.w3.org/Graphics/SVG/1.1/DTD/svg11.dtd">
<svg width="256pt" height="256pt" viewBox="0 0 256 256" version="1.1" xmlns="http://www.w3.org/2000/svg">
<g id="#03a9f4ff">
<path fill="#03a9f4" opacity="1.00" d=" M 80.94 28.94 C 99.89 17.83 122.09 12.54 144.00 13.46 C 172.47 14.55 200.56 26.07 221.08 45.93 C 242.01 65.90 254.59 94.05 256.00 122.92 L 256.00 129.67 C 255.62 156.84 245.15 183.72 226.93 203.89 C 206.25 227.07 175.90 240.97 144.96 242.45 C 118.65 243.89 91.87 236.04 70.74 220.24 C 65.74 216.63 61.27 212.36 56.38 208.62 C 52.58 205.67 47.60 205.17 42.96 205.09 C 31.27 204.88 19.62 206.50 7.93 205.95 C 5.15 205.77 1.94 205.68 0.00 203.35 L 0.00 201.44 C 1.26 197.18 5.52 195.10 9.02 192.95 C 15.79 188.90 23.32 185.65 28.73 179.73 C 31.62 176.75 31.65 172.29 30.63 168.52 C 28.28 159.12 25.63 149.75 24.36 140.12 C 22.21 124.11 24.01 107.65 29.11 92.35 C 37.74 65.72 56.88 43.03 80.94 28.94 M 97.91 59.48 C 95.52 59.54 93.16 59.95 90.90 60.71 C 92.03 72.79 92.80 84.89 93.28 97.01 C 94.27 127.04 94.37 157.15 92.02 187.12 C 95.14 188.65 98.68 188.10 102.04 188.23 C 109.43 188.35 116.82 188.23 124.20 187.77 C 125.43 185.45 126.28 182.96 127.10 180.48 C 130.38 182.57 133.42 185.14 137.06 186.60 C 146.12 189.97 156.40 190.06 165.45 186.64 C 175.26 182.99 183.34 175.29 187.83 165.88 C 192.80 155.71 193.47 143.93 191.76 132.88 C 190.03 121.67 184.36 110.72 174.91 104.14 C 165.23 97.25 152.46 95.71 141.07 98.52 C 135.93 99.88 131.81 103.39 127.81 106.70 C 125.95 106.58 126.30 104.34 126.18 103.08 C 126.21 93.40 126.38 83.71 127.01 74.04 C 127.25 68.66 128.00 63.29 127.50 57.90 C 117.61 57.10 107.77 58.96 97.91 59.48 Z" />
<path fill="#03a9f4" opacity="1.00" d=" M 138.19 125.24 C 143.40 124.06 149.26 125.06 153.29 128.73 C 160.87 135.41 161.48 148.27 154.75 155.76 C 147.65 163.83 132.42 162.19 127.82 152.24 C 122.90 142.67 126.77 127.81 138.19 125.24 Z" />
</g>
</svg>
