<?xml version="1.0" encoding="UTF-8" ?>
<!DOCTYPE svg PUBLIC "-//W3C//DTD SVG 1.1//EN" "http://www.w3.org/Graphics/SVG/1.1/DTD/svg11.dtd">
<svg width="256pt" height="256pt" viewBox="0 0 256 256" version="1.1" xmlns="http://www.w3.org/2000/svg">
<g id="#1976d2ff">
<path fill="#1976d2" opacity="1.00" d=" M 7.27 48.28 C 29.92 33.94 52.64 19.74 75.25 5.34 C 92.90 19.41 110.41 33.66 127.98 47.82 C 145.60 33.69 163.12 19.45 180.74 5.33 C 205.84 21.09 230.79 37.11 256.00 52.67 L 256.00 52.91 C 240.51 64.79 225.10 76.78 209.64 88.71 C 207.81 89.99 206.28 91.93 203.98 92.33 C 202.80 92.28 201.73 91.92 200.76 91.25 C 176.56 76.70 152.27 62.29 128.02 47.83 C 102.73 62.95 77.43 78.05 52.10 93.11 C 37.05 81.45 21.98 69.81 6.92 58.16 C 4.71 56.50 2.72 54.38 0.00 53.54 L 0.00 52.40 C 2.60 51.36 4.94 49.80 7.27 48.28 Z" />
<path fill="#1976d2" opacity="1.00" d=" M 0.00 133.29 C 17.47 120.06 34.71 106.51 52.05 93.11 C 77.39 108.18 102.72 123.26 128.01 138.43 C 151.28 124.52 174.57 110.66 197.84 96.75 C 199.83 95.66 201.63 93.92 204.00 93.77 C 206.21 94.32 207.74 96.15 209.53 97.43 C 225.03 109.38 240.44 121.44 256.00 133.31 L 256.00 133.67 C 230.63 149.02 205.84 165.35 180.59 180.88 C 163.14 166.64 145.56 152.55 128.01 138.43 C 110.47 152.58 92.90 166.67 75.42 180.88 C 53.22 167.03 31.16 152.96 8.99 139.06 C 6.02 137.22 3.18 135.14 0.00 133.67 L 0.00 133.29 Z" />
<path fill="#1976d2" opacity="1.00" d=" M 94.48 185.38 C 105.36 176.01 116.63 167.14 128.02 158.41 C 140.41 167.77 152.49 177.52 164.23 187.67 C 168.48 191.12 172.41 195.15 177.41 197.52 C 179.78 198.69 182.57 198.15 184.68 196.70 C 192.45 191.84 200.20 186.95 207.95 182.05 C 208.03 189.63 208.08 197.22 207.92 204.80 C 181.25 219.97 154.78 235.49 128.11 250.66 C 101.47 235.30 74.84 219.94 48.09 204.78 C 47.95 197.19 47.99 189.59 48.07 181.99 C 55.78 186.90 63.52 191.77 71.24 196.65 C 73.55 198.31 76.69 198.72 79.20 197.23 C 84.89 194.12 89.47 189.42 94.48 185.38 Z" />
</g>
</svg>
