<?xml version="1.0" encoding="UTF-8" ?>
<!DOCTYPE svg PUBLIC "-//W3C//DTD SVG 1.1//EN" "http://www.w3.org/Graphics/SVG/1.1/DTD/svg11.dtd">
<svg width="256pt" height="256pt" viewBox="0 0 256 256" version="1.1" xmlns="http://www.w3.org/2000/svg">
<g id="#3b5999ff">
<path fill="#3b5999" opacity="1.00" d=" M 28.53 0.00 L 227.46 0.00 C 234.55 1.24 241.53 4.13 246.61 9.38 C 251.84 14.47 254.75 21.44 256.00 28.54 L 256.00 227.45 C 254.76 234.55 251.83 241.52 246.61 246.62 C 241.51 251.84 234.55 254.75 227.46 256.00 L 176.01 256.00 C 176.01 226.67 175.97 197.35 176.02 168.02 C 184.00 167.93 191.98 168.07 199.96 167.97 C 205.36 154.70 210.68 141.39 215.92 128.05 C 202.62 127.91 189.32 128.07 176.02 127.98 C 175.95 117.97 176.04 107.97 175.97 97.96 C 176.05 95.27 175.91 92.07 178.08 90.09 C 180.27 88.31 183.24 88.18 185.93 88.03 C 193.28 87.90 200.63 88.09 207.98 87.98 C 208.02 74.66 208.01 61.34 207.98 48.02 C 197.31 47.99 186.64 47.97 175.98 48.03 C 163.66 48.02 151.39 52.97 142.58 61.59 C 133.38 70.46 127.96 83.19 128.03 95.99 C 127.94 106.65 128.06 117.32 127.98 127.98 C 117.33 128.06 106.67 127.94 96.02 128.02 C 95.98 141.34 95.99 154.66 96.02 167.98 C 106.67 168.06 117.33 167.94 127.98 168.02 C 128.03 197.35 127.98 226.67 128.00 256.00 L 28.55 256.00 C 20.98 254.71 13.60 251.39 8.42 245.59 C 3.74 240.64 1.19 234.10 0.00 227.46 L 0.00 28.54 C 1.24 21.44 4.14 14.46 9.39 9.39 C 14.46 4.14 21.44 1.23 28.53 0.00 Z" />
</g>
<g id="#ffffffff">
<path fill="#ffffff" opacity="1.00" d=" M 142.58 61.59 C 151.39 52.97 163.66 48.02 175.98 48.03 C 186.64 47.97 197.31 47.99 207.98 48.02 C 208.01 61.34 208.02 74.66 207.98 87.98 C 200.63 88.09 193.28 87.90 185.93 88.03 C 183.24 88.18 180.27 88.31 178.08 90.09 C 175.91 92.07 176.05 95.27 175.97 97.96 C 176.04 107.97 175.95 117.97 176.02 127.98 C 189.32 128.07 202.62 127.91 215.92 128.05 C 210.68 141.39 205.36 154.70 199.96 167.97 C 191.98 168.07 184.00 167.93 176.02 168.02 C 175.97 197.35 176.01 226.67 176.01 256.00 L 128.00 256.00 C 127.98 226.67 128.03 197.35 127.98 168.02 C 117.33 167.94 106.67 168.06 96.02 167.98 C 95.99 154.66 95.98 141.34 96.02 128.02 C 106.67 127.94 117.33 128.06 127.98 127.98 C 128.06 117.32 127.94 106.65 128.03 95.99 C 127.96 83.19 133.38 70.46 142.58 61.59 Z" />
</g>
</svg>
