<?xml version="1.0" encoding="UTF-8" ?>
<!DOCTYPE svg PUBLIC "-//W3C//DTD SVG 1.1//EN" "http://www.w3.org/Graphics/SVG/1.1/DTD/svg11.dtd">
<svg width="256pt" height="256pt" viewBox="0 0 256 256" version="1.1" xmlns="http://www.w3.org/2000/svg">
<g id="#ec407aff">
<path fill="#ec407a" opacity="1.00" d=" M 59.11 0.00 L 199.06 0.00 C 205.37 0.44 212.44 2.41 215.80 8.26 C 219.88 15.43 218.78 24.11 217.45 31.88 C 209.57 72.08 201.61 112.27 193.71 152.48 C 192.37 158.64 190.61 165.36 185.55 169.58 C 181.53 172.97 176.10 174.01 170.97 173.94 C 156.97 173.87 142.97 174.06 128.98 173.84 C 125.83 176.76 123.08 180.07 120.30 183.34 C 101.32 205.69 82.35 228.04 63.42 250.43 C 61.03 253.64 57.31 255.54 53.37 256.00 L 50.43 256.00 C 42.69 255.54 37.12 248.15 37.38 240.68 C 37.27 168.45 37.36 96.22 37.34 23.99 C 37.25 18.21 39.12 12.37 42.91 7.96 C 46.88 3.11 53.03 0.72 59.11 0.00 M 65.79 37.03 C 65.85 93.56 65.61 150.09 65.92 206.61 C 67.20 205.30 68.45 203.94 69.57 202.48 C 83.30 185.61 97.10 168.80 110.77 151.89 C 113.33 148.69 116.64 145.48 121.07 145.64 C 134.06 145.37 147.06 145.65 160.05 145.51 C 164.28 145.57 168.03 142.01 168.54 137.87 C 170.31 128.56 172.11 119.24 173.86 109.93 C 175.07 105.23 170.96 100.08 166.10 100.29 C 151.41 100.21 136.72 100.31 122.03 100.25 C 117.33 100.43 112.87 96.82 112.21 92.15 C 111.86 88.39 111.77 84.56 112.31 80.83 C 113.18 76.42 117.49 73.29 121.91 73.37 C 139.25 73.27 156.59 73.37 173.93 73.33 C 178.15 73.47 182.42 70.24 183.04 65.98 C 184.88 56.18 186.75 46.39 188.55 36.58 C 189.58 32.19 185.63 27.71 181.15 28.15 C 145.76 28.12 110.36 28.13 74.97 28.14 C 70.02 27.64 65.50 32.10 65.79 37.03 Z" />
</g>
</svg>
