<?xml version="1.0" encoding="UTF-8" ?>
<!DOCTYPE svg PUBLIC "-//W3C//DTD SVG 1.1//EN" "http://www.w3.org/Graphics/SVG/1.1/DTD/svg11.dtd">
<svg width="256pt" height="256pt" viewBox="0 0 256 256" version="1.1" xmlns="http://www.w3.org/2000/svg">
<g id="#4caf50ff">
<path fill="#4caf50" opacity="1.00" d=" M 0.01 169.19 C 29.29 118.16 58.43 67.06 87.72 16.03 C 101.33 39.32 114.76 62.71 128.25 86.06 C 128.59 87.76 127.17 89.09 126.51 90.53 C 111.34 116.77 96.22 143.04 81.08 169.29 C 67.51 192.80 54.11 216.42 40.31 239.80 C 26.71 216.36 13.42 192.74 0.01 169.19 Z" />
</g>
<g id="#ffc107ff">
<path fill="#ffc107" opacity="1.00" d=" M 87.72 16.03 C 114.56 15.94 141.41 16.05 168.26 15.98 C 197.35 66.74 226.44 117.50 255.42 168.31 C 255.56 168.39 255.85 168.54 256.00 168.62 L 256.00 169.01 C 229.49 169.38 202.96 168.95 176.45 169.23 C 160.21 141.61 144.31 113.79 128.25 86.06 C 114.76 62.71 101.33 39.32 87.72 16.03 Z" />
</g>
<g id="#2196f3ff">
<path fill="#2196f3" opacity="1.00" d=" M 81.08 169.29 C 112.87 169.21 144.66 169.34 176.45 169.23 C 202.96 168.95 229.49 169.38 256.00 169.01 L 256.00 169.54 C 242.35 192.86 229.16 216.50 215.75 239.97 C 181.49 240.04 147.24 239.98 112.98 240.00 C 88.76 239.86 64.51 240.27 40.31 239.80 C 54.11 216.42 67.51 192.80 81.08 169.29 Z" />
</g>
</svg>
