<?xml version="1.0" encoding="UTF-8" ?>
<!DOCTYPE svg PUBLIC "-//W3C//DTD SVG 1.1//EN" "http://www.w3.org/Graphics/SVG/1.1/DTD/svg11.dtd">
<svg width="256pt" height="256pt" viewBox="0 0 256 256" version="1.1" xmlns="http://www.w3.org/2000/svg">
<g id="#ffc107ff">
<path fill="#ffc107" opacity="1.00" d=" M 122.80 0.00 L 133.35 0.00 C 162.94 1.40 191.99 13.06 213.87 33.12 C 239.83 56.37 255.39 90.59 256.00 125.42 L 256.00 238.68 C 255.24 247.71 247.55 255.35 238.51 256.00 L 126.10 256.00 C 118.42 255.66 110.69 255.72 103.09 254.35 C 74.10 249.84 47.51 233.55 29.20 210.80 C 10.69 188.09 0.36 159.00 0.00 129.74 L 0.00 123.82 C 0.77 107.33 4.07 90.87 10.82 75.76 C 23.56 46.58 47.75 22.63 77.08 10.23 C 91.51 3.98 107.14 0.91 122.80 0.00 M 112.57 67.36 C 96.92 71.33 83.00 81.62 74.61 95.42 C 65.83 109.44 63.25 127.08 67.27 143.10 C 70.75 157.34 79.56 170.15 91.43 178.71 C 103.05 187.08 117.59 191.44 131.92 190.38 C 145.95 189.58 159.53 183.72 169.96 174.34 C 175.12 179.45 180.20 184.63 185.37 189.72 C 186.94 191.79 190.64 190.50 190.48 187.88 C 190.53 167.26 190.55 146.62 190.47 126.00 C 190.01 103.50 176.15 82.00 155.98 72.10 C 142.73 65.30 126.98 63.71 112.57 67.36 Z" />
</g>
</svg>
