<?xml version="1.0" encoding="UTF-8" ?>
<!DOCTYPE svg PUBLIC "-//W3C//DTD SVG 1.1//EN" "http://www.w3.org/Graphics/SVG/1.1/DTD/svg11.dtd">
<svg width="256pt" height="256pt" viewBox="0 0 256 256" version="1.1" xmlns="http://www.w3.org/2000/svg">
<g id="#ef4b5eff">
<path fill="#ef4b5e" opacity="1.00" d=" M 66.49 0.00 L 94.81 0.00 C 103.82 11.54 114.07 22.07 123.28 33.47 C 112.33 33.40 101.36 33.24 90.42 33.95 C 89.52 32.42 88.63 30.88 87.55 29.46 C 79.20 19.80 70.62 10.31 62.72 0.26 C 63.98 0.17 65.23 0.08 66.49 0.00 Z" />
</g>
<g id="#e64771ff">
<path fill="#e64771" opacity="1.00" d=" M 94.81 0.00 L 132.78 0.00 C 141.94 11.01 151.58 21.62 160.73 32.64 C 160.00 32.86 158.55 33.30 157.82 33.52 C 146.31 33.26 134.80 33.58 123.28 33.47 C 114.07 22.07 103.82 11.54 94.81 0.00 Z" />
</g>
<g id="#dd4282ff">
<path fill="#dd4282" opacity="1.00" d=" M 132.78 0.00 L 161.57 0.00 C 171.93 12.42 182.57 24.64 193.20 36.82 C 194.16 37.93 194.45 39.41 194.97 40.74 C 183.53 34.91 170.45 33.82 157.82 33.52 C 158.55 33.30 160.00 32.86 160.73 32.64 C 151.58 21.62 141.94 11.01 132.78 0.00 Z" />
</g>
<g id="#d53e92ff">
<path fill="#d53e92" opacity="1.00" d=" M 161.57 0.00 L 191.01 0.00 C 192.93 0.13 194.85 0.24 196.77 0.28 C 200.85 6.98 206.57 12.44 211.62 18.39 C 222.94 31.71 234.44 44.88 245.90 58.07 C 249.08 61.64 251.68 65.83 255.81 68.42 C 255.84 69.81 255.93 71.20 256.00 72.59 L 256.00 110.25 C 255.10 107.89 254.06 105.55 252.48 103.56 C 242.24 91.81 231.96 80.07 221.84 68.21 C 220.23 66.23 218.26 64.60 216.25 63.06 C 211.74 53.61 204.20 45.69 194.97 40.74 C 194.45 39.41 194.16 37.93 193.20 36.82 C 182.57 24.64 171.93 12.42 161.57 0.00 Z" />
</g>
<g id="#f8504cff">
<path fill="#f8504c" opacity="1.00" d=" M 31.36 6.34 C 41.24 2.09 52.09 0.94 62.72 0.26 C 70.62 10.31 79.20 19.80 87.55 29.46 C 88.63 30.88 89.52 32.42 90.42 33.95 C 80.17 34.72 69.76 36.41 60.46 40.99 C 57.13 35.63 52.60 31.19 48.65 26.32 C 42.71 19.81 37.06 13.05 31.36 6.34 Z" />
</g>
<g id="#cd3aa2ff">
<path fill="#cd3aa2" opacity="1.00" d=" M 196.77 0.28 C 204.33 0.44 211.92 1.53 219.08 4.01 C 232.66 8.55 244.10 18.93 249.89 32.03 C 255.23 43.36 256.23 56.07 255.81 68.42 C 251.68 65.83 249.08 61.64 245.90 58.07 C 234.44 44.88 222.94 31.71 211.62 18.39 C 206.57 12.44 200.85 6.98 196.77 0.28 Z" />
</g>
<g id="#ff593fff">
<path fill="#ff593f" opacity="1.00" d=" M 12.38 21.56 C 17.55 15.24 23.83 9.67 31.36 6.34 C 37.06 13.05 42.71 19.81 48.65 26.32 C 52.60 31.19 57.13 35.63 60.46 40.99 C 53.46 44.51 47.39 49.88 43.22 56.53 C 37.52 51.59 33.16 45.37 28.12 39.80 C 22.73 33.85 17.63 27.63 12.38 21.56 Z" />
</g>
<g id="#ff6d42ff">
<path fill="#ff6d42" opacity="1.00" d=" M 1.97 44.50 C 3.56 36.17 7.01 28.16 12.38 21.56 C 17.63 27.63 22.73 33.85 28.12 39.80 C 33.16 45.37 37.52 51.59 43.22 56.53 C 38.83 63.48 36.14 71.40 35.01 79.52 C 30.41 77.06 27.73 72.46 24.28 68.74 C 19.95 64.05 15.99 59.03 11.69 54.31 C 8.58 50.92 6.14 46.77 1.97 44.50 Z" />
</g>
<g id="#ffffffff">
<path fill="#ffffff" opacity="1.00" d=" M 90.42 33.95 C 101.36 33.24 112.33 33.40 123.28 33.47 C 134.80 33.58 146.31 33.26 157.82 33.52 C 170.45 33.82 183.53 34.91 194.97 40.74 C 204.20 45.69 211.74 53.61 216.25 63.06 C 223.43 79.57 222.28 97.98 222.52 115.56 C 222.31 131.65 222.82 147.76 222.13 163.84 C 221.55 175.90 219.66 188.35 213.12 198.75 C 209.23 205.08 203.74 210.42 197.22 214.01 C 188.27 218.98 178.01 220.96 167.92 221.90 C 158.87 222.70 149.79 222.64 140.72 222.61 C 135.37 222.63 130.03 222.50 124.70 222.55 C 115.65 222.62 106.60 222.65 97.56 222.44 C 83.15 221.83 68.00 220.24 55.59 212.23 C 47.86 206.96 42.13 199.21 38.65 190.58 C 34.04 178.43 33.88 165.22 33.48 152.40 C 33.35 143.64 33.51 134.88 33.45 126.13 C 33.53 110.59 32.85 94.96 35.01 79.52 C 36.14 71.40 38.83 63.48 43.22 56.53 C 47.39 49.88 53.46 44.51 60.46 40.99 C 69.76 36.41 80.17 34.72 90.42 33.95 M 85.66 51.54 C 76.54 52.43 66.32 54.40 60.30 61.99 L 60.18 61.88 C 53.05 71.51 52.25 83.97 51.32 95.49 C 50.55 106.19 50.59 116.93 50.53 127.66 C 50.55 140.95 50.43 154.27 51.63 167.51 C 52.43 176.50 53.80 186.14 59.63 193.40 C 65.19 200.08 74.10 202.61 82.41 203.60 L 82.47 203.71 C 94.11 205.14 105.86 205.41 117.58 205.37 C 131.31 205.49 145.05 205.69 158.79 205.49 C 166.93 205.16 175.10 204.32 182.90 201.88 L 182.72 201.73 C 189.90 199.53 196.35 194.50 199.70 187.71 L 199.82 187.84 C 203.84 179.97 204.88 171.03 205.04 162.31 C 205.72 146.71 206.26 131.09 206.14 115.46 C 205.89 101.69 205.55 87.65 201.53 74.36 C 199.11 66.27 193.88 58.63 185.93 55.19 C 174.53 50.24 161.79 50.56 149.61 50.37 C 136.30 50.32 123.00 50.55 109.70 50.53 C 101.68 50.66 93.64 50.67 85.66 51.54 Z" />
<path fill="#ffffff" opacity="1.00" d=" M 168.33 72.23 C 170.68 68.21 175.36 65.56 180.05 66.35 C 185.99 67.06 190.58 73.09 189.64 79.01 C 189.16 83.40 185.83 86.97 181.77 88.45 C 178.50 89.19 174.88 88.91 172.09 86.92 C 167.32 83.85 165.84 77.22 168.33 72.23 Z" />
<path fill="#ffffff" opacity="1.00" d=" M 112.36 82.08 C 119.42 79.64 127.04 78.97 134.44 79.90 C 147.48 81.62 159.66 88.92 167.30 99.64 C 174.31 109.19 177.37 121.35 176.25 133.11 C 175.38 140.33 173.04 147.38 169.20 153.56 C 165.34 159.78 160.07 165.10 153.89 169.01 C 147.70 172.89 140.66 175.42 133.39 176.22 C 119.66 177.75 105.37 173.20 95.23 163.78 C 84.82 154.39 79.00 140.34 79.48 126.35 C 79.81 115.48 84.01 104.82 91.05 96.54 C 96.70 89.94 104.11 84.83 112.36 82.08 M 113.91 99.33 L 113.97 99.41 C 102.07 104.52 95.77 118.12 96.81 130.63 C 97.39 137.95 100.24 145.20 105.38 150.53 C 109.81 155.24 115.94 158.08 122.27 159.10 C 134.15 160.99 147.98 156.74 154.11 145.83 C 162.87 132.55 160.22 112.48 147.42 102.64 C 137.97 95.51 124.64 94.85 113.91 99.33 Z" />
</g>
<g id="#ff8446ff">
<path fill="#ff8446" opacity="1.00" d=" M 1.97 44.50 C 6.14 46.77 8.58 50.92 11.69 54.31 C 15.99 59.03 19.95 64.05 24.28 68.74 C 27.73 72.46 30.41 77.06 35.01 79.52 C 32.85 94.96 33.53 110.59 33.45 126.13 C 21.72 114.10 11.65 100.55 0.00 88.46 L 0.00 61.33 C 0.39 55.69 0.86 50.05 1.97 44.50 Z" />
</g>
<g id="#f54f51ff">
<path fill="#f54f51" opacity="1.00" d=" M 85.66 51.54 C 93.64 50.67 101.68 50.66 109.70 50.53 C 117.70 60.53 126.91 69.54 134.44 79.90 C 127.04 78.97 119.42 79.64 112.36 82.08 C 103.00 72.32 94.68 61.62 85.66 51.54 Z" />
</g>
<g id="#ed4a62ff">
<path fill="#ed4a62" opacity="1.00" d=" M 109.70 50.53 C 123.00 50.55 136.30 50.32 149.61 50.37 C 155.69 57.79 162.13 64.91 168.33 72.23 C 165.84 77.22 167.32 83.85 172.09 86.92 C 174.88 88.91 178.50 89.19 181.77 88.45 C 190.65 96.74 197.54 106.89 206.14 115.46 C 206.26 131.09 205.72 146.71 205.04 162.31 C 195.25 152.50 186.87 141.37 177.39 131.25 C 177.11 131.71 176.54 132.65 176.25 133.11 C 177.37 121.35 174.31 109.19 167.30 99.64 C 159.66 88.92 147.48 81.62 134.44 79.90 C 126.91 69.54 117.70 60.53 109.70 50.53 Z" />
</g>
<g id="#e44674ff">
<path fill="#e44674" opacity="1.00" d=" M 149.61 50.37 C 161.79 50.56 174.53 50.24 185.93 55.19 C 193.88 58.63 199.11 66.27 201.53 74.36 C 205.55 87.65 205.89 101.69 206.14 115.46 C 197.54 106.89 190.65 96.74 181.77 88.45 C 185.83 86.97 189.16 83.40 189.64 79.01 C 190.58 73.09 185.99 67.06 180.05 66.35 C 175.36 65.56 170.68 68.21 168.33 72.23 C 162.13 64.91 155.69 57.79 149.61 50.37 Z" />
</g>
<g id="#fd5341ff">
<path fill="#fd5341" opacity="1.00" d=" M 60.30 61.99 C 66.32 54.40 76.54 52.43 85.66 51.54 C 94.68 61.62 103.00 72.32 112.36 82.08 C 104.11 84.83 96.70 89.94 91.05 96.54 C 85.68 91.35 81.36 85.21 76.24 79.78 C 70.81 73.95 66.27 67.30 60.30 61.99 Z" />
</g>
<g id="#ff6741ff">
<path fill="#ff6741" opacity="1.00" d=" M 60.18 61.88 L 60.30 61.99 C 66.27 67.30 70.81 73.95 76.24 79.78 C 81.36 85.21 85.68 91.35 91.05 96.54 C 84.01 104.82 79.81 115.48 79.48 126.35 C 77.23 124.65 75.19 122.69 73.47 120.45 C 68.37 113.96 62.57 108.06 57.36 101.66 C 55.55 99.41 53.48 97.39 51.32 95.49 C 52.25 83.97 53.05 71.51 60.18 61.88 Z" />
</g>
<g id="#de4280ff">
<path fill="#de4280" opacity="1.00" d=" M 216.25 63.06 C 218.26 64.60 220.23 66.23 221.84 68.21 C 231.96 80.07 242.24 91.81 252.48 103.56 C 254.06 105.55 255.10 107.89 256.00 110.25 L 256.00 201.09 L 255.65 199.62 C 255.60 199.30 255.49 198.68 255.43 198.36 C 255.65 184.24 255.52 170.11 255.20 156.00 C 255.27 153.28 253.83 150.92 252.07 148.98 C 245.80 141.90 239.77 134.61 233.47 127.56 C 229.80 123.58 226.80 118.96 222.52 115.56 C 222.28 97.98 223.43 79.57 216.25 63.06 Z" />
</g>
<g id="#ff994aff">
<path fill="#ff994a" opacity="1.00" d=" M 0.00 88.46 C 11.65 100.55 21.72 114.10 33.45 126.13 C 33.51 134.88 33.35 143.64 33.48 152.40 C 29.61 149.32 26.71 145.29 23.47 141.60 C 15.71 132.50 7.86 123.48 0.00 114.47 L 0.00 88.46 Z" />
</g>
<g id="#ff7d45ff">
<path fill="#ff7d45" opacity="1.00" d=" M 51.32 95.49 C 53.48 97.39 55.55 99.41 57.36 101.66 C 62.57 108.06 68.37 113.96 73.47 120.45 C 75.19 122.69 77.23 124.65 79.48 126.35 C 79.00 140.34 84.82 154.39 95.23 163.78 C 105.37 173.20 119.66 177.75 133.39 176.22 C 134.19 177.83 134.97 179.47 136.18 180.82 C 140.58 185.75 144.94 190.72 149.26 195.73 C 152.26 199.14 154.78 203.14 158.79 205.49 C 145.05 205.69 131.31 205.49 117.58 205.37 C 116.55 203.80 115.53 202.23 114.32 200.79 C 101.67 186.38 89.19 171.82 76.67 157.29 C 67.88 147.48 59.64 137.18 50.53 127.66 C 50.59 116.93 50.55 106.19 51.32 95.49 Z" />
</g>
<g id="#f9514aff">
<path fill="#f9514a" opacity="1.00" d=" M 113.91 99.33 C 124.64 94.85 137.97 95.51 147.42 102.64 C 160.22 112.48 162.87 132.55 154.11 145.83 C 144.67 135.58 135.86 124.77 126.58 114.38 C 122.48 109.29 117.77 104.72 113.97 99.41 L 113.91 99.33 Z" />
</g>
<g id="#ff5a40ff">
<path fill="#ff5a40" opacity="1.00" d=" M 96.81 130.63 C 95.77 118.12 102.07 104.52 113.97 99.41 C 117.77 104.72 122.48 109.29 126.58 114.38 C 135.86 124.77 144.67 135.58 154.11 145.83 C 147.98 156.74 134.15 160.99 122.27 159.10 C 117.67 153.89 113.27 148.51 108.68 143.29 C 104.81 138.98 101.51 134.11 96.81 130.63 Z" />
</g>
<g id="#ffaa4cff">
<path fill="#ffaa4c" opacity="1.00" d=" M 0.00 114.47 C 7.86 123.48 15.71 132.50 23.47 141.60 C 26.71 145.29 29.61 149.32 33.48 152.40 C 33.88 165.22 34.04 178.43 38.65 190.58 C 37.36 190.30 36.11 189.80 35.35 188.67 C 23.65 174.91 11.59 161.46 0.00 147.62 L 0.00 114.47 Z" />
<path fill="#ffaa4c" opacity="1.00" d=" M 60.52 219.45 C 58.66 217.22 56.12 215.26 55.59 212.23 C 68.00 220.24 83.15 221.83 97.56 222.44 C 97.78 223.44 97.96 224.50 98.78 225.22 C 106.52 233.51 113.51 242.48 121.14 250.87 C 122.59 252.51 123.87 254.29 125.24 256.00 L 92.17 256.00 C 81.64 243.80 71.04 231.67 60.52 219.45 Z" />
</g>
<g id="#e8486bff">
<path fill="#e8486b" opacity="1.00" d=" M 222.52 115.56 C 226.80 118.96 229.80 123.58 233.47 127.56 C 239.77 134.61 245.80 141.90 252.07 148.98 C 253.83 150.92 255.27 153.28 255.20 156.00 C 255.52 170.11 255.65 184.24 255.43 198.36 C 250.73 194.78 247.50 189.75 243.53 185.44 C 236.81 177.90 230.32 170.16 223.76 162.48 C 223.21 162.93 222.67 163.38 222.13 163.84 C 222.82 147.76 222.31 131.65 222.52 115.56 Z" />
</g>
<g id="#ff9048ff">
<path fill="#ff9048" opacity="1.00" d=" M 50.53 127.66 C 59.64 137.18 67.88 147.48 76.67 157.29 C 89.19 171.82 101.67 186.38 114.32 200.79 C 115.53 202.23 116.55 203.80 117.58 205.37 C 105.86 205.41 94.11 205.14 82.47 203.71 L 82.41 203.60 C 79.97 198.95 76.11 195.33 72.77 191.35 C 65.64 183.48 59.17 175.01 51.63 167.51 C 50.43 154.27 50.55 140.95 50.53 127.66 Z" />
</g>
<g id="#ff6c42ff">
<path fill="#ff6c42" opacity="1.00" d=" M 96.81 130.63 C 101.51 134.11 104.81 138.98 108.68 143.29 C 113.27 148.51 117.67 153.89 122.27 159.10 C 115.94 158.08 109.81 155.24 105.38 150.53 C 100.24 145.20 97.39 137.95 96.81 130.63 Z" />
</g>
<g id="#f64f4fff">
<path fill="#f64f4f" opacity="1.00" d=" M 177.39 131.25 C 186.87 141.37 195.25 152.50 205.04 162.31 C 204.88 171.03 203.84 179.97 199.82 187.84 L 199.70 187.71 C 190.97 177.60 181.99 167.70 173.57 157.34 C 172.34 155.83 170.76 154.69 169.20 153.56 C 173.04 147.38 175.38 140.33 176.25 133.11 C 176.54 132.65 177.11 131.71 177.39 131.25 Z" />
</g>
<g id="#ffbd50ff">
<path fill="#ffbd50" opacity="1.00" d=" M 0.00 147.62 C 11.59 161.46 23.65 174.91 35.35 188.67 C 36.11 189.80 37.36 190.30 38.65 190.58 C 42.13 199.21 47.86 206.96 55.59 212.23 C 56.12 215.26 58.66 217.22 60.52 219.45 C 71.04 231.67 81.64 243.80 92.17 256.00 L 89.35 256.00 C 80.28 255.72 71.20 255.65 62.14 255.17 C 58.06 249.24 52.76 244.33 48.31 238.70 C 32.28 220.01 16.03 201.49 0.00 182.80 L 0.00 147.62 Z" />
</g>
<g id="#fe5341ff">
<path fill="#fe5341" opacity="1.00" d=" M 169.20 153.56 C 170.76 154.69 172.34 155.83 173.57 157.34 C 181.99 167.70 190.97 177.60 199.70 187.71 C 196.35 194.50 189.90 199.53 182.72 201.73 C 176.96 197.32 173.04 191.12 168.15 185.86 C 163.51 180.14 158.25 174.95 153.89 169.01 C 160.07 165.10 165.34 159.78 169.20 153.56 Z" />
</g>
<g id="#f34e56ff">
<path fill="#f34e56" opacity="1.00" d=" M 222.13 163.84 C 222.67 163.38 223.21 162.93 223.76 162.48 C 230.32 170.16 236.81 177.90 243.53 185.44 C 247.50 189.75 250.73 194.78 255.43 198.36 C 255.49 198.68 255.60 199.30 255.65 199.62 C 255.08 211.70 251.39 223.83 244.20 233.66 C 233.59 222.26 224.17 209.74 213.12 198.75 C 219.66 188.35 221.55 175.90 222.13 163.84 Z" />
</g>
<g id="#ffa04bff">
<path fill="#ffa04b" opacity="1.00" d=" M 51.63 167.51 C 59.17 175.01 65.64 183.48 72.77 191.35 C 76.11 195.33 79.97 198.95 82.41 203.60 C 74.10 202.61 65.19 200.08 59.63 193.40 C 53.80 186.14 52.43 176.50 51.63 167.51 Z" />
</g>
<g id="#ff6341ff">
<path fill="#ff6341" opacity="1.00" d=" M 133.39 176.22 C 140.66 175.42 147.70 172.89 153.89 169.01 C 158.25 174.95 163.51 180.14 168.15 185.86 C 173.04 191.12 176.96 197.32 182.72 201.73 L 182.90 201.88 C 175.10 204.32 166.93 205.16 158.79 205.49 C 154.78 203.14 152.26 199.14 149.26 195.73 C 144.94 190.72 140.58 185.75 136.18 180.82 C 134.97 179.47 134.19 177.83 133.39 176.22 Z" />
</g>
<g id="#ffd053ff">
<path fill="#ffd053" opacity="1.00" d=" M 0.00 182.80 C 16.03 201.49 32.28 220.01 48.31 238.70 C 52.76 244.33 58.06 249.24 62.14 255.17 C 53.26 254.53 44.08 254.77 35.64 251.53 C 25.78 248.11 16.81 241.72 11.10 232.90 C 3.75 221.77 1.30 208.29 0.00 195.25 L 0.00 182.80 Z" />
</g>
<g id="#fd5343ff">
<path fill="#fd5343" opacity="1.00" d=" M 213.12 198.75 C 224.17 209.74 233.59 222.26 244.20 233.66 C 239.36 240.23 232.93 245.61 225.62 249.24 C 217.18 238.47 207.74 228.51 198.94 218.04 C 198.02 216.86 197.68 215.39 197.22 214.01 C 203.74 210.42 209.23 205.08 213.12 198.75 Z" />
</g>
<g id="#ff6441ff">
<path fill="#ff6441" opacity="1.00" d=" M 167.92 221.90 C 178.01 220.96 188.27 218.98 197.22 214.01 C 197.68 215.39 198.02 216.86 198.94 218.04 C 207.74 228.51 217.18 238.47 225.62 249.24 C 216.61 254.12 206.24 254.58 196.25 255.05 C 190.11 248.39 184.47 241.31 178.40 234.60 C 174.79 230.47 171.17 226.32 167.92 221.90 Z" />
</g>
<g id="#ff7844ff">
<path fill="#ff7844" opacity="1.00" d=" M 140.72 222.61 C 149.79 222.64 158.87 222.70 167.92 221.90 C 171.17 226.32 174.79 230.47 178.40 234.60 C 184.47 241.31 190.11 248.39 196.25 255.05 C 187.02 255.55 177.78 255.72 168.54 255.94 C 167.11 253.29 165.40 250.79 163.34 248.58 C 155.66 240.04 148.30 231.23 140.72 222.61 Z" />
</g>
<g id="#ff9549ff">
<path fill="#ff9549" opacity="1.00" d=" M 98.78 225.22 C 97.96 224.50 97.78 223.44 97.56 222.44 C 106.60 222.65 115.65 222.62 124.70 222.55 C 127.60 227.41 131.75 231.31 135.29 235.69 C 140.93 242.55 147.20 248.89 152.56 256.00 L 125.24 256.00 C 123.87 254.29 122.59 252.51 121.14 250.87 C 113.51 242.48 106.52 233.51 98.78 225.22 Z" />
</g>
<g id="#ff8747ff">
<path fill="#ff8747" opacity="1.00" d=" M 124.70 222.55 C 130.03 222.50 135.37 222.63 140.72 222.61 C 148.30 231.23 155.66 240.04 163.34 248.58 C 165.40 250.79 167.11 253.29 168.54 255.94 C 168.08 255.96 167.15 255.99 166.69 256.00 L 152.56 256.00 C 147.20 248.89 140.93 242.55 135.29 235.69 C 131.75 231.31 127.60 227.41 124.70 222.55 Z" />
</g>
</svg>
