<?xml version="1.0" encoding="UTF-8" ?>
<!DOCTYPE svg PUBLIC "-//W3C//DTD SVG 1.1//EN" "http://www.w3.org/Graphics/SVG/1.1/DTD/svg11.dtd">
<svg width="256pt" height="256pt" viewBox="0 0 256 256" version="1.1" xmlns="http://www.w3.org/2000/svg">
<g id="#4caf50ff">
<path fill="#4caf50" opacity="1.00" d=" M 55.66 23.72 C 86.97 6.13 124.78 1.35 159.80 8.61 C 188.30 14.55 215.58 29.06 234.26 51.70 C 247.44 67.52 255.63 87.66 256.00 108.34 L 256.00 113.36 C 255.23 134.42 245.80 154.32 232.17 170.11 C 219.52 185.16 204.38 197.87 188.79 209.76 C 174.82 220.34 160.31 230.20 145.38 239.37 C 138.93 243.03 132.70 247.23 125.68 249.74 C 123.17 250.48 119.87 251.49 117.71 249.41 C 116.00 247.31 116.71 244.41 116.96 241.96 C 117.88 234.73 120.20 227.35 118.56 220.06 C 116.68 215.08 110.67 213.86 106.03 212.88 C 75.58 208.58 45.77 195.04 24.94 172.02 C 10.32 156.07 0.97 135.18 0.00 113.46 L 0.00 108.35 C 0.28 96.21 3.07 84.14 8.19 73.13 C 17.95 51.96 35.47 35.02 55.66 23.72 M 174.43 86.93 C 174.42 103.63 174.41 120.33 174.43 137.04 C 174.18 140.70 177.29 144.22 181.02 144.15 C 189.35 144.27 197.68 144.19 206.01 144.18 C 209.19 144.40 212.33 142.21 213.06 139.09 C 214.21 135.21 211.06 130.79 207.00 130.73 C 200.62 130.56 194.23 130.72 187.85 130.67 C 187.83 126.64 187.84 122.63 187.85 118.61 C 194.19 118.54 200.54 118.70 206.89 118.55 C 210.29 118.48 213.25 115.42 213.26 112.02 C 213.46 108.56 210.53 105.22 207.04 105.12 C 200.64 104.97 194.24 105.13 187.85 105.06 C 187.84 101.04 187.84 97.02 187.84 93.01 C 194.26 92.93 200.68 93.13 207.09 92.92 C 210.97 92.77 214.00 88.71 213.15 84.94 C 212.59 81.67 209.40 79.23 206.11 79.47 C 197.72 79.48 189.34 79.42 180.96 79.50 C 177.12 79.44 174.04 83.18 174.43 86.93 M 45.73 87.02 C 45.73 103.65 45.71 120.29 45.73 136.92 C 45.38 140.93 49.04 144.53 53.03 144.18 C 61.36 144.19 69.70 144.27 78.03 144.14 C 81.74 144.19 84.92 140.65 84.59 136.97 C 84.42 133.59 81.39 130.62 77.97 130.70 C 71.71 130.60 65.44 130.71 59.18 130.67 C 59.12 115.76 59.25 100.85 59.12 85.95 C 59.15 81.93 54.92 78.62 51.02 79.63 C 47.68 80.28 45.41 83.68 45.73 87.02 M 94.32 80.27 C 91.91 81.52 90.60 84.27 90.79 86.94 C 90.79 103.61 90.77 120.29 90.80 136.97 C 90.52 140.52 93.38 143.92 96.95 144.15 C 100.90 144.55 104.51 140.92 104.19 136.99 C 104.19 119.99 104.27 102.99 104.15 86.00 C 104.26 81.22 98.44 77.78 94.32 80.27 M 113.84 85.98 C 113.75 102.97 113.81 119.97 113.81 136.97 C 113.47 140.91 117.10 144.60 121.07 144.14 C 124.61 143.90 127.45 140.52 127.20 137.00 C 127.25 126.63 127.19 116.25 127.22 105.88 C 135.80 117.59 144.36 129.32 152.94 141.02 C 154.61 143.63 158.08 144.86 161.00 143.76 C 163.77 142.79 165.63 139.90 165.43 136.97 C 165.46 120.31 165.44 103.65 165.44 86.99 C 165.75 83.60 163.37 80.16 159.95 79.59 C 156.11 78.72 152.03 81.98 152.06 85.92 C 151.91 96.59 152.05 107.26 152.00 117.94 C 143.54 106.43 135.08 94.92 126.63 83.40 C 125.46 81.78 124.02 80.18 122.00 79.70 C 118.09 78.54 113.78 81.94 113.84 85.98 Z" />
</g>
</svg>
