<?xml version="1.0" encoding="UTF-8" ?>
<!DOCTYPE svg PUBLIC "-//W3C//DTD SVG 1.1//EN" "http://www.w3.org/Graphics/SVG/1.1/DTD/svg11.dtd">
<svg width="512pt" height="512pt" viewBox="0 0 512 512" version="1.1" xmlns="http://www.w3.org/2000/svg">
<g id="#0077b5ff">
<path fill="#0077b5" opacity="1.00" d=" M 57.91 0.00 L 64.33 0.00 C 78.08 0.74 91.57 6.08 101.89 15.22 C 114.45 26.13 122.29 42.32 122.89 58.97 C 123.65 75.23 117.51 91.58 106.50 103.53 C 96.13 114.96 81.33 122.29 65.92 123.36 C 53.00 124.37 39.83 121.01 28.95 113.98 C 12.03 103.41 0.98 84.32 0.00 64.42 L 0.00 58.12 C 0.91 44.10 6.57 30.40 16.12 20.07 C 26.77 8.30 42.10 1.07 57.91 0.00 Z" />
<path fill="#0077b5" opacity="1.00" d=" M 357.17 164.49 C 374.48 160.63 392.45 161.11 409.98 163.07 C 432.48 165.72 455.14 173.35 472.18 188.77 C 488.65 203.45 498.54 224.11 503.96 245.20 C 510.23 269.42 511.63 294.56 512.00 319.47 L 512.00 512.00 L 405.95 512.00 C 405.95 457.65 405.95 403.31 405.95 348.96 C 405.87 331.90 406.07 314.64 402.45 297.87 C 399.78 285.43 394.33 272.85 384.01 264.90 C 373.61 256.74 359.85 254.59 346.97 255.15 C 332.83 255.57 318.10 259.63 307.73 269.70 C 296.41 280.56 291.41 296.20 289.16 311.34 C 286.72 327.11 287.16 343.10 287.12 359.00 C 287.12 410.00 287.12 461.00 287.12 512.00 L 181.10 512.00 C 181.10 398.05 181.10 284.09 181.10 170.14 C 215.04 170.13 248.98 170.14 282.92 170.13 C 283.06 185.91 282.63 201.70 283.15 217.47 C 286.11 214.84 287.52 211.03 289.85 207.90 C 305.53 185.38 330.51 170.21 357.17 164.49 Z" />
<path fill="#0077b5" opacity="1.00" d=" M 8.45 170.18 C 43.83 170.17 79.22 170.17 114.60 170.18 C 114.60 284.12 114.60 398.06 114.60 512.00 L 8.45 512.00 C 8.45 398.06 8.45 284.12 8.45 170.18 Z" />
</g>
</svg>
