<?xml version="1.0" encoding="UTF-8" ?>
<!DOCTYPE svg PUBLIC "-//W3C//DTD SVG 1.1//EN" "http://www.w3.org/Graphics/SVG/1.1/DTD/svg11.dtd">
<svg width="256pt" height="256pt" viewBox="0 0 256 256" version="1.1" xmlns="http://www.w3.org/2000/svg">
<g id="#03a9f4ff">
<path fill="#03a9f4" opacity="1.00" d=" M 66.89 0.00 L 73.57 0.00 C 84.81 0.49 96.01 3.51 105.77 9.18 C 107.05 9.80 108.31 10.97 109.85 10.52 C 130.68 7.19 152.39 9.13 172.17 16.54 C 203.26 27.95 229.22 52.58 242.11 83.10 C 251.83 105.65 253.93 131.23 248.64 155.17 C 252.79 163.48 255.20 172.58 256.00 181.83 L 256.00 189.99 C 254.76 208.37 246.17 226.13 232.31 238.29 C 220.08 249.28 203.88 255.45 187.49 256.00 L 182.65 256.00 C 171.89 255.58 161.37 252.61 151.74 247.86 C 140.61 249.41 129.31 250.38 118.07 249.24 C 86.11 246.54 55.63 230.46 35.14 205.82 C 18.32 185.81 8.21 160.20 7.32 134.04 C 6.92 124.34 7.88 114.64 9.72 105.12 C 3.71 95.00 0.37 83.37 0.00 71.61 L 0.00 68.41 C 0.27 50.57 7.74 32.96 20.61 20.57 C 32.93 8.45 49.70 1.25 66.89 0.00 M 111.47 45.73 C 95.03 48.18 77.45 54.31 67.56 68.50 C 59.06 80.85 58.40 98.09 65.96 111.04 C 71.26 119.70 79.90 125.79 89.03 129.89 C 104.89 136.95 122.28 139.07 138.94 143.48 C 146.15 145.59 154.08 147.95 158.84 154.19 C 163.51 160.56 162.31 170.21 156.49 175.48 C 149.69 181.84 140.11 184.12 131.06 184.73 C 120.88 185.14 109.48 183.69 102.06 175.99 C 94.85 168.96 93.43 157.96 85.87 151.25 C 77.52 144.06 62.75 147.56 58.74 157.91 C 55.09 167.23 59.57 177.30 64.93 184.97 C 74.03 198.55 89.34 206.77 105.13 209.81 C 122.43 213.10 140.53 212.87 157.60 208.43 C 171.68 204.66 185.67 197.24 193.65 184.62 C 201.18 172.73 202.45 157.31 197.82 144.12 C 193.96 133.30 184.74 125.33 174.62 120.45 C 157.43 112.08 138.25 109.68 119.97 104.78 C 114.16 103.08 108.14 101.44 103.20 97.81 C 100.07 95.52 97.34 92.09 97.35 88.03 C 97.40 82.90 101.16 78.72 105.34 76.21 C 113.00 71.63 122.27 70.75 131.01 71.34 C 138.63 71.86 146.60 74.39 151.71 80.37 C 157.33 86.24 159.23 95.14 166.27 99.71 C 174.03 104.06 185.45 102.09 190.24 94.22 C 194.06 88.04 193.28 80.05 190.21 73.73 C 185.20 63.51 175.82 55.90 165.44 51.53 C 148.48 44.54 129.53 43.26 111.47 45.73 Z" />
</g>
</svg>
