<?xml version="1.0" encoding="UTF-8" ?>
<!DOCTYPE svg PUBLIC "-//W3C//DTD SVG 1.1//EN" "http://www.w3.org/Graphics/SVG/1.1/DTD/svg11.dtd">
<svg width="256pt" height="256pt" viewBox="0 0 256 256" version="1.1" xmlns="http://www.w3.org/2000/svg">
<g id="#039be5ff">
<path fill="#039be5" opacity="1.00" d=" M 126.61 0.00 L 130.71 0.00 C 161.93 0.60 192.73 13.07 215.43 34.53 C 240.57 57.83 255.52 91.55 256.00 125.82 L 256.00 129.93 C 255.58 160.70 243.65 191.12 222.90 213.86 C 199.58 239.91 165.21 255.51 130.25 256.00 L 125.40 256.00 C 95.82 255.39 66.57 244.24 44.27 224.76 C 16.98 201.42 0.47 166.15 0.00 130.24 L 0.00 125.97 C 0.39 89.49 17.38 53.69 45.35 30.29 C 67.82 11.14 97.09 0.27 126.61 0.00 M 181.02 78.01 C 140.15 93.83 99.24 109.55 58.36 125.34 C 55.95 126.39 53.16 127.67 52.16 130.29 C 51.62 132.98 54.58 134.43 56.65 135.19 C 67.31 138.65 78.06 141.79 88.71 145.24 C 113.18 129.87 137.62 114.48 162.07 99.09 C 163.57 97.97 165.41 98.00 167.19 98.11 C 166.27 100.68 163.92 102.22 162.01 104.01 C 143.56 120.66 125.10 137.32 106.68 154.00 C 105.93 164.91 105.09 175.82 104.44 186.74 C 108.66 186.33 111.32 182.92 114.18 180.22 C 118.23 176.32 122.25 172.39 126.33 168.52 C 136.51 176.03 146.69 183.54 156.87 191.07 C 159.29 192.83 162.44 194.43 165.47 193.32 C 168.38 192.09 169.34 188.77 170.01 185.96 C 176.90 153.47 183.80 120.98 190.70 88.49 C 191.29 85.26 191.82 81.31 189.32 78.72 C 187.14 76.49 183.66 76.94 181.02 78.01 Z" />
</g>
<g id="#ffffffff">
<path fill="#ffffff" opacity="1.00" d=" M 181.02 78.01 C 183.66 76.94 187.14 76.49 189.32 78.72 C 191.82 81.31 191.29 85.26 190.70 88.49 C 183.80 120.98 176.90 153.47 170.01 185.96 C 169.34 188.77 168.38 192.09 165.47 193.32 C 162.44 194.43 159.29 192.83 156.87 191.07 C 146.69 183.54 136.51 176.03 126.33 168.52 C 122.25 172.39 118.23 176.32 114.18 180.22 C 111.32 182.92 108.66 186.33 104.44 186.74 C 105.09 175.82 105.93 164.91 106.68 154.00 C 125.10 137.32 143.56 120.66 162.01 104.01 C 163.92 102.22 166.27 100.68 167.19 98.11 C 165.41 98.00 163.57 97.97 162.07 99.09 C 137.62 114.48 113.18 129.87 88.71 145.24 C 78.06 141.79 67.31 138.65 56.65 135.19 C 54.58 134.43 51.62 132.98 52.16 130.29 C 53.16 127.67 55.95 126.39 58.36 125.34 C 99.24 109.55 140.15 93.83 181.02 78.01 Z" />
</g>
</svg>
