<?xml version="1.0" encoding="UTF-8" ?>
<!DOCTYPE svg PUBLIC "-//W3C//DTD SVG 1.1//EN" "http://www.w3.org/Graphics/SVG/1.1/DTD/svg11.dtd">
<svg width="256pt" height="256pt" viewBox="0 0 256 256" version="1.1" xmlns="http://www.w3.org/2000/svg">
<g id="#55aceeff">
<path fill="#55acee" opacity="1.00" d=" M 135.19 45.16 C 145.39 31.26 162.79 23.03 180.02 24.12 C 193.48 24.72 206.38 30.94 215.66 40.64 C 227.31 38.18 238.60 34.00 248.86 27.93 C 244.98 39.93 236.66 50.30 225.90 56.85 C 235.10 55.63 244.21 53.40 252.80 49.86 C 253.85 49.51 254.91 49.22 256.00 48.98 L 256.00 49.04 C 248.52 59.14 240.04 68.63 229.70 75.90 C 231.27 110.13 220.29 144.57 200.24 172.25 C 182.16 197.37 155.84 216.58 126.11 225.40 C 94.55 234.80 59.86 234.32 28.89 222.84 C 18.76 219.16 9.15 214.18 0.00 208.50 L 0.00 208.50 C 25.07 211.33 51.17 205.25 71.99 190.88 C 73.67 189.55 75.93 188.69 76.97 186.71 C 55.26 186.30 35.23 170.85 28.59 150.31 C 36.42 151.63 44.47 151.24 52.21 149.53 C 43.08 147.20 34.29 143.08 27.37 136.59 C 16.39 126.69 10.11 112.02 10.20 97.27 C 17.50 101.16 25.64 103.47 33.93 103.74 C 24.21 97.08 16.65 87.25 13.12 75.99 C 8.65 62.08 10.25 46.18 17.91 33.68 C 44.14 66.03 84.31 86.62 125.98 88.44 C 122.83 73.57 125.97 57.34 135.19 45.16 Z" />
</g>
</svg>
