<?xml version="1.0" encoding="UTF-8" ?>
<!DOCTYPE svg PUBLIC "-//W3C//DTD SVG 1.1//EN" "http://www.w3.org/Graphics/SVG/1.1/DTD/svg11.dtd">
<svg width="256pt" height="256pt" viewBox="0 0 256 256" version="1.1" xmlns="http://www.w3.org/2000/svg">
<g id="#8e24aaff">
<path fill="#8e24aa" opacity="1.00" d=" M 122.29 0.00 L 141.21 0.00 C 160.04 1.08 178.96 3.72 196.78 10.11 C 206.90 13.77 216.85 18.73 224.48 26.49 C 234.47 36.36 240.28 49.63 243.90 63.02 C 249.38 83.87 250.02 105.67 248.84 127.09 C 247.74 142.63 246.71 158.50 241.11 173.21 C 236.12 186.78 227.26 199.14 215.14 207.19 C 209.10 211.31 202.40 214.38 195.43 216.55 C 168.81 224.98 140.41 226.98 112.67 224.74 C 105.81 232.52 99.44 240.75 92.37 248.35 C 89.47 251.38 86.48 254.60 82.40 256.00 L 79.43 256.00 C 74.07 255.32 71.67 249.66 71.49 244.86 C 71.30 235.63 71.52 226.41 71.46 217.18 C 55.35 212.59 40.52 202.76 31.31 188.62 C 18.51 169.36 15.34 145.60 14.79 122.97 C 14.69 102.90 14.83 82.53 19.96 62.99 C 23.47 49.51 29.64 36.42 39.49 26.41 C 47.14 19.07 56.72 14.10 66.52 10.29 C 84.32 3.59 103.37 0.84 122.29 0.00 M 93.62 21.43 C 81.66 23.94 69.75 27.81 59.55 34.70 C 49.11 41.56 42.49 52.88 38.57 64.49 C 32.50 82.67 32.56 102.08 32.39 121.02 C 32.55 139.91 34.54 159.82 44.82 176.17 C 52.30 188.29 64.82 196.60 78.38 200.45 C 78.28 214.31 78.26 228.16 78.17 242.01 C 78.25 243.85 78.00 246.05 79.46 247.46 C 81.66 248.47 83.38 246.16 84.73 244.78 C 95.65 232.41 106.01 219.56 116.32 206.68 C 139.59 207.89 163.18 206.03 185.61 199.49 C 196.37 196.88 206.53 191.25 213.86 182.87 C 223.30 172.17 227.81 158.04 229.54 144.10 C 231.51 125.14 232.34 105.94 230.09 86.97 C 228.08 70.72 224.22 53.61 213.09 41.01 C 206.62 33.69 197.53 29.46 188.44 26.37 C 174.45 21.70 159.75 19.40 145.06 18.37 C 127.89 17.28 110.51 17.98 93.62 21.43 Z" />
<path fill="#8e24aa" opacity="1.00" d=" M 128.43 46.52 C 129.63 45.40 131.48 46.00 132.97 45.90 C 149.53 46.48 166.08 53.31 177.28 65.72 C 189.71 79.21 195.11 97.96 194.93 116.03 C 194.76 118.24 191.83 119.45 190.10 118.11 C 188.34 117.01 188.89 114.68 188.67 112.95 C 188.26 96.15 182.47 78.75 169.81 67.22 C 159.43 57.43 145.13 52.51 131.00 52.31 C 127.84 52.93 125.94 48.44 128.43 46.52 Z" />
<path fill="#8e24aa" opacity="1.00" d=" M 85.48 53.67 C 88.46 52.65 92.00 53.45 94.11 55.83 C 100.51 63.31 106.37 71.31 110.92 80.05 C 112.81 83.76 112.61 88.66 109.82 91.87 C 107.53 94.30 104.62 96.06 102.30 98.46 C 100.67 100.54 100.06 103.53 100.99 106.04 C 106.42 122.61 118.22 137.71 134.60 144.48 C 138.14 145.80 142.17 147.89 145.86 145.86 C 150.36 143.17 151.68 136.76 157.01 135.18 C 160.67 133.91 164.51 135.37 167.54 137.47 C 175.04 142.10 182.18 147.38 188.52 153.52 C 191.83 156.78 191.21 162.15 188.83 165.76 C 184.75 172.40 179.38 179.19 171.58 181.44 C 166.93 182.84 162.50 180.37 158.27 178.80 C 144.81 172.90 132.05 165.44 120.17 156.81 C 104.80 145.51 92.20 130.67 82.81 114.11 C 76.63 103.49 72.14 92.02 67.23 80.79 C 65.02 74.85 67.87 68.40 71.86 63.94 C 75.66 59.71 80.14 55.78 85.48 53.67 Z" />
<path fill="#8e24aa" opacity="1.00" d=" M 134.17 63.14 C 135.58 62.13 137.45 62.95 139.03 62.95 C 150.11 64.25 161.04 69.16 168.27 77.83 C 175.56 86.38 178.81 97.84 178.47 108.95 C 178.69 111.43 175.41 112.88 173.55 111.40 C 171.82 110.17 172.39 107.86 172.21 106.06 C 172.06 95.62 167.86 84.98 159.72 78.22 C 153.12 72.53 144.47 69.86 135.91 69.10 C 132.82 69.29 131.62 64.67 134.17 63.14 Z" />
<path fill="#8e24aa" opacity="1.00" d=" M 139.22 80.32 C 143.50 79.52 148.13 81.01 151.98 82.98 C 159.44 87.02 162.54 96.01 162.42 104.07 C 161.81 107.22 156.66 107.19 156.36 103.94 C 155.86 98.31 154.58 91.72 149.16 88.76 C 146.09 86.83 142.36 86.93 138.96 86.04 C 137.05 84.69 137.05 81.39 139.22 80.32 Z" />
</g>
</svg>
