<?xml version="1.0" encoding="UTF-8" ?>
<!DOCTYPE svg PUBLIC "-//W3C//DTD SVG 1.1//EN" "http://www.w3.org/Graphics/SVG/1.1/DTD/svg11.dtd">
<svg width="256pt" height="256pt" viewBox="0 0 256 256" version="1.1" xmlns="http://www.w3.org/2000/svg">
<g id="#4caf50ff">
<path fill="#4caf50" opacity="1.00" d=" M 26.68 45.69 C 45.94 29.05 71.66 20.36 97.04 21.16 C 119.88 21.76 142.55 30.18 159.91 45.12 C 172.75 56.18 182.28 71.28 185.76 87.96 C 165.92 86.56 145.41 90.73 128.52 101.48 C 113.42 110.94 101.35 125.73 96.63 143.05 C 93.18 155.27 93.78 168.48 97.89 180.46 C 84.70 180.86 71.47 178.95 58.92 174.92 C 48.49 180.45 38.14 186.11 27.69 191.61 C 30.56 182.43 33.70 173.33 36.77 164.22 C 29.69 159.46 23.17 153.85 17.68 147.31 C 7.55 135.64 1.40 120.78 0.00 105.41 L 0.00 96.22 C 1.16 76.52 11.90 58.37 26.68 45.69 M 58.08 60.16 C 51.49 61.47 47.41 68.54 48.35 74.97 C 48.99 81.52 55.54 86.81 62.08 86.05 C 67.98 85.62 73.43 80.98 74.18 74.99 C 75.94 66.26 66.62 57.77 58.08 60.16 M 121.35 60.50 C 115.25 62.15 111.68 68.86 112.53 74.91 C 113.22 81.72 120.27 87.25 127.06 85.96 C 133.29 85.07 138.89 79.51 138.56 72.98 C 139.01 64.41 129.34 57.49 121.35 60.50 Z" />
<path fill="#4caf50" opacity="1.00" d=" M 126.41 109.39 C 145.23 95.24 170.05 89.59 193.18 93.86 C 210.37 97.10 227.08 105.01 239.11 117.92 C 248.58 127.88 254.67 140.96 256.00 154.66 L 256.00 163.30 C 254.48 183.34 241.84 200.88 225.73 212.16 C 228.24 219.62 230.65 227.11 232.94 234.65 C 224.62 230.55 216.86 225.33 208.29 221.76 C 206.97 221.07 205.56 221.86 204.24 222.10 C 182.57 227.94 158.56 226.94 138.27 216.87 C 123.11 209.51 110.37 196.90 103.75 181.32 C 98.77 169.95 97.69 156.89 101.08 144.93 C 105.01 130.57 114.58 118.22 126.41 109.39 M 151.43 127.61 C 143.64 129.07 140.70 140.22 146.56 145.45 C 151.65 150.87 162.12 148.25 163.96 141.01 C 166.56 133.77 158.79 125.59 151.43 127.61 M 201.13 128.22 C 197.63 129.85 195.52 133.47 194.55 137.07 C 194.78 141.88 197.83 147.28 202.99 148.10 C 208.25 149.30 214.51 146.16 215.51 140.59 C 217.69 132.75 208.69 124.50 201.13 128.22 Z" />
</g>
</svg>
