<?xml version="1.0" encoding="UTF-8" ?>
<!DOCTYPE svg PUBLIC "-//W3C//DTD SVG 1.1//EN" "http://www.w3.org/Graphics/SVG/1.1/DTD/svg11.dtd">
<svg width="256pt" height="256pt" viewBox="0 0 256 256" version="1.1" xmlns="http://www.w3.org/2000/svg">
<g id="#eff2f3ff">
<path fill="#eff2f3" opacity="1.00" d=" M 126.50 0.00 L 129.50 0.00 C 159.53 0.18 189.31 11.25 212.15 30.75 C 217.28 34.66 221.11 39.87 225.52 44.52 C 244.20 65.81 255.13 93.60 256.00 121.91 L 256.00 128.18 C 255.24 163.58 239.48 198.43 213.05 222.04 C 188.17 244.59 153.72 256.16 120.28 253.24 C 102.94 252.23 85.74 247.81 70.33 239.74 C 69.02 239.22 67.67 238.02 66.19 238.74 C 44.12 244.47 22.07 250.26 0.01 255.98 C 6.03 234.07 12.10 212.17 18.08 190.24 C 4.05 166.23 -1.78 137.47 2.23 109.91 C 6.92 76.09 25.82 44.52 53.41 24.39 C 74.41 8.83 100.40 0.38 126.50 0.00 M 107.07 23.42 C 81.36 28.85 57.67 43.80 42.24 65.14 C 29.01 83.15 22.26 105.62 22.75 127.92 C 22.92 148.82 29.86 169.32 41.44 186.62 C 37.82 199.51 34.26 212.43 30.75 225.35 C 44.12 222.00 57.43 218.44 70.78 215.02 C 103.33 236.19 147.65 237.85 181.35 218.35 C 204.67 205.17 222.15 182.50 229.91 156.95 C 236.09 136.90 236.32 114.97 230.01 94.93 C 222.00 68.92 203.04 46.83 179.37 33.67 C 157.58 21.59 131.36 18.07 107.07 23.42 Z" />
<path fill="#eff2f3" opacity="1.00" d=" M 79.38 68.62 C 83.44 67.21 87.83 67.92 92.02 68.09 C 95.28 68.99 96.27 72.69 97.54 75.41 C 100.67 83.31 104.27 91.02 107.23 98.98 C 107.56 103.72 103.59 107.44 100.91 110.97 C 99.17 113.27 95.71 115.62 96.95 118.91 C 105.98 135.36 120.28 149.03 137.60 156.46 C 140.41 157.50 143.94 160.21 146.74 157.80 C 151.41 153.37 154.70 147.70 159.22 143.15 C 160.76 141.52 163.11 142.44 164.88 143.10 C 171.63 145.87 178.10 149.27 184.68 152.40 C 187.60 153.14 190.89 153.76 192.87 156.26 C 193.93 161.93 192.45 167.88 190.19 173.09 C 186.05 179.72 178.76 183.77 171.53 186.21 C 164.28 187.83 156.52 187.68 149.41 185.43 C 137.30 181.29 125.11 176.82 114.50 169.50 C 99.55 159.32 87.85 145.24 76.90 131.03 C 69.99 121.31 63.86 110.15 63.76 97.92 C 63.55 87.87 68.48 78.38 75.31 71.27 C 76.45 70.10 77.86 69.20 79.38 68.62 Z" />
</g>
<g id="#4caf50ff">
<path fill="#4caf50" opacity="1.00" d=" M 107.07 23.42 C 131.36 18.07 157.58 21.59 179.37 33.67 C 203.04 46.83 222.00 68.92 230.01 94.93 C 236.32 114.97 236.09 136.90 229.91 156.95 C 222.15 182.50 204.67 205.17 181.35 218.35 C 147.65 237.85 103.33 236.19 70.78 215.02 C 57.43 218.44 44.12 222.00 30.75 225.35 C 34.26 212.43 37.82 199.51 41.44 186.62 C 29.86 169.32 22.92 148.82 22.75 127.92 C 22.26 105.62 29.01 83.15 42.24 65.14 C 57.67 43.80 81.36 28.85 107.07 23.42 M 79.38 68.62 C 77.86 69.20 76.45 70.10 75.31 71.27 C 68.48 78.38 63.55 87.87 63.76 97.92 C 63.86 110.15 69.99 121.31 76.90 131.03 C 87.85 145.24 99.55 159.32 114.50 169.50 C 125.11 176.82 137.30 181.29 149.41 185.43 C 156.52 187.68 164.28 187.83 171.53 186.21 C 178.76 183.77 186.05 179.72 190.19 173.09 C 192.45 167.88 193.93 161.93 192.87 156.26 C 190.89 153.76 187.60 153.14 184.68 152.40 C 178.10 149.27 171.63 145.87 164.88 143.10 C 163.11 142.44 160.76 141.52 159.22 143.15 C 154.70 147.70 151.41 153.37 146.74 157.80 C 143.94 160.21 140.41 157.50 137.60 156.46 C 120.28 149.03 105.98 135.36 96.95 118.91 C 95.71 115.62 99.17 113.27 100.91 110.97 C 103.59 107.44 107.56 103.72 107.23 98.98 C 104.27 91.02 100.67 83.31 97.54 75.41 C 96.27 72.69 95.28 68.99 92.02 68.09 C 87.83 67.92 83.44 67.21 79.38 68.62 Z" />
</g>
</svg>
