<?xml version="1.0" encoding="UTF-8" ?>
<!DOCTYPE svg PUBLIC "-//W3C//DTD SVG 1.1//EN" "http://www.w3.org/Graphics/SVG/1.1/DTD/svg11.dtd">
<svg width="256pt" height="256pt" viewBox="0 0 256 256" version="1.1" xmlns="http://www.w3.org/2000/svg">
<g id="#979896ff">
<path fill="#979896" opacity="1.00" d=" M 28.47 28.46 C 31.25 24.92 36.16 26.35 40.01 26.34 C 51.85 28.32 63.16 34.90 69.88 45.00 C 74.02 50.88 76.51 57.86 77.36 64.99 C 77.48 66.61 77.83 68.20 78.59 69.65 C 121.72 69.36 164.86 69.60 208.00 69.52 C 213.25 69.61 218.51 69.32 223.75 69.64 C 228.38 70.53 232.07 75.08 230.79 79.90 C 229.06 88.55 226.99 97.17 225.33 105.85 C 224.73 109.57 222.16 113.84 217.95 113.80 C 213.47 114.65 208.82 110.59 209.33 106.02 C 209.47 99.04 212.52 92.51 212.78 85.54 C 168.36 85.59 123.94 85.38 79.52 85.65 C 82.22 107.49 84.40 129.44 86.83 151.32 C 118.24 151.45 149.64 151.32 181.05 151.38 C 186.71 151.56 192.48 149.58 196.52 145.54 C 200.00 142.43 201.35 137.56 205.14 134.74 C 208.25 133.94 212.43 133.52 214.64 136.39 C 217.91 139.29 216.99 144.54 214.66 147.77 C 208.30 159.87 194.72 167.90 181.04 167.39 C 147.37 167.43 113.69 167.25 80.03 167.47 C 73.00 167.81 70.69 178.03 76.02 181.98 C 77.92 183.69 80.58 183.57 82.96 183.61 C 116.66 183.57 150.35 183.62 184.05 183.58 C 190.97 183.58 198.04 186.04 202.88 191.10 C 208.23 197.00 210.91 205.68 208.51 213.43 C 206.39 221.71 199.35 228.20 191.23 230.50 C 185.98 231.21 180.27 231.35 175.54 228.59 C 168.76 225.54 164.11 218.94 162.53 211.80 C 161.99 207.74 162.43 203.60 163.51 199.67 C 151.91 199.57 140.30 199.54 128.70 199.68 C 130.24 205.73 130.57 212.55 127.42 218.15 C 123.55 225.53 115.53 231.13 107.03 230.89 C 96.50 231.65 86.66 223.67 83.74 213.79 C 82.88 209.12 83.58 204.36 83.62 199.65 C 74.20 200.52 64.38 195.83 59.91 187.36 C 56.68 182.16 56.98 175.79 57.62 169.95 C 59.08 162.77 64.49 157.11 70.71 153.58 C 68.45 126.38 64.72 99.28 62.23 72.08 C 61.45 67.33 61.18 62.38 59.01 57.98 C 55.20 50.10 47.57 43.96 38.86 42.51 C 35.34 41.97 31.14 42.38 28.47 39.55 C 25.16 36.92 25.19 31.10 28.47 28.46 M 104.64 200.02 C 101.19 200.96 98.84 204.38 98.68 207.86 C 99.49 211.23 102.23 214.92 106.04 214.75 C 110.26 215.35 114.36 211.27 113.80 207.05 C 114.13 202.51 108.86 198.60 104.64 200.02 M 183.77 200.05 C 181.81 200.77 180.23 202.25 179.04 203.94 C 176.37 208.60 180.46 215.41 185.95 214.75 C 189.83 215.08 192.96 211.50 193.40 207.89 C 193.74 203.08 188.43 198.44 183.77 200.05 Z" />
</g>
</svg>
