<?xml version="1.0" encoding="UTF-8" ?>
<!DOCTYPE svg PUBLIC "-//W3C//DTD SVG 1.1//EN" "http://www.w3.org/Graphics/SVG/1.1/DTD/svg11.dtd">
<svg width="512pt" height="512pt" viewBox="0 0 512 512" version="1.1" xmlns="http://www.w3.org/2000/svg">
<g id="#000000ff">
<path fill="#000000" opacity="1.00" d=" M 57.42 0.00 L 333.58 0.00 C 341.22 0.63 348.49 4.94 352.36 11.60 C 355.02 15.90 355.79 21.03 355.70 26.00 C 355.67 98.01 355.72 170.02 355.67 242.02 C 356.04 246.39 352.62 250.29 348.25 250.55 C 345.37 250.24 342.53 248.70 341.38 245.93 C 340.35 243.07 340.75 239.97 340.68 237.00 C 340.68 166.03 340.73 95.05 340.65 24.08 C 340.94 18.88 336.17 14.49 331.02 15.02 C 240.98 14.98 150.93 15.00 60.88 15.01 C 55.74 14.47 50.87 18.71 51.11 23.96 C 50.99 139.95 51.12 255.95 51.04 371.94 C 51.06 375.30 50.80 379.15 53.26 381.82 C 55.12 384.07 58.14 384.83 60.96 384.81 C 107.62 384.83 154.29 384.78 200.96 384.83 C 205.36 384.39 209.23 387.97 209.49 392.31 C 209.20 396.62 205.39 400.14 201.04 399.79 C 154.34 399.84 107.64 399.81 60.94 399.81 C 54.86 399.89 48.64 398.00 44.09 393.87 C 38.70 389.21 35.86 382.06 36.07 374.99 C 36.07 257.97 36.02 140.95 36.09 23.93 C 35.69 11.94 45.60 1.20 57.42 0.00 Z" />
<path fill="#000000" opacity="1.00" d=" M 111.43 88.64 C 123.60 86.06 136.54 94.90 138.74 107.09 C 140.39 115.12 137.48 123.87 131.28 129.25 C 125.12 134.88 115.82 136.69 107.97 133.87 C 98.90 130.79 92.26 121.71 92.26 112.10 C 91.84 100.98 100.49 90.50 111.43 88.64 M 113.44 103.61 C 106.99 105.09 105.10 114.56 110.55 118.34 C 114.95 122.10 122.58 119.56 123.83 113.90 C 125.77 107.91 119.41 101.63 113.44 103.61 Z" />
<path fill="#000000" opacity="1.00" d=" M 163.19 88.31 C 205.80 88.02 248.42 88.26 291.03 88.19 C 295.74 87.72 300.38 92.00 299.40 96.84 C 298.89 100.86 294.84 103.51 290.94 103.18 C 248.98 103.20 207.01 103.19 165.05 103.19 C 161.54 103.44 157.74 101.49 156.77 97.94 C 155.18 93.61 158.60 88.53 163.19 88.31 Z" />
<path fill="#000000" opacity="1.00" d=" M 163.28 120.36 C 169.07 120.18 174.90 120.12 180.70 120.40 C 185.78 120.73 188.95 127.00 186.33 131.34 C 184.96 133.98 181.95 135.34 179.04 135.23 C 173.69 135.19 168.32 135.44 162.97 135.09 C 158.70 134.79 155.48 130.17 156.62 126.05 C 157.24 122.92 160.13 120.57 163.28 120.36 Z" />
<path fill="#000000" opacity="1.00" d=" M 211.23 120.38 C 224.80 120.11 238.41 120.25 251.99 120.31 C 256.41 120.25 260.22 124.59 259.29 128.97 C 258.82 132.51 255.46 135.22 251.93 135.19 C 238.94 135.33 225.95 135.22 212.97 135.24 C 209.46 135.49 205.76 133.40 204.84 129.88 C 203.32 125.61 206.73 120.64 211.23 120.38 Z" />
<path fill="#000000" opacity="1.00" d=" M 163.37 176.48 C 206.23 176.27 249.10 176.37 291.96 176.43 C 297.20 176.22 301.25 182.24 298.82 186.97 C 297.34 190.36 293.49 191.68 290.03 191.39 C 248.04 191.32 206.04 191.45 164.05 191.33 C 159.71 191.50 155.83 187.40 156.45 183.07 C 156.73 179.53 159.86 176.64 163.37 176.48 Z" />
<path fill="#000000" opacity="1.00" d=" M 108.43 177.60 C 115.14 175.38 122.82 176.41 128.69 180.34 C 135.72 184.99 139.97 193.57 139.09 201.99 C 138.38 211.47 131.26 220.03 122.09 222.48 C 114.18 224.76 105.15 222.52 99.33 216.67 C 93.36 210.97 90.87 202.01 92.99 194.05 C 94.92 186.42 100.94 180.00 108.43 177.60 M 112.23 192.23 C 106.37 194.61 105.60 203.63 111.04 206.89 C 116.53 211.03 125.16 205.78 124.07 199.03 C 123.72 193.50 117.20 189.76 112.23 192.23 Z" />
<path fill="#000000" opacity="1.00" d=" M 163.43 208.53 C 169.15 208.39 174.90 208.31 180.62 208.58 C 185.98 208.87 189.17 215.69 186.03 220.01 C 183.00 224.74 176.71 223.19 172.00 223.43 C 167.25 223.13 160.98 224.80 157.77 220.23 C 154.29 215.79 157.79 208.56 163.43 208.53 Z" />
<path fill="#000000" opacity="1.00" d=" M 211.45 208.54 C 224.30 208.28 237.18 208.52 250.04 208.42 C 252.83 208.34 255.98 208.90 257.77 211.27 C 260.33 214.29 259.79 219.30 256.66 221.71 C 254.56 223.49 251.65 223.45 249.06 223.46 C 236.75 223.38 224.44 223.52 212.13 223.39 C 207.77 223.56 203.89 219.41 204.56 215.06 C 204.87 211.58 207.98 208.72 211.45 208.54 Z" />
<path fill="#000000" opacity="1.00" d=" M 109.40 265.49 C 116.51 263.49 124.53 265.05 130.29 269.69 C 136.64 274.68 140.12 283.07 138.98 291.09 C 137.88 300.54 130.41 308.87 121.10 310.89 C 112.70 313.01 103.27 309.87 97.78 303.18 C 92.86 297.43 91.03 289.24 93.07 281.95 C 95.15 274.12 101.55 267.59 109.40 265.49 M 112.31 280.36 C 106.12 282.79 105.62 292.41 111.57 295.40 C 117.24 299.03 125.34 293.49 124.04 286.91 C 123.49 281.55 117.17 278.05 112.31 280.36 Z" />
<path fill="#000000" opacity="1.00" d=" M 160.29 265.51 C 161.72 264.71 163.41 264.63 165.00 264.56 C 207.01 264.56 249.01 264.56 291.02 264.57 C 294.95 264.21 298.99 267.00 299.42 271.04 C 300.19 275.42 296.29 279.63 291.91 279.52 C 249.93 279.64 207.94 279.52 165.96 279.58 C 162.91 279.72 159.40 279.01 157.69 276.21 C 155.18 272.77 156.52 267.43 160.29 265.51 Z" />
<path fill="#000000" opacity="1.00" d=" M 331.38 275.42 C 335.63 270.66 341.90 267.94 348.25 267.74 C 357.77 267.49 367.02 273.52 370.50 282.41 C 378.12 301.24 385.67 320.10 393.21 338.96 C 413.50 340.45 433.81 341.64 454.09 343.14 C 463.71 343.72 472.45 350.80 474.98 360.11 C 477.71 369.07 474.30 379.29 466.98 385.06 C 451.63 397.81 436.45 410.78 420.97 423.38 C 425.39 443.65 431.13 463.64 435.82 483.86 C 437.13 490.11 435.70 496.86 431.97 502.05 C 427.82 507.93 420.91 511.63 413.73 512.00 L 411.57 512.00 C 406.97 511.43 402.57 509.81 398.65 507.35 C 382.02 496.90 365.37 486.47 348.75 476.01 C 331.80 486.59 314.91 497.27 297.98 507.87 C 294.80 509.93 291.19 511.19 287.51 512.00 L 282.37 512.00 C 273.64 510.90 265.57 504.97 262.61 496.58 C 260.73 491.71 260.86 486.29 262.19 481.30 C 267.05 462.13 271.79 442.93 276.71 423.78 C 264.21 413.20 251.63 402.71 239.03 392.26 C 233.99 387.55 227.59 383.92 224.31 377.61 C 220.45 370.58 220.72 361.59 224.80 354.71 C 228.48 348.21 235.48 343.84 242.90 343.19 C 263.39 341.55 283.95 340.65 304.42 338.81 C 310.72 322.40 317.48 306.18 323.96 289.84 C 326.05 284.87 327.59 279.43 331.38 275.42 M 345.39 283.43 C 342.58 284.49 341.11 287.27 340.07 289.90 C 332.43 308.99 324.73 328.06 317.10 347.15 C 316.36 348.92 315.61 350.82 314.01 352.01 C 311.47 354.05 308.01 353.69 304.97 353.99 C 284.94 355.34 264.90 356.64 244.88 358.10 C 240.30 358.20 236.22 362.28 236.60 366.95 C 236.56 369.99 238.70 372.35 240.88 374.18 C 257.06 387.69 273.24 401.21 289.41 414.73 C 291.87 416.60 293.20 419.86 292.36 422.89 C 287.17 443.97 281.73 464.98 276.54 486.05 C 275.14 490.52 278.00 495.63 282.57 496.68 C 285.98 497.66 289.21 495.75 291.96 493.97 C 309.35 483.01 326.77 472.09 344.18 461.16 C 346.78 459.31 350.37 459.17 353.03 461.01 C 371.50 472.50 389.83 484.24 408.36 495.65 C 414.14 499.66 422.84 493.85 421.06 486.95 C 416.01 465.63 410.41 444.43 405.19 423.15 C 404.28 420.14 405.44 416.79 407.91 414.90 C 424.39 401.04 440.99 387.31 457.45 373.42 C 460.53 371.03 461.91 366.60 460.12 363.01 C 458.79 359.83 455.39 358.16 452.08 358.02 C 430.68 356.51 409.26 355.16 387.86 353.65 C 384.93 353.49 382.18 351.65 381.13 348.89 C 372.88 328.71 364.93 308.41 356.66 288.24 C 355.05 283.85 349.68 281.47 345.39 283.43 Z" />
<path fill="#000000" opacity="1.00" d=" M 160.34 297.57 C 164.30 295.90 168.75 296.88 172.92 296.63 C 177.36 296.76 183.21 295.59 186.02 300.02 C 189.37 304.58 185.58 311.68 179.95 311.56 C 173.96 311.52 167.90 312.02 161.95 311.28 C 155.58 310.02 154.45 300.28 160.34 297.57 Z" />
<path fill="#000000" opacity="1.00" d=" M 209.17 297.23 C 211.37 296.47 213.73 296.63 216.01 296.61 C 228.01 296.69 240.00 296.52 251.99 296.69 C 256.67 296.58 260.57 301.50 259.14 306.02 C 258.34 309.61 254.63 311.79 251.10 311.61 C 238.08 311.61 225.06 311.69 212.05 311.57 C 207.67 311.67 203.78 307.43 204.58 303.06 C 204.91 300.47 206.76 298.19 209.17 297.23 Z" />
</g>
<g id="#edebedff">
<path fill="#edebed" opacity="1.00" d=" M 51.11 23.96 C 50.87 18.71 55.74 14.47 60.88 15.01 C 150.93 15.00 240.98 14.98 331.02 15.02 C 336.17 14.49 340.94 18.88 340.65 24.08 C 340.73 95.05 340.68 166.03 340.68 237.00 C 340.75 239.97 340.35 243.07 341.38 245.93 C 342.53 248.70 345.37 250.24 348.25 250.55 C 348.25 256.28 348.25 262.01 348.25 267.74 C 341.90 267.94 335.63 270.66 331.38 275.42 C 327.59 279.43 326.05 284.87 323.96 289.84 C 317.48 306.18 310.72 322.40 304.42 338.81 C 283.95 340.65 263.39 341.55 242.90 343.19 C 235.48 343.84 228.48 348.21 224.80 354.71 C 220.72 361.59 220.45 370.58 224.31 377.61 C 227.59 383.92 233.99 387.55 239.03 392.26 C 229.18 392.37 219.33 392.28 209.49 392.31 C 209.23 387.97 205.36 384.39 200.96 384.83 C 154.29 384.78 107.62 384.83 60.96 384.81 C 58.14 384.83 55.12 384.07 53.26 381.82 C 50.80 379.15 51.06 375.30 51.04 371.94 C 51.12 255.95 50.99 139.95 51.11 23.96 M 111.43 88.64 C 100.49 90.50 91.84 100.98 92.26 112.10 C 92.26 121.71 98.90 130.79 107.97 133.87 C 115.82 136.69 125.12 134.88 131.28 129.25 C 137.48 123.87 140.39 115.12 138.74 107.09 C 136.54 94.90 123.60 86.06 111.43 88.64 M 163.19 88.31 C 158.60 88.53 155.18 93.61 156.77 97.94 C 157.74 101.49 161.54 103.44 165.05 103.19 C 207.01 103.19 248.98 103.20 290.94 103.18 C 294.84 103.51 298.89 100.86 299.40 96.84 C 300.38 92.00 295.74 87.72 291.03 88.19 C 248.42 88.26 205.80 88.02 163.19 88.31 M 163.28 120.36 C 160.13 120.57 157.24 122.92 156.62 126.05 C 155.48 130.17 158.70 134.79 162.97 135.09 C 168.32 135.44 173.69 135.19 179.04 135.23 C 181.95 135.34 184.96 133.98 186.33 131.34 C 188.95 127.00 185.78 120.73 180.70 120.40 C 174.90 120.12 169.07 120.18 163.28 120.36 M 211.23 120.38 C 206.73 120.64 203.32 125.61 204.84 129.88 C 205.76 133.40 209.46 135.49 212.97 135.24 C 225.95 135.22 238.94 135.33 251.93 135.19 C 255.46 135.22 258.82 132.51 259.29 128.97 C 260.22 124.59 256.41 120.25 251.99 120.31 C 238.41 120.25 224.80 120.11 211.23 120.38 M 163.37 176.48 C 159.86 176.64 156.73 179.53 156.45 183.07 C 155.83 187.40 159.71 191.50 164.05 191.33 C 206.04 191.45 248.04 191.32 290.03 191.39 C 293.49 191.68 297.34 190.36 298.82 186.97 C 301.25 182.24 297.20 176.22 291.96 176.43 C 249.10 176.37 206.23 176.27 163.37 176.48 M 108.43 177.60 C 100.94 180.00 94.92 186.42 92.99 194.05 C 90.87 202.01 93.36 210.97 99.33 216.67 C 105.15 222.52 114.18 224.76 122.09 222.48 C 131.26 220.03 138.38 211.47 139.09 201.99 C 139.97 193.57 135.72 184.99 128.69 180.34 C 122.82 176.41 115.14 175.38 108.43 177.60 M 163.43 208.53 C 157.79 208.56 154.29 215.79 157.77 220.23 C 160.98 224.80 167.25 223.13 172.00 223.43 C 176.71 223.19 183.00 224.74 186.03 220.01 C 189.17 215.69 185.98 208.87 180.62 208.58 C 174.90 208.31 169.15 208.39 163.43 208.53 M 211.45 208.54 C 207.98 208.72 204.87 211.58 204.56 215.06 C 203.89 219.41 207.77 223.56 212.13 223.39 C 224.44 223.52 236.75 223.38 249.06 223.46 C 251.65 223.45 254.56 223.49 256.66 221.71 C 259.79 219.30 260.33 214.29 257.77 211.27 C 255.98 208.90 252.83 208.34 250.04 208.42 C 237.18 208.52 224.30 208.28 211.45 208.54 M 109.40 265.49 C 101.55 267.59 95.15 274.12 93.07 281.95 C 91.03 289.24 92.86 297.43 97.78 303.18 C 103.27 309.87 112.70 313.01 121.10 310.89 C 130.41 308.87 137.88 300.54 138.98 291.09 C 140.12 283.07 136.64 274.68 130.29 269.69 C 124.53 265.05 116.51 263.49 109.40 265.49 M 160.29 265.51 C 156.52 267.43 155.18 272.77 157.69 276.21 C 159.40 279.01 162.91 279.72 165.96 279.58 C 207.94 279.52 249.93 279.64 291.91 279.52 C 296.29 279.63 300.19 275.42 299.42 271.04 C 298.99 267.00 294.95 264.21 291.02 264.57 C 249.01 264.56 207.01 264.56 165.00 264.56 C 163.41 264.63 161.72 264.71 160.29 265.51 M 160.34 297.57 C 154.45 300.28 155.58 310.02 161.95 311.28 C 167.90 312.02 173.96 311.52 179.95 311.56 C 185.58 311.68 189.37 304.58 186.02 300.02 C 183.21 295.59 177.36 296.76 172.92 296.63 C 168.75 296.88 164.30 295.90 160.34 297.57 M 209.17 297.23 C 206.76 298.19 204.91 300.47 204.58 303.06 C 203.78 307.43 207.67 311.67 212.05 311.57 C 225.06 311.69 238.08 311.61 251.10 311.61 C 254.63 311.79 258.34 309.61 259.14 306.02 C 260.57 301.50 256.67 296.58 251.99 296.69 C 240.00 296.52 228.01 296.69 216.01 296.61 C 213.73 296.63 211.37 296.47 209.17 297.23 Z" />
</g>
<g id="#ffcc5dff">
<path fill="#ffcc5d" opacity="1.00" d=" M 113.44 103.61 C 119.41 101.63 125.77 107.91 123.83 113.90 C 122.58 119.56 114.95 122.10 110.55 118.34 C 105.10 114.56 106.99 105.09 113.44 103.61 Z" />
<path fill="#ffcc5d" opacity="1.00" d=" M 112.23 192.23 C 117.20 189.76 123.72 193.50 124.07 199.03 C 125.16 205.78 116.53 211.03 111.04 206.89 C 105.60 203.63 106.37 194.61 112.23 192.23 Z" />
<path fill="#ffcc5d" opacity="1.00" d=" M 112.31 280.36 C 117.17 278.05 123.49 281.55 124.04 286.91 C 125.34 293.49 117.24 299.03 111.57 295.40 C 105.62 292.41 106.12 282.79 112.31 280.36 Z" />
<path fill="#ffcc5d" opacity="1.00" d=" M 345.39 283.43 C 349.68 281.47 355.05 283.85 356.66 288.24 C 364.93 308.41 372.88 328.71 381.13 348.89 C 382.18 351.65 384.93 353.49 387.86 353.65 C 409.26 355.16 430.68 356.51 452.08 358.02 C 455.39 358.16 458.79 359.83 460.12 363.01 C 461.91 366.60 460.53 371.03 457.45 373.42 C 440.99 387.31 424.39 401.04 407.91 414.90 C 405.44 416.79 404.28 420.14 405.19 423.15 C 410.41 444.43 416.01 465.63 421.06 486.95 C 422.84 493.85 414.14 499.66 408.36 495.65 C 389.83 484.24 371.50 472.50 353.03 461.01 C 350.37 459.17 346.78 459.31 344.18 461.16 C 326.77 472.09 309.35 483.01 291.96 493.97 C 289.21 495.75 285.98 497.66 282.57 496.68 C 278.00 495.63 275.14 490.52 276.54 486.05 C 281.73 464.98 287.17 443.97 292.36 422.89 C 293.20 419.86 291.87 416.60 289.41 414.73 C 273.24 401.21 257.06 387.69 240.88 374.18 C 238.70 372.35 236.56 369.99 236.60 366.95 C 236.22 362.28 240.30 358.20 244.88 358.10 C 264.90 356.64 284.94 355.34 304.97 353.99 C 308.01 353.69 311.47 354.05 314.01 352.01 C 315.61 350.82 316.36 348.92 317.10 347.15 C 324.73 328.06 332.43 308.99 340.07 289.90 C 341.11 287.27 342.58 284.49 345.39 283.43 Z" />
</g>
</svg>
