<?xml version="1.0" encoding="UTF-8" ?>
<!DOCTYPE svg PUBLIC "-//W3C//DTD SVG 1.1//EN" "http://www.w3.org/Graphics/SVG/1.1/DTD/svg11.dtd">
<svg width="128pt" height="128pt" viewBox="0 0 128 128" version="1.1" xmlns="http://www.w3.org/2000/svg">
<g id="#e34444ff">
<path fill="#e34444" opacity="1.00" d=" M 55.51 16.79 C 68.13 14.48 81.63 17.48 92.00 25.07 C 102.38 32.50 109.59 44.22 111.42 56.86 C 113.35 69.32 110.07 82.47 102.51 92.56 C 94.47 103.49 81.60 110.76 68.05 111.78 C 52.98 113.18 37.50 106.82 27.70 95.31 C 17.48 83.70 13.58 66.95 17.56 52.00 C 21.96 34.21 37.44 19.86 55.51 16.79 M 56.52 24.72 C 40.27 27.63 26.79 41.55 24.49 57.90 C 22.31 71.24 27.55 85.45 37.84 94.19 C 46.03 101.35 57.23 104.94 68.06 103.76 C 78.61 102.75 88.61 97.25 95.19 88.96 C 101.94 80.63 105.07 69.49 103.63 58.86 C 102.16 46.87 94.85 35.78 84.44 29.66 C 76.16 24.64 66.01 22.92 56.52 24.72 Z" />
<path fill="#e34444" opacity="1.00" d=" M 48.71 54.19 C 46.36 51.11 50.19 46.59 53.65 48.37 C 57.45 51.29 60.49 55.09 64.01 58.35 C 67.32 55.18 70.37 51.74 73.80 48.71 C 76.88 46.37 81.41 50.18 79.64 53.65 C 76.71 57.44 72.92 60.49 69.66 64.00 C 72.81 67.30 76.25 70.33 79.25 73.76 C 81.67 76.83 77.84 81.40 74.36 79.64 C 70.57 76.71 67.52 72.91 64.01 69.65 C 60.51 72.91 57.46 76.67 53.69 79.62 C 50.24 81.44 46.36 76.93 48.70 73.83 C 51.73 70.37 55.19 67.32 58.37 64.00 C 55.19 60.68 51.74 57.63 48.71 54.19 Z" />
</g>
</svg>
