<?xml version="1.0" encoding="UTF-8" ?>
<!DOCTYPE svg PUBLIC "-//W3C//DTD SVG 1.1//EN" "http://www.w3.org/Graphics/SVG/1.1/DTD/svg11.dtd">
<svg width="256pt" height="256pt" viewBox="0 0 256 256" version="1.1" xmlns="http://www.w3.org/2000/svg">
<g id="#8cc152ff">
<path fill="#8cc152" opacity="1.00" d=" M 77.78 34.74 C 80.75 31.80 85.85 31.12 89.17 33.84 C 93.31 36.59 93.79 42.97 90.41 46.53 C 80.90 56.23 71.24 65.77 61.63 75.36 C 112.40 75.44 163.16 75.37 213.93 75.40 C 218.17 75.39 222.43 78.59 222.76 82.95 C 223.74 88.05 219.06 92.98 213.96 92.72 C 163.20 92.70 112.43 92.77 61.67 92.68 C 71.12 102.42 80.91 111.82 90.35 121.56 C 93.95 125.27 93.26 132.11 88.68 134.66 C 87.43 136.01 85.50 135.52 84.02 136.36 C 81.64 135.83 79.46 135.03 77.62 133.32 C 63.30 118.99 48.97 104.69 34.67 90.35 C 31.32 86.93 31.30 81.17 34.71 77.81 C 49.05 63.43 63.40 49.08 77.78 34.74 Z" />
<path fill="#8cc152" opacity="1.00" d=" M 166.37 120.31 C 167.60 118.98 169.51 119.47 170.98 118.64 C 173.36 119.16 175.54 119.97 177.38 121.68 C 191.69 135.99 206.01 150.30 220.31 164.63 C 223.67 168.05 223.71 173.82 220.28 177.20 C 206.28 191.25 192.23 205.27 178.20 219.31 C 176.48 220.93 174.55 222.65 172.07 222.76 C 167.39 223.64 162.46 219.65 162.38 214.89 C 161.99 211.79 163.83 209.05 165.97 206.99 C 175.11 197.88 184.20 188.72 193.37 179.64 C 142.62 179.57 91.86 179.63 41.11 179.61 C 36.84 179.63 32.55 176.40 32.24 172.01 C 31.32 166.94 35.93 162.02 41.02 162.28 C 91.79 162.30 142.56 162.23 193.33 162.31 C 183.88 152.58 174.09 143.18 164.65 133.44 C 161.03 129.71 161.75 122.84 166.37 120.31 Z" />
</g>
</svg>
