<?xml version="1.0" encoding="UTF-8" ?>
<!DOCTYPE svg PUBLIC "-//W3C//DTD SVG 1.1//EN" "http://www.w3.org/Graphics/SVG/1.1/DTD/svg11.dtd">
<svg width="256pt" height="256pt" viewBox="0 0 256 256" version="1.1" xmlns="http://www.w3.org/2000/svg">
<g id="#fc5830ff">
<path fill="#fc5830" opacity="1.00" d=" M 114.64 31.04 C 135.96 28.05 158.28 32.25 176.89 43.13 C 199.32 56.04 216.41 78.11 222.75 103.26 C 229.88 130.15 224.88 160.10 208.89 182.94 C 205.53 187.43 197.63 186.11 195.89 180.77 C 194.17 176.57 197.46 172.83 199.41 169.40 C 208.96 153.17 212.73 133.57 209.59 114.99 C 206.34 93.92 194.43 74.37 177.29 61.73 C 162.11 50.32 142.89 44.47 123.93 45.46 C 100.10 46.51 77.04 58.59 62.60 77.57 C 51.88 91.33 45.76 108.60 45.38 126.04 C 44.89 144.80 51.07 163.65 62.61 178.45 C 77.07 197.43 100.14 209.51 123.99 210.54 C 137.38 211.39 150.76 208.25 162.98 202.92 C 166.37 201.48 169.36 199.21 172.85 198.00 C 177.29 196.57 182.24 200.44 182.33 204.99 C 182.54 207.96 180.71 210.72 178.17 212.13 C 161.46 222.23 141.61 227.02 122.12 225.70 C 87.49 224.16 54.99 202.17 40.00 171.02 C 30.85 152.61 28.08 131.27 31.55 111.05 C 35.04 90.43 45.52 71.08 60.81 56.82 C 75.42 42.85 94.56 33.58 114.64 31.04 Z" />
<path fill="#fc5830" opacity="1.00" d=" M 125.40 71.45 C 128.99 70.37 133.17 71.75 134.79 75.26 C 137.49 80.04 133.31 86.31 128.00 86.28 C 124.10 86.20 120.52 82.87 120.40 78.94 C 120.22 75.70 122.43 72.60 125.40 71.45 Z" />
<path fill="#fc5830" opacity="1.00" d=" M 125.20 102.22 C 129.92 100.03 135.77 104.20 135.62 109.30 C 135.74 131.22 135.61 153.14 135.68 175.06 C 135.68 177.45 135.63 180.10 133.97 182.02 C 131.26 185.86 124.79 185.87 122.06 182.05 C 120.37 180.12 120.31 177.44 120.32 175.02 C 120.36 153.39 120.31 131.76 120.34 110.13 C 120.14 106.81 122.05 103.45 125.20 102.22 Z" />
</g>
</svg>
