<?xml version="1.0" encoding="UTF-8" ?>
<!DOCTYPE svg PUBLIC "-//W3C//DTD SVG 1.1//EN" "http://www.w3.org/Graphics/SVG/1.1/DTD/svg11.dtd">
<svg width="256pt" height="256pt" viewBox="0 0 256 256" version="1.1" xmlns="http://www.w3.org/2000/svg">
<g id="#979896ff">
<path fill="#979896" opacity="1.00" d=" M 111.16 0.00 L 113.74 0.00 C 137.09 0.36 160.34 7.86 179.13 21.81 C 199.41 36.55 214.53 58.25 221.24 82.43 C 227.71 105.49 226.61 130.65 217.93 153.00 C 213.62 164.53 207.10 175.11 199.45 184.73 C 216.91 202.23 234.41 219.70 251.88 237.20 C 254.13 239.40 255.73 242.21 256.00 245.40 L 256.00 245.57 C 255.85 251.13 251.17 255.82 245.62 256.00 L 245.42 256.00 C 242.22 255.73 239.38 254.13 237.18 251.86 C 219.69 234.40 202.23 216.91 184.73 199.45 C 169.30 211.96 150.77 220.77 131.10 223.88 C 105.22 228.23 77.84 223.15 55.33 209.62 C 33.12 196.47 15.62 175.49 6.87 151.19 C 2.31 139.15 0.35 126.28 0.00 113.45 L 0.00 111.50 C 0.41 99.26 2.24 86.99 6.44 75.45 C 13.93 53.98 28.18 34.96 46.58 21.63 C 65.17 7.90 88.10 0.49 111.16 0.00 M 100.47 21.70 C 79.50 24.45 59.65 34.83 45.36 50.41 C 30.59 66.21 21.73 87.41 20.97 109.03 C 20.03 129.93 26.61 151.05 39.23 167.74 C 53.06 186.34 74.17 199.42 97.06 203.23 C 118.90 207.07 142.12 202.69 160.93 190.90 C 177.74 180.59 191.03 164.69 198.23 146.33 C 206.55 125.34 206.70 101.24 198.61 80.15 C 190.36 58.23 173.34 39.78 152.15 29.80 C 136.22 22.10 117.99 19.34 100.47 21.70 Z" />
</g>
</svg>
