<?xml version="1.0" encoding="UTF-8" ?>
<!DOCTYPE svg PUBLIC "-//W3C//DTD SVG 1.1//EN" "http://www.w3.org/Graphics/SVG/1.1/DTD/svg11.dtd">
<svg width="256pt" height="256pt" viewBox="0 0 256 256" version="1.1" xmlns="http://www.w3.org/2000/svg">
<g id="#ffffffff">
<path fill="#ffffff" opacity="1.00" d=" M 90.39 25.55 C 91.84 25.02 93.42 25.06 94.94 25.02 C 123.97 25.04 153.00 25.03 182.02 25.03 C 186.39 24.98 190.77 25.62 194.86 27.20 C 207.00 31.71 215.66 44.14 215.55 57.12 C 215.59 97.76 215.58 138.40 215.56 179.04 C 215.82 183.26 212.31 187.29 208.08 187.51 C 203.42 188.00 199.10 183.68 199.43 179.04 C 199.38 138.36 199.45 97.68 199.39 57.00 C 199.34 48.79 192.25 41.41 184.01 41.20 C 154.01 41.10 124.00 41.19 93.99 41.16 C 91.33 41.24 88.59 40.26 86.94 38.09 C 83.56 34.15 85.38 27.17 90.39 25.55 Z" />
<path fill="#ffffff" opacity="1.00" d=" M 65.47 58.75 C 70.52 57.30 75.81 57.77 80.99 57.70 C 104.00 57.70 127.01 57.72 150.03 57.70 C 159.00 57.57 168.03 61.21 174.18 67.79 C 180.16 73.91 183.34 82.48 183.28 91.00 C 183.25 127.31 183.31 163.63 183.25 199.95 C 183.10 212.01 175.76 223.63 164.82 228.79 C 160.24 231.03 155.12 231.99 150.03 231.97 C 124.36 231.95 98.68 232.01 73.00 231.94 C 62.52 231.90 52.24 226.38 46.50 217.60 C 42.74 212.18 40.97 205.54 41.03 198.98 C 41.07 162.31 40.96 125.64 41.08 88.97 C 41.25 74.92 51.87 62.01 65.47 58.75 M 57.20 89.95 C 57.18 126.65 57.17 163.35 57.21 200.05 C 57.21 208.37 64.63 215.77 72.94 215.81 C 98.99 215.87 125.04 215.85 151.09 215.82 C 158.33 215.79 165.08 210.26 166.59 203.20 C 166.98 200.15 166.71 197.05 167.07 194.00 C 166.68 186.68 166.70 179.32 167.06 172.01 C 166.86 170.34 166.76 168.66 167.08 167.00 C 166.66 155.35 166.69 143.65 167.07 132.00 C 166.69 122.35 166.66 112.64 167.08 103.00 C 166.71 100.01 166.72 96.99 167.08 94.00 C 166.62 90.45 167.26 86.64 165.52 83.36 C 162.83 77.45 156.48 73.63 150.02 73.82 C 124.30 73.85 98.57 73.76 72.85 73.86 C 64.50 74.08 57.08 81.54 57.20 89.95 Z" />
</g>
</svg>
