<?xml version="1.0" encoding="UTF-8" ?>
<!DOCTYPE svg PUBLIC "-//W3C//DTD SVG 1.1//EN" "http://www.w3.org/Graphics/SVG/1.1/DTD/svg11.dtd">
<svg width="512pt" height="512pt" viewBox="0 0 512 512" version="1.1" xmlns="http://www.w3.org/2000/svg">
<g id="#d8f7b0ff">
<path fill="#d8f7b0" opacity="1.00" d=" M 279.91 25.08 C 299.69 22.33 319.89 24.81 338.88 30.72 C 310.79 30.77 282.70 30.76 254.61 30.72 C 262.95 28.47 271.29 26.06 279.91 25.08 Z" />
<path fill="#d8f7b0" opacity="1.00" d=" M 5.23 225.30 C 14.57 198.44 34.75 176.86 57.32 160.29 C 57.30 174.38 57.31 188.47 57.31 202.56 C 53.60 202.64 49.82 202.20 46.17 203.04 C 41.93 204.29 38.96 208.60 39.18 213.00 C 39.18 254.24 39.19 295.49 39.19 336.73 C 17.85 316.86 1.40 290.00 0.00 260.28 L 0.00 251.87 C 0.57 242.83 2.21 233.85 5.23 225.30 Z" />
<path fill="#d8f7b0" opacity="1.00" d=" M 472.81 174.87 C 479.00 181.51 485.43 187.97 490.74 195.37 C 502.91 211.67 510.95 231.30 512.00 251.74 L 512.00 259.42 C 511.21 279.91 503.25 299.65 491.17 316.05 C 485.76 323.68 479.17 330.32 472.81 337.14 C 472.82 283.05 472.82 228.96 472.81 174.87 Z" />
<path fill="#d8f7b0" opacity="1.00" d=" M 241.52 475.81 C 244.32 475.30 247.14 474.89 250.00 474.87 C 277.32 475.03 304.65 474.90 331.97 474.95 C 338.58 475.06 345.30 474.27 351.79 475.94 C 317.33 492.02 275.94 491.98 241.52 475.81 Z" />
</g>
<g id="#000000ff">
<path fill="#000000" opacity="1.00" d=" M 92.82 53.98 C 92.92 41.74 103.75 30.84 116.01 30.78 C 162.21 30.68 208.41 30.81 254.61 30.72 C 282.70 30.76 310.79 30.77 338.88 30.72 C 375.59 30.80 412.31 30.71 449.02 30.76 C 458.77 30.66 468.03 37.28 471.32 46.42 C 473.28 51.38 472.77 56.79 472.82 62.00 C 472.81 99.63 472.82 137.25 472.81 174.87 C 472.82 228.96 472.82 283.05 472.81 337.14 C 472.81 359.76 472.82 382.39 472.81 405.01 C 472.88 410.39 470.96 415.65 467.75 419.94 C 463.24 425.52 456.30 429.15 449.07 429.11 C 439.99 429.18 430.91 429.08 421.83 429.14 C 421.81 434.45 421.79 439.78 421.85 445.10 C 422.35 449.89 421.10 455.09 416.77 457.78 C 413.03 459.30 408.94 458.94 405.00 458.96 C 396.81 458.92 388.61 458.95 380.42 458.95 C 324.68 458.94 268.95 458.93 213.22 458.95 C 158.80 458.93 104.39 458.95 49.97 458.94 C 48.04 458.93 46.15 458.47 44.33 457.87 C 41.45 455.85 39.11 452.74 39.21 449.08 C 39.14 411.63 39.20 374.18 39.19 336.73 C 39.19 295.49 39.18 254.24 39.18 213.00 C 38.96 208.60 41.93 204.29 46.17 203.04 C 49.82 202.20 53.60 202.64 57.31 202.56 C 57.31 188.47 57.30 174.38 57.32 160.29 C 57.37 155.85 57.05 151.38 57.71 146.98 C 59.13 137.61 65.24 129.09 73.68 124.77 C 79.48 121.60 86.25 120.84 92.75 121.53 C 92.80 99.02 92.65 76.50 92.82 53.98 M 102.90 53.95 C 102.69 64.94 102.88 75.94 102.82 86.93 C 212.90 86.95 322.97 86.92 433.05 86.95 C 436.21 86.52 438.54 89.11 439.11 91.99 C 438.56 94.87 436.23 97.46 433.08 97.05 C 322.99 97.08 212.90 97.05 102.82 97.06 C 102.82 106.30 102.81 115.53 102.82 124.77 C 115.27 129.46 127.72 134.14 140.18 138.82 C 144.09 133.52 150.38 130.00 157.02 129.98 C 164.03 129.91 171.05 129.89 178.05 129.99 C 184.74 130.04 190.99 133.67 194.91 138.99 C 208.75 133.27 222.92 128.34 236.90 122.99 C 250.55 117.88 267.16 124.28 273.87 137.19 C 276.52 141.99 277.71 147.50 277.63 152.96 C 277.63 169.49 277.63 186.03 277.63 202.56 C 280.75 202.60 283.88 202.39 286.99 202.74 C 291.80 203.45 295.57 208.12 295.26 212.98 C 295.25 239.03 295.25 265.07 295.25 291.12 C 302.86 291.16 310.48 291.05 318.09 291.16 C 322.19 291.11 325.54 294.03 327.32 297.51 C 340.86 297.49 354.39 297.48 367.92 297.52 C 373.04 297.39 377.69 301.87 377.78 306.98 C 377.86 327.00 377.79 347.03 377.82 367.06 C 389.24 367.09 400.67 367.01 412.10 367.08 C 417.27 367.07 421.86 371.72 421.78 376.90 C 421.87 390.95 421.78 405.00 421.82 419.06 C 430.89 419.04 439.97 419.09 449.04 419.04 C 456.42 419.11 462.95 412.41 462.74 405.05 C 462.75 300.70 462.75 196.35 462.75 92.00 C 462.72 79.32 462.81 66.64 462.71 53.96 C 462.48 46.89 456.06 40.74 448.98 40.83 C 338.34 40.80 227.69 40.82 117.04 40.82 C 109.82 40.54 103.15 46.73 102.90 53.95 M 77.33 134.27 C 71.18 137.85 67.30 144.83 67.39 151.93 C 67.37 168.98 67.35 186.03 67.40 203.07 C 67.40 209.92 71.11 216.64 76.98 220.19 C 82.24 223.59 89.07 224.31 94.93 222.08 C 108.80 216.92 122.64 211.67 136.49 206.47 C 136.29 201.72 136.39 196.97 136.37 192.21 C 129.28 193.65 122.22 195.25 115.12 196.64 C 112.47 197.49 109.41 195.80 108.81 193.08 C 108.01 190.35 109.96 187.31 112.76 186.89 C 120.61 185.14 128.51 183.59 136.37 181.89 C 136.37 178.86 136.37 175.84 136.37 172.81 C 128.60 171.12 120.79 169.58 113.03 167.87 C 110.27 167.53 108.14 164.75 108.73 161.99 C 109.13 159.13 112.27 157.19 115.02 158.03 C 122.15 159.43 129.24 161.04 136.37 162.48 C 136.39 157.72 136.30 152.96 136.49 148.21 C 122.75 143.07 109.03 137.88 95.30 132.73 C 89.49 130.43 82.65 130.95 77.33 134.27 M 239.73 132.69 C 225.98 138.04 211.96 142.72 198.42 148.54 C 198.56 153.19 198.48 157.84 198.51 162.48 C 205.69 161.04 212.83 159.40 220.03 158.01 C 222.73 157.25 225.74 159.17 226.17 161.94 C 226.78 164.66 224.71 167.49 221.97 167.85 C 214.16 169.56 206.32 171.12 198.51 172.81 C 198.50 175.84 198.50 178.86 198.51 181.89 C 206.32 183.57 214.16 185.11 221.96 186.85 C 224.82 187.18 226.90 190.25 226.11 193.03 C 225.54 195.71 222.54 197.46 219.93 196.67 C 212.77 195.27 205.65 193.65 198.50 192.20 C 198.49 196.85 198.56 201.50 198.42 206.15 C 211.52 211.81 225.11 216.31 238.41 221.52 C 244.02 223.93 250.66 224.08 256.13 221.20 C 262.93 217.94 267.49 210.68 267.51 203.14 C 267.63 186.74 267.52 170.34 267.57 153.94 C 267.61 150.08 267.16 146.10 265.35 142.63 C 260.95 133.46 249.19 128.76 239.73 132.69 M 154.32 140.47 C 149.70 141.75 146.32 146.33 146.45 151.12 C 146.44 168.71 146.41 186.31 146.47 203.90 C 146.41 209.55 151.38 214.61 157.04 214.64 C 163.99 214.73 170.96 214.73 177.91 214.63 C 183.51 214.57 188.50 209.59 188.41 203.96 C 188.46 186.32 188.43 168.68 188.43 151.04 C 188.68 144.97 183.04 139.61 177.00 140.06 C 169.45 140.30 161.82 139.55 154.32 140.47 M 49.25 212.65 C 49.25 291.39 49.25 370.13 49.25 448.87 C 72.91 448.88 96.58 448.88 120.24 448.87 C 120.26 384.91 120.24 320.96 120.25 257.00 C 120.30 254.12 120.02 251.20 120.46 248.34 C 120.98 246.10 123.28 245.22 125.21 244.53 C 127.09 245.19 129.29 245.93 129.96 248.06 C 130.57 250.65 130.25 253.36 130.32 256.00 C 130.30 320.29 130.32 384.58 130.31 448.87 C 145.66 448.88 161.01 448.87 176.37 448.87 C 176.40 424.94 176.32 401.01 176.40 377.08 C 176.29 371.92 180.73 367.15 185.93 367.10 C 191.99 366.97 198.05 367.11 204.12 367.05 C 204.12 320.87 204.14 274.69 204.11 228.51 C 204.16 225.44 204.14 222.37 204.02 219.30 C 200.91 218.26 197.85 217.06 194.85 215.73 C 190.97 221.06 184.69 224.65 178.04 224.70 C 171.00 224.79 163.97 224.78 156.94 224.71 C 150.32 224.67 144.09 221.13 140.17 215.89 C 135.10 217.76 130.06 219.68 125.01 221.57 C 116.19 224.88 107.39 228.22 98.56 231.51 C 91.82 234.00 84.20 234.08 77.44 231.60 C 71.41 229.58 66.62 225.23 62.57 220.48 C 61.45 217.82 59.85 215.37 58.84 212.64 C 55.64 212.61 52.45 212.62 49.25 212.65 M 272.37 220.43 C 269.52 223.53 266.71 226.79 263.02 228.91 C 255.16 233.82 245.04 234.77 236.38 231.51 C 228.97 228.79 221.60 225.94 214.20 223.20 C 214.18 226.25 214.18 229.29 214.19 232.34 C 214.18 277.24 214.18 322.15 214.19 367.05 C 221.19 367.06 228.18 367.06 235.18 367.05 C 235.21 347.33 235.16 327.61 235.20 307.90 C 234.90 302.51 239.54 297.43 244.99 297.52 C 258.38 297.44 271.78 297.55 285.18 297.48 C 285.19 269.20 285.19 240.92 285.18 212.64 C 282.14 212.62 279.10 212.62 276.06 212.63 C 275.05 215.33 273.47 217.78 272.37 220.43 M 295.25 301.19 C 295.25 323.14 295.25 345.10 295.25 367.06 C 302.75 367.06 310.25 367.06 317.75 367.06 C 317.75 345.10 317.75 323.14 317.75 301.19 C 310.25 301.19 302.75 301.19 295.25 301.19 M 245.25 307.58 C 245.26 327.40 245.24 347.23 245.25 367.05 C 258.56 367.07 271.87 367.06 285.18 367.05 C 285.19 347.23 285.19 327.40 285.18 307.57 C 271.87 307.56 258.56 307.55 245.25 307.58 M 327.82 307.57 C 327.81 327.40 327.81 347.22 327.82 367.05 C 341.13 367.07 354.43 367.05 367.74 367.06 C 367.74 347.23 367.78 327.39 367.72 307.55 C 354.42 307.59 341.12 307.54 327.82 307.57 M 186.44 377.13 C 186.43 387.44 186.45 397.75 186.43 408.06 C 186.45 421.66 186.43 435.26 186.44 448.86 C 187.53 448.86 188.63 448.87 189.74 448.88 C 208.00 448.87 226.27 448.88 244.54 448.87 C 259.25 448.88 273.97 448.87 288.68 448.88 C 306.95 448.87 325.22 448.88 343.48 448.87 C 358.21 448.88 372.95 448.87 387.68 448.88 C 395.70 448.87 403.73 448.88 411.75 448.87 C 411.75 440.83 411.74 432.79 411.75 424.76 C 411.74 410.01 411.76 395.26 411.74 380.51 C 411.74 379.38 411.75 378.25 411.76 377.14 C 394.64 377.12 377.52 377.12 360.41 377.13 C 345.67 377.12 330.94 377.13 316.20 377.12 C 297.94 377.13 279.67 377.12 261.40 377.13 C 246.67 377.12 231.93 377.13 217.20 377.12 C 206.94 377.13 196.69 377.11 186.44 377.13 Z" />
</g>
<g id="#bfe58fff">
<path fill="#bfe58f" opacity="1.00" d=" M 102.90 53.95 C 103.15 46.73 109.82 40.54 117.04 40.82 C 227.69 40.82 338.34 40.80 448.98 40.83 C 456.06 40.74 462.48 46.89 462.71 53.96 C 462.81 66.64 462.72 79.32 462.75 92.00 C 454.87 92.00 446.99 92.01 439.11 91.99 C 438.54 89.11 436.21 86.52 433.05 86.95 C 322.97 86.92 212.90 86.95 102.82 86.93 C 102.88 75.94 102.69 64.94 102.90 53.95 M 193.35 59.47 C 190.64 60.85 189.89 64.82 191.91 67.10 C 193.08 68.67 195.11 68.96 196.94 68.94 C 241.62 68.94 286.31 68.93 330.99 68.94 C 333.34 69.12 336.01 68.27 336.93 65.89 C 338.50 62.64 335.66 58.53 332.07 58.86 C 287.38 58.74 242.70 58.87 198.01 58.79 C 196.46 58.89 194.77 58.71 193.35 59.47 M 369.21 59.28 C 364.95 60.91 365.53 67.92 370.05 68.73 C 374.69 69.23 379.38 68.80 384.04 68.97 C 386.71 68.88 390.12 69.43 391.87 66.87 C 394.29 63.87 391.92 58.74 387.99 58.89 C 381.75 58.95 375.37 58.29 369.21 59.28 M 407.41 59.43 C 403.53 61.24 404.12 67.63 408.28 68.68 C 412.48 69.27 416.76 68.79 421.00 68.95 C 424.19 68.76 428.45 69.84 430.52 66.65 C 432.87 63.40 429.97 58.42 425.99 58.85 C 419.82 59.07 413.44 58.11 407.41 59.43 Z" />
</g>
<g id="#ebebffff">
<path fill="#ebebff" opacity="1.00" d=" M 193.35 59.47 C 194.77 58.71 196.46 58.89 198.01 58.79 C 242.70 58.87 287.38 58.74 332.07 58.86 C 335.66 58.53 338.50 62.64 336.93 65.89 C 336.01 68.27 333.34 69.12 330.99 68.94 C 286.31 68.93 241.62 68.94 196.94 68.94 C 195.11 68.96 193.08 68.67 191.91 67.10 C 189.89 64.82 190.64 60.85 193.35 59.47 Z" />
</g>
<g id="#ff9d33ff">
<path fill="#ff9d33" opacity="1.00" d=" M 369.21 59.28 C 375.37 58.29 381.75 58.95 387.99 58.89 C 391.92 58.74 394.29 63.87 391.87 66.87 C 390.12 69.43 386.71 68.88 384.04 68.97 C 379.38 68.80 374.69 69.23 370.05 68.73 C 365.53 67.92 364.95 60.91 369.21 59.28 Z" />
<path fill="#ff9d33" opacity="1.00" d=" M 37.95 103.83 C 39.64 101.77 42.94 101.01 45.06 102.84 C 48.07 105.50 50.74 108.52 53.66 111.28 C 55.18 112.87 57.26 114.48 57.12 116.94 C 57.21 120.53 52.89 123.13 49.77 121.33 C 46.91 119.24 44.68 116.41 42.10 114.00 C 39.34 116.45 37.14 119.64 33.94 121.53 C 29.83 123.46 25.25 118.32 27.66 114.47 C 30.74 110.62 34.55 107.40 37.95 103.83 Z" />
<path fill="#ff9d33" opacity="1.00" d=" M 186.44 377.13 C 196.69 377.11 206.94 377.13 217.20 377.12 C 206.97 387.46 196.55 397.62 186.43 408.06 C 186.45 397.75 186.43 387.44 186.44 377.13 Z" />
<path fill="#ff9d33" opacity="1.00" d=" M 261.40 377.13 C 279.67 377.12 297.94 377.13 316.20 377.12 C 292.33 401.05 268.37 424.90 244.54 448.87 C 226.27 448.88 208.00 448.87 189.74 448.88 C 213.61 424.95 237.56 401.09 261.40 377.13 Z" />
<path fill="#ff9d33" opacity="1.00" d=" M 360.41 377.13 C 377.52 377.12 394.64 377.12 411.76 377.14 C 411.75 378.25 411.74 379.38 411.74 380.51 C 389.08 403.39 366.21 426.06 343.48 448.87 C 325.22 448.88 306.95 448.87 288.68 448.88 C 312.64 425.01 336.52 401.07 360.41 377.13 Z" />
<path fill="#ff9d33" opacity="1.00" d=" M 387.68 448.88 C 395.73 440.87 403.81 432.87 411.75 424.76 C 411.74 432.79 411.75 440.83 411.75 448.87 C 403.73 448.88 395.70 448.87 387.68 448.88 Z" />
<path fill="#ff9d33" opacity="1.00" d=" M 438.01 462.91 C 439.84 460.80 443.38 460.59 445.32 462.66 C 448.97 466.33 452.88 469.80 456.18 473.78 C 458.65 477.59 454.18 482.80 450.02 480.97 C 446.77 479.06 444.55 475.85 441.77 473.37 C 439.13 475.84 436.92 478.86 433.87 480.85 C 429.60 483.06 424.75 477.50 427.55 473.59 C 430.79 469.81 434.53 466.47 438.01 462.91 Z" />
</g>
<g id="#ff4d4dff">
<path fill="#ff4d4d" opacity="1.00" d=" M 407.41 59.43 C 413.44 58.11 419.82 59.07 425.99 58.85 C 429.97 58.42 432.87 63.40 430.52 66.65 C 428.45 69.84 424.19 68.76 421.00 68.95 C 416.76 68.79 412.48 69.27 408.28 68.68 C 404.12 67.63 403.53 61.24 407.41 59.43 Z" />
</g>
<g id="#6c6cffff">
<path fill="#6c6cff" opacity="1.00" d=" M 67.41 61.54 C 71.58 59.48 76.30 64.77 73.75 68.67 C 70.39 72.66 66.48 76.18 62.79 79.86 C 60.13 82.67 54.79 80.84 54.42 76.98 C 53.80 73.78 56.80 71.79 58.68 69.74 C 61.62 67.05 64.05 63.73 67.41 61.54 Z" />
<path fill="#6c6cff" opacity="1.00" d=" M 329.40 151.50 C 331.80 150.55 334.43 150.56 336.98 150.54 C 352.65 150.61 368.32 150.50 383.99 150.59 C 389.83 150.47 395.43 154.47 397.20 160.04 C 400.27 168.20 393.79 178.07 385.02 178.26 C 368.03 178.37 351.03 178.31 334.04 178.29 C 327.63 178.35 321.77 173.25 320.75 166.96 C 319.45 160.60 323.30 153.72 329.40 151.50 Z" />
<path fill="#6c6cff" opacity="1.00" d=" M 494.38 335.35 C 498.25 332.33 504.04 337.28 501.74 341.61 C 498.55 345.75 494.45 349.12 490.86 352.91 C 488.75 355.40 484.37 354.96 482.82 352.09 C 481.41 349.86 482.26 346.93 484.20 345.32 C 487.61 342.02 490.79 338.46 494.38 335.35 Z" />
</g>
<g id="#ffffffff">
<path fill="#ffffff" opacity="1.00" d=" M 439.11 91.99 C 446.99 92.01 454.87 92.00 462.75 92.00 C 462.75 196.35 462.75 300.70 462.74 405.05 C 462.95 412.41 456.42 419.11 449.04 419.04 C 439.97 419.09 430.89 419.04 421.82 419.06 C 421.78 405.00 421.87 390.95 421.78 376.90 C 421.86 371.72 417.27 367.07 412.10 367.08 C 400.67 367.01 389.24 367.09 377.82 367.06 C 377.79 347.03 377.86 327.00 377.78 306.98 C 377.69 301.87 373.04 297.39 367.92 297.52 C 354.39 297.48 340.86 297.49 327.32 297.51 C 325.54 294.03 322.19 291.11 318.09 291.16 C 310.48 291.05 302.86 291.16 295.25 291.12 C 295.25 265.07 295.25 239.03 295.26 212.98 C 295.57 208.12 291.80 203.45 286.99 202.74 C 283.88 202.39 280.75 202.60 277.63 202.56 C 277.63 186.03 277.63 169.49 277.63 152.96 C 277.71 147.50 276.52 141.99 273.87 137.19 C 267.16 124.28 250.55 117.88 236.90 122.99 C 222.92 128.34 208.75 133.27 194.91 138.99 C 190.99 133.67 184.74 130.04 178.05 129.99 C 171.05 129.89 164.03 129.91 157.02 129.98 C 150.38 130.00 144.09 133.52 140.18 138.82 C 127.72 134.14 115.27 129.46 102.82 124.77 C 102.81 115.53 102.82 106.30 102.82 97.06 C 212.90 97.05 322.99 97.08 433.08 97.05 C 436.23 97.46 438.56 94.87 439.11 91.99 M 329.40 151.50 C 323.30 153.72 319.45 160.60 320.75 166.96 C 321.77 173.25 327.63 178.35 334.04 178.29 C 351.03 178.31 368.03 178.37 385.02 178.26 C 393.79 178.07 400.27 168.20 397.20 160.04 C 395.43 154.47 389.83 150.47 383.99 150.59 C 368.32 150.50 352.65 150.61 336.98 150.54 C 334.43 150.56 331.80 150.55 329.40 151.50 M 329.18 215.22 C 324.90 216.92 325.62 224.03 330.23 224.69 C 334.84 224.97 339.48 224.82 344.10 224.77 C 347.87 224.85 350.19 219.99 348.01 217.00 C 346.32 214.25 342.75 214.78 340.00 214.73 C 336.41 214.93 332.69 214.27 329.18 215.22 M 328.37 240.50 C 324.51 242.97 326.44 249.73 331.11 249.56 C 344.05 249.78 357.01 249.52 369.97 249.67 C 372.01 249.59 374.15 249.81 376.12 249.14 C 378.90 247.71 379.75 243.66 377.64 241.30 C 376.32 239.55 373.94 239.61 371.97 239.54 C 359.33 239.55 346.68 239.59 334.04 239.52 C 332.14 239.64 330.01 239.35 328.37 240.50 M 329.19 257.29 C 324.97 258.91 325.59 265.91 330.05 266.66 C 335.22 266.99 340.48 267.17 345.63 266.54 C 350.11 265.12 349.73 257.71 344.99 257.02 C 339.75 256.74 334.36 256.38 329.19 257.29 M 362.24 257.26 C 357.54 258.97 358.88 266.89 363.93 266.77 C 386.28 267.02 408.64 266.77 431.00 266.89 C 433.91 266.67 437.25 267.53 439.85 265.86 C 443.58 263.37 441.65 256.68 437.05 256.90 C 414.03 256.67 391.01 256.93 367.99 256.78 C 366.07 256.83 364.09 256.68 362.24 257.26 Z" />
<path fill="#ffffff" opacity="1.00" d=" M 295.25 301.19 C 302.75 301.19 310.25 301.19 317.75 301.19 C 317.75 323.14 317.75 345.10 317.75 367.06 C 310.25 367.06 302.75 367.06 295.25 367.06 C 295.25 345.10 295.25 323.14 295.25 301.19 Z" />
</g>
<g id="#fd9727ff">
<path fill="#fd9727" opacity="1.00" d=" M 77.33 134.27 C 82.65 130.95 89.49 130.43 95.30 132.73 C 109.03 137.88 122.75 143.07 136.49 148.21 C 136.30 152.96 136.39 157.72 136.37 162.48 C 129.24 161.04 122.15 159.43 115.02 158.03 C 112.27 157.19 109.13 159.13 108.73 161.99 C 108.14 164.75 110.27 167.53 113.03 167.87 C 120.79 169.58 128.60 171.12 136.37 172.81 C 136.37 175.84 136.37 178.86 136.37 181.89 C 128.51 183.59 120.61 185.14 112.76 186.89 C 109.96 187.31 108.01 190.35 108.81 193.08 C 109.41 195.80 112.47 197.49 115.12 196.64 C 122.22 195.25 129.28 193.65 136.37 192.21 C 136.39 196.97 136.29 201.72 136.49 206.47 C 122.64 211.67 108.80 216.92 94.93 222.08 C 89.07 224.31 82.24 223.59 76.98 220.19 C 71.11 216.64 67.40 209.92 67.40 203.07 C 67.35 186.03 67.37 168.98 67.39 151.93 C 67.30 144.83 71.18 137.85 77.33 134.27 Z" />
<path fill="#fd9727" opacity="1.00" d=" M 239.73 132.69 C 249.19 128.76 260.95 133.46 265.35 142.63 C 267.16 146.10 267.61 150.08 267.57 153.94 C 267.52 170.34 267.63 186.74 267.51 203.14 C 267.49 210.68 262.93 217.94 256.13 221.20 C 250.66 224.08 244.02 223.93 238.41 221.52 C 225.11 216.31 211.52 211.81 198.42 206.15 C 198.56 201.50 198.49 196.85 198.50 192.20 C 205.65 193.65 212.77 195.27 219.93 196.67 C 222.54 197.46 225.54 195.71 226.11 193.03 C 226.90 190.25 224.82 187.18 221.96 186.85 C 214.16 185.11 206.32 183.57 198.51 181.89 C 198.50 178.86 198.50 175.84 198.51 172.81 C 206.32 171.12 214.16 169.56 221.97 167.85 C 224.71 167.49 226.78 164.66 226.17 161.94 C 225.74 159.17 222.73 157.25 220.03 158.01 C 212.83 159.40 205.69 161.04 198.51 162.48 C 198.48 157.84 198.56 153.19 198.42 148.54 C 211.96 142.72 225.98 138.04 239.73 132.69 Z" />
<path fill="#fd9727" opacity="1.00" d=" M 154.32 140.47 C 161.82 139.55 169.45 140.30 177.00 140.06 C 183.04 139.61 188.68 144.97 188.43 151.04 C 188.43 168.68 188.46 186.32 188.41 203.96 C 188.50 209.59 183.51 214.57 177.91 214.63 C 170.96 214.73 163.99 214.73 157.04 214.64 C 151.38 214.61 146.41 209.55 146.47 203.90 C 146.41 186.31 146.44 168.71 146.45 151.12 C 146.32 146.33 149.70 141.75 154.32 140.47 Z" />
<path fill="#fd9727" opacity="1.00" d=" M 193.12 223.37 C 196.64 225.38 200.29 227.13 204.11 228.51 C 204.14 274.69 204.12 320.87 204.12 367.05 C 198.05 367.11 191.99 366.97 185.93 367.10 C 180.73 367.15 176.29 371.92 176.40 377.08 C 176.32 401.01 176.40 424.94 176.37 448.87 C 161.01 448.87 145.66 448.88 130.31 448.87 C 130.32 384.58 130.30 320.29 130.32 256.00 C 130.25 253.36 130.57 250.65 129.96 248.06 C 129.29 245.93 127.09 245.19 125.21 244.53 C 125.27 239.95 125.30 235.36 125.16 230.77 L 125.15 230.31 C 130.93 228.72 136.40 226.23 142.08 224.31 C 144.57 227.63 147.02 231.38 151.08 232.91 C 156.46 234.98 162.37 233.98 168.00 234.20 C 173.95 234.00 180.49 235.17 185.85 231.90 C 189.19 229.98 191.11 226.52 193.12 223.37 Z" />
</g>
<g id="#8cc152ff">
<path fill="#8cc152" opacity="1.00" d=" M 49.25 212.65 C 52.45 212.62 55.64 212.61 58.84 212.64 C 59.85 215.37 61.45 217.82 62.57 220.48 C 63.36 227.49 67.15 234.01 72.92 238.07 C 79.58 242.93 88.66 244.29 96.42 241.42 C 106.03 237.97 115.49 234.08 125.16 230.77 C 125.30 235.36 125.27 239.95 125.21 244.53 C 123.28 245.22 120.98 246.10 120.46 248.34 C 120.02 251.20 120.30 254.12 120.25 257.00 C 120.24 320.96 120.26 384.91 120.24 448.87 C 96.58 448.88 72.91 448.88 49.25 448.87 C 49.25 370.13 49.25 291.39 49.25 212.65 Z" />
<path fill="#8cc152" opacity="1.00" d=" M 272.37 220.43 C 273.47 217.78 275.05 215.33 276.06 212.63 C 279.10 212.62 282.14 212.62 285.18 212.64 C 285.19 240.92 285.19 269.20 285.18 297.48 C 271.78 297.55 258.38 297.44 244.99 297.52 C 239.54 297.43 234.90 302.51 235.20 307.90 C 235.16 327.61 235.21 347.33 235.18 367.05 C 228.18 367.06 221.19 367.06 214.19 367.05 C 214.18 322.15 214.18 277.24 214.19 232.34 C 222.10 235.24 229.96 238.30 237.86 241.21 C 242.67 243.01 248.01 243.47 253.01 242.19 C 263.18 239.89 271.31 230.84 272.37 220.43 Z" />
</g>
<g id="#ff8b00ff">
<path fill="#ff8b00" opacity="1.00" d=" M 329.18 215.22 C 332.69 214.27 336.41 214.93 340.00 214.73 C 342.75 214.78 346.32 214.25 348.01 217.00 C 350.19 219.99 347.87 224.85 344.10 224.77 C 339.48 224.82 334.84 224.97 330.23 224.69 C 325.62 224.03 324.90 216.92 329.18 215.22 Z" />
</g>
<g id="#e57c13ff">
<path fill="#e57c13" opacity="1.00" d=" M 125.01 221.57 C 130.06 219.68 135.10 217.76 140.17 215.89 C 144.09 221.13 150.32 224.67 156.94 224.71 C 163.97 224.78 171.00 224.79 178.04 224.70 C 184.69 224.65 190.97 221.06 194.85 215.73 C 197.85 217.06 200.91 218.26 204.02 219.30 C 204.14 222.37 204.16 225.44 204.11 228.51 C 200.29 227.13 196.64 225.38 193.12 223.37 C 191.11 226.52 189.19 229.98 185.85 231.90 C 180.49 235.17 173.95 234.00 168.00 234.20 C 162.37 233.98 156.46 234.98 151.08 232.91 C 147.02 231.38 144.57 227.63 142.08 224.31 C 136.40 226.23 130.93 228.72 125.15 230.31 C 125.06 227.40 125.02 224.49 125.01 221.57 Z" />
</g>
<g id="#69a31dff">
<path fill="#69a31d" opacity="1.00" d=" M 62.57 220.48 C 66.62 225.23 71.41 229.58 77.44 231.60 C 84.20 234.08 91.82 234.00 98.56 231.51 C 107.39 228.22 116.19 224.88 125.01 221.57 C 125.02 224.49 125.06 227.40 125.15 230.31 L 125.16 230.77 C 115.49 234.08 106.03 237.97 96.42 241.42 C 88.66 244.29 79.58 242.93 72.92 238.07 C 67.15 234.01 63.36 227.49 62.57 220.48 Z" />
<path fill="#69a31d" opacity="1.00" d=" M 263.02 228.91 C 266.71 226.79 269.52 223.53 272.37 220.43 C 271.31 230.84 263.18 239.89 253.01 242.19 C 248.01 243.47 242.67 243.01 237.86 241.21 C 229.96 238.30 222.10 235.24 214.19 232.34 C 214.18 229.29 214.18 226.25 214.20 223.20 C 221.60 225.94 228.97 228.79 236.38 231.51 C 245.04 234.77 255.16 233.82 263.02 228.91 Z" />
</g>
<g id="#d9d9ffff">
<path fill="#d9d9ff" opacity="1.00" d=" M 328.37 240.50 C 330.01 239.35 332.14 239.64 334.04 239.52 C 346.68 239.59 359.33 239.55 371.97 239.54 C 373.94 239.61 376.32 239.55 377.64 241.30 C 379.75 243.66 378.90 247.71 376.12 249.14 C 374.15 249.81 372.01 249.59 369.97 249.67 C 357.01 249.52 344.05 249.78 331.11 249.56 C 326.44 249.73 324.51 242.97 328.37 240.50 Z" />
<path fill="#d9d9ff" opacity="1.00" d=" M 329.19 257.29 C 334.36 256.38 339.75 256.74 344.99 257.02 C 349.73 257.71 350.11 265.12 345.63 266.54 C 340.48 267.17 335.22 266.99 330.05 266.66 C 325.59 265.91 324.97 258.91 329.19 257.29 Z" />
<path fill="#d9d9ff" opacity="1.00" d=" M 362.24 257.26 C 364.09 256.68 366.07 256.83 367.99 256.78 C 391.01 256.93 414.03 256.67 437.05 256.90 C 441.65 256.68 443.58 263.37 439.85 265.86 C 437.25 267.53 433.91 266.67 431.00 266.89 C 408.64 266.77 386.28 267.02 363.93 266.77 C 358.88 266.89 357.54 258.97 362.24 257.26 Z" />
</g>
<g id="#ff2c2cff">
<path fill="#ff2c2c" opacity="1.00" d=" M 245.25 307.58 C 258.56 307.55 271.87 307.56 285.18 307.57 C 285.19 327.40 285.19 347.23 285.18 367.05 C 271.87 367.06 258.56 367.07 245.25 367.05 C 245.24 347.23 245.26 327.40 245.25 307.58 Z" />
<path fill="#ff2c2c" opacity="1.00" d=" M 327.82 307.57 C 341.12 307.54 354.42 307.59 367.72 307.55 C 367.78 327.39 367.74 347.23 367.74 367.06 C 354.43 367.05 341.13 367.07 327.82 367.05 C 327.81 347.22 327.81 327.40 327.82 307.57 Z" />
<path fill="#ff2c2c" opacity="1.00" d=" M 217.20 377.12 C 231.93 377.13 246.67 377.12 261.40 377.13 C 237.56 401.09 213.61 424.95 189.74 448.88 C 188.63 448.87 187.53 448.86 186.44 448.86 C 186.43 435.26 186.45 421.66 186.43 408.06 C 196.55 397.62 206.97 387.46 217.20 377.12 Z" />
<path fill="#ff2c2c" opacity="1.00" d=" M 316.20 377.12 C 330.94 377.13 345.67 377.12 360.41 377.13 C 336.52 401.07 312.64 425.01 288.68 448.88 C 273.97 448.87 259.25 448.88 244.54 448.87 C 268.37 424.90 292.33 401.05 316.20 377.12 Z" />
<path fill="#ff2c2c" opacity="1.00" d=" M 343.48 448.87 C 366.21 426.06 389.08 403.39 411.74 380.51 C 411.76 395.26 411.74 410.01 411.75 424.76 C 403.81 432.87 395.73 440.87 387.68 448.88 C 372.95 448.87 358.21 448.88 343.48 448.87 Z" />
</g>
<g id="#ff6c6cff">
<path fill="#ff6c6c" opacity="1.00" d=" M 23.15 340.19 C 27.21 338.48 31.56 343.44 29.32 347.23 C 27.23 350.11 24.38 352.34 21.97 354.94 C 20.23 356.56 18.76 358.60 16.59 359.68 C 13.46 360.98 9.69 358.32 9.80 354.96 C 9.84 351.78 12.88 350.01 14.77 347.88 C 17.60 345.38 19.83 342.06 23.15 340.19 Z" />
</g>
<g id="#1a250f31">
<path fill="#1a250f" opacity="0.19" d=" M 449.07 429.11 C 456.30 429.15 463.24 425.52 467.75 419.94 C 467.60 424.17 468.03 428.55 466.68 432.65 C 464.14 439.94 456.77 445.25 449.01 445.09 C 439.95 445.18 430.90 445.09 421.85 445.10 C 421.79 439.78 421.81 434.45 421.83 429.14 C 430.91 429.08 439.99 429.18 449.07 429.11 Z" />
</g>
<g id="#0e13081a">
<path fill="#0e1308" opacity="0.10" d=" M 44.33 457.87 C 46.15 458.47 48.04 458.93 49.97 458.94 C 104.39 458.95 158.80 458.93 213.22 458.95 C 221.15 464.91 229.66 470.07 238.53 474.49 C 230.39 475.17 222.21 474.82 214.05 474.89 C 159.69 474.91 105.33 474.87 50.97 474.91 C 48.70 474.86 45.65 474.70 44.83 472.09 C 43.74 467.44 44.51 462.59 44.33 457.87 Z" />
<path fill="#0e1308" opacity="0.10" d=" M 405.00 458.96 C 408.94 458.94 413.03 459.30 416.77 457.78 C 416.68 462.38 417.28 467.04 416.46 471.59 C 415.75 474.41 412.50 474.94 410.03 474.90 C 395.01 474.91 379.99 474.83 364.96 474.94 C 361.72 474.96 358.49 474.63 355.26 474.39 C 364.08 469.99 372.51 464.84 380.42 458.95 C 388.61 458.95 396.81 458.92 405.00 458.96 Z" />
</g>
<g id="#d0f1a6ff">
<path fill="#d0f1a6" opacity="1.00" d=" M 213.22 458.95 C 268.95 458.93 324.68 458.94 380.42 458.95 C 372.51 464.84 364.08 469.99 355.26 474.39 C 354.09 474.90 352.94 475.42 351.79 475.94 C 345.30 474.27 338.58 475.06 331.97 474.95 C 304.65 474.90 277.32 475.03 250.00 474.87 C 247.14 474.89 244.32 475.30 241.52 475.81 C 240.52 475.36 239.53 474.92 238.53 474.49 C 229.66 470.07 221.15 464.91 213.22 458.95 Z" />
</g>
</svg>
