<?xml version="1.0" encoding="UTF-8" ?>
<!DOCTYPE svg PUBLIC "-//W3C//DTD SVG 1.1//EN" "http://www.w3.org/Graphics/SVG/1.1/DTD/svg11.dtd">
<svg width="256pt" height="256pt" viewBox="0 0 256 256" version="1.1" xmlns="http://www.w3.org/2000/svg">
<g id="#fc5830ff">
<path fill="#fc5830" opacity="1.00" d=" M 144.70 0.00 L 148.09 0.00 C 174.28 0.43 200.47 9.52 220.43 26.64 C 242.15 44.61 255.84 72.08 256.00 100.40 L 256.00 103.14 C 255.53 108.35 255.78 113.84 253.67 118.73 C 250.84 124.43 242.29 125.63 237.99 120.94 C 234.34 117.59 235.10 112.28 235.48 107.86 C 237.46 90.30 232.26 72.27 222.13 57.89 C 209.90 40.32 190.80 28.00 170.09 22.93 C 146.65 17.09 120.97 20.17 99.85 32.00 C 83.98 40.74 70.72 54.50 63.38 71.14 C 56.80 86.12 55.09 103.39 59.58 119.20 C 65.12 139.52 79.08 157.06 96.85 168.15 C 120.68 183.10 151.30 185.97 177.81 176.94 C 182.50 175.32 187.57 172.43 192.59 174.61 C 204.28 179.55 215.84 184.84 227.49 189.90 C 223.92 181.04 220.35 172.18 216.73 163.34 C 215.56 160.45 214.52 157.21 215.54 154.12 C 216.91 149.32 222.30 146.16 227.16 147.41 C 230.97 148.11 233.60 151.40 234.90 154.87 C 241.33 170.78 247.75 186.70 254.23 202.60 C 254.95 204.41 255.54 206.27 256.00 208.17 L 256.00 209.80 C 255.51 214.77 251.13 218.93 246.10 218.89 C 242.55 218.74 239.35 216.97 236.16 215.61 C 220.21 208.55 204.25 201.53 188.30 194.50 C 181.52 196.94 174.57 198.85 167.51 200.29 C 157.15 216.95 141.05 229.83 122.62 236.48 C 101.40 244.33 77.41 244.42 56.17 236.59 C 44.93 241.54 33.69 246.50 22.45 251.44 C 18.45 253.17 14.54 255.29 10.19 256.00 L 9.86 256.00 C 4.99 255.73 0.75 252.06 0.00 247.20 L 0.00 245.25 C 0.86 241.29 2.61 237.63 4.11 233.89 C 7.85 224.64 11.60 215.39 15.34 206.14 C 5.84 192.81 0.33 176.81 0.00 160.41 L 0.00 159.38 C 0.34 150.71 1.56 142.00 4.61 133.84 C 10.52 116.85 22.60 102.48 37.41 92.47 C 39.73 66.71 53.17 42.47 73.14 26.16 C 92.97 9.38 118.84 0.48 144.70 0.00 M 23.46 140.37 C 17.99 155.22 19.31 172.35 26.71 186.30 C 28.87 191.19 32.70 195.05 35.41 199.62 C 37.14 202.39 37.01 205.93 35.78 208.88 C 33.40 214.90 30.91 220.88 28.50 226.90 C 35.30 223.91 42.10 220.93 48.88 217.91 C 51.12 216.92 53.44 215.97 55.91 215.85 C 60.87 216.22 65.20 218.96 70.01 219.95 C 94.59 226.61 122.52 219.90 140.80 202.00 C 116.01 200.75 91.48 191.64 72.69 175.28 C 55.19 160.50 42.73 139.72 38.51 117.16 C 31.88 123.68 26.59 131.60 23.46 140.37 Z" />
<path fill="#fc5830" opacity="1.00" d=" M 102.21 92.34 C 108.97 89.21 117.29 95.79 115.73 103.07 C 114.96 110.29 105.26 114.05 99.83 109.20 C 93.97 104.94 95.46 94.87 102.21 92.34 Z" />
<path fill="#fc5830" opacity="1.00" d=" M 142.19 92.35 C 148.92 89.21 157.21 95.72 155.75 102.98 C 155.03 110.25 145.29 114.08 139.82 109.19 C 133.98 104.94 135.46 94.89 142.19 92.35 Z" />
<path fill="#fc5830" opacity="1.00" d=" M 182.19 92.35 C 188.96 89.19 197.31 95.80 195.73 103.09 C 194.94 110.29 185.29 114.04 179.86 109.22 C 173.98 104.98 175.44 94.89 182.19 92.35 Z" />
</g>
</svg>
