<?xml version="1.0" encoding="UTF-8" ?>
<!DOCTYPE svg PUBLIC "-//W3C//DTD SVG 1.1//EN" "http://www.w3.org/Graphics/SVG/1.1/DTD/svg11.dtd">
<svg width="256pt" height="256pt" viewBox="0 0 256 256" version="1.1" xmlns="http://www.w3.org/2000/svg">
<g id="#e43f3fff">
<path fill="#e43f3f" opacity="1.00" d=" M 39.61 0.00 L 142.00 0.00 C 151.86 0.52 161.58 4.36 168.68 11.31 C 175.86 18.24 180.35 27.91 180.81 37.89 C 181.15 45.26 181.04 52.65 180.91 60.02 C 180.89 64.74 177.24 69.14 172.51 69.76 C 167.33 70.70 161.88 66.77 161.26 61.51 C 160.48 53.34 161.54 45.09 160.69 36.92 C 159.44 27.46 150.53 19.88 141.00 20.04 C 107.33 19.99 73.66 19.94 39.99 20.07 C 29.51 20.06 20.33 29.51 20.54 39.97 C 20.43 97.98 20.54 155.99 20.49 214.00 C 20.31 219.51 21.82 225.27 25.70 229.34 C 29.72 233.99 35.94 236.23 42.01 236.00 C 75.02 235.96 108.03 236.06 141.03 235.96 C 150.54 236.11 159.42 228.55 160.68 219.12 C 161.54 210.94 160.49 202.69 161.25 194.51 C 161.89 188.98 167.86 184.97 173.23 186.38 C 178.02 187.34 181.17 192.14 180.97 196.88 C 180.70 209.19 182.62 222.35 176.71 233.71 C 170.42 246.78 156.61 255.39 142.20 256.00 L 39.72 256.00 C 25.28 255.55 11.33 247.06 4.94 234.01 C 1.52 227.58 0.47 220.22 0.49 213.02 C 0.53 155.70 0.45 98.38 0.53 41.06 C 0.49 31.56 3.57 22.01 9.70 14.69 C 16.91 5.71 28.18 0.51 39.61 0.00 Z" />
<path fill="#e43f3f" opacity="1.00" d=" M 209.84 95.93 C 209.40 90.08 215.09 84.76 220.91 85.69 C 224.33 85.98 226.86 88.52 229.17 90.80 C 235.65 97.37 242.26 103.81 248.73 110.39 C 252.33 114.01 254.90 118.61 256.00 123.61 L 256.00 133.37 C 254.84 138.91 251.73 143.82 247.67 147.70 C 240.61 154.65 233.75 161.80 226.57 168.63 C 222.67 172.53 215.60 172.22 212.17 167.86 C 208.85 164.14 209.16 158.03 212.68 154.54 C 217.83 149.06 223.29 143.89 228.54 138.51 C 188.72 138.45 148.88 138.58 109.06 138.45 C 103.42 138.74 98.20 133.77 98.63 128.07 C 98.71 122.67 103.75 118.29 109.08 118.55 C 148.89 118.43 188.72 118.55 228.53 118.49 C 223.73 113.63 218.88 108.82 214.06 103.98 C 211.90 101.80 209.85 99.15 209.84 95.93 Z" />
</g>
</svg>
