<?xml version="1.0" encoding="UTF-8" ?>
<!DOCTYPE svg PUBLIC "-//W3C//DTD SVG 1.1//EN" "http://www.w3.org/Graphics/SVG/1.1/DTD/svg11.dtd">
<svg width="256pt" height="256pt" viewBox="0 0 256 256" version="1.1" xmlns="http://www.w3.org/2000/svg">
<g id="#fc5830ff">
<path fill="#fc5830" opacity="1.00" d=" M 39.48 0.00 L 216.88 0.00 C 228.42 0.52 239.82 5.81 247.00 14.97 C 252.72 21.82 255.59 30.66 256.00 39.50 L 256.00 165.54 C 255.76 170.02 252.58 174.35 248.05 175.15 C 242.38 176.59 236.33 171.91 236.14 166.11 C 235.79 156.75 236.11 147.37 236.00 138.00 C 224.62 138.00 213.25 138.00 201.88 138.00 C 197.77 151.02 185.64 161.07 171.98 162.25 C 161.95 163.46 152.77 158.24 144.58 153.14 C 150.63 169.52 161.16 184.38 175.43 194.58 C 178.93 196.93 182.35 200.47 181.88 205.05 C 181.79 211.90 173.65 216.77 167.61 213.39 C 155.85 205.84 145.92 195.63 138.01 184.14 C 137.99 201.43 138.00 218.71 138.00 236.00 C 163.99 235.98 189.98 236.05 215.96 235.96 C 224.72 236.09 233.05 229.77 235.23 221.29 C 236.28 217.59 235.57 213.28 238.09 210.09 C 240.99 205.99 247.18 204.87 251.34 207.69 C 254.13 209.39 255.64 212.55 256.00 215.71 L 256.00 216.53 C 255.60 228.20 250.28 239.75 241.03 247.00 C 234.35 252.58 225.77 255.42 217.16 256.00 L 39.55 256.00 C 27.82 255.62 16.22 250.28 8.95 240.97 C 3.40 234.30 0.58 225.75 0.00 217.17 L 0.00 39.54 C 0.41 30.69 3.27 21.84 9.00 14.98 C 16.25 5.72 27.80 0.40 39.48 0.00 M 20.04 39.93 C 19.95 65.95 20.02 91.98 20.00 118.00 C 30.61 118.00 41.22 118.00 51.82 118.00 C 56.04 102.95 71.10 91.57 86.85 92.68 C 98.73 93.81 108.58 101.31 118.00 107.98 C 118.00 78.65 118.00 49.33 118.00 20.00 C 92.01 20.02 66.02 19.96 40.03 20.03 C 29.38 19.79 19.83 29.28 20.04 39.93 M 138.00 20.00 C 138.00 48.83 138.00 77.66 138.00 106.49 C 144.78 101.79 151.62 96.91 159.52 94.31 C 165.76 91.94 172.75 92.22 179.06 94.20 C 190.12 97.62 198.93 106.93 202.17 118.00 C 213.45 118.00 224.72 118.00 236.00 118.00 C 236.01 93.68 235.99 69.35 236.00 45.03 C 236.02 40.80 236.17 36.39 234.46 32.42 C 231.51 25.08 223.92 19.96 216.00 20.04 C 190.00 19.95 164.00 20.02 138.00 20.00 M 70.62 128.94 C 71.13 137.68 81.21 145.26 89.55 141.32 C 97.16 137.86 103.81 132.68 110.33 127.52 C 103.11 121.86 95.78 115.82 87.00 112.78 C 78.03 111.19 69.41 120.01 70.62 128.94 M 143.67 127.53 C 150.95 133.13 158.24 139.23 167.05 142.23 C 175.32 143.64 183.47 136.19 183.45 127.91 C 183.97 119.31 175.58 111.26 167.00 112.78 C 158.23 115.83 150.88 121.85 143.67 127.53 M 20.00 138.00 C 20.02 164.00 19.95 190.00 20.04 216.00 C 19.80 226.65 29.31 236.18 39.96 235.96 C 65.97 236.05 91.98 235.98 118.00 236.00 C 118.00 218.71 118.00 201.42 118.00 184.14 C 110.08 195.63 100.15 205.86 88.37 213.40 C 82.33 216.77 74.20 211.88 74.13 205.04 C 73.64 200.47 77.08 196.95 80.55 194.56 C 95.36 184.00 106.05 168.41 112.04 151.35 C 104.66 156.22 96.82 161.17 87.86 162.25 C 72.17 163.83 56.74 152.92 52.12 138.00 C 41.42 138.00 30.71 138.00 20.00 138.00 Z" />
</g>
</svg>
