<?xml version="1.0" encoding="UTF-8" ?>
<!DOCTYPE svg PUBLIC "-//W3C//DTD SVG 1.1//EN" "http://www.w3.org/Graphics/SVG/1.1/DTD/svg11.dtd">
<svg width="256pt" height="256pt" viewBox="0 0 256 256" version="1.1" xmlns="http://www.w3.org/2000/svg">
<g id="#5d5e5dff">
<path fill="#5d5e5d" opacity="1.00" d=" M 139.96 0.00 L 148.26 0.00 C 173.81 1.17 198.25 15.60 211.45 37.53 C 221.23 53.36 224.98 72.76 221.90 91.11 C 218.85 110.01 208.49 127.59 193.51 139.50 C 182.21 148.62 168.30 154.45 153.88 156.13 C 136.10 158.31 117.62 154.10 102.56 144.40 C 88.52 135.49 77.45 121.98 71.48 106.45 C 64.92 89.54 64.54 70.32 70.42 53.16 C 75.36 38.54 84.80 25.51 97.06 16.13 C 109.34 6.62 124.51 1.18 139.96 0.00 M 135.45 15.67 C 109.74 19.13 87.59 40.02 82.58 65.46 C 79.34 81.04 82.14 97.86 90.62 111.36 C 99.80 126.43 115.51 137.37 132.87 140.59 C 145.87 143.05 159.66 141.35 171.60 135.61 C 187.23 128.27 199.58 114.26 204.87 97.82 C 208.87 85.55 208.96 72.05 205.14 59.72 C 200.55 44.89 190.34 31.88 176.98 23.97 C 164.68 16.44 149.69 13.61 135.45 15.67 Z" />
<path fill="#5d5e5d" opacity="1.00" d=" M 159.38 31.52 C 163.28 30.20 167.89 32.79 168.82 36.79 C 169.54 39.07 168.62 41.37 167.74 43.45 C 156.89 69.07 146.26 94.80 135.36 120.40 C 133.28 125.07 126.26 125.93 123.07 121.96 C 120.62 119.35 120.88 115.41 122.48 112.43 C 133.14 87.10 143.76 61.75 154.40 36.40 C 155.23 34.14 157.01 32.18 159.38 31.52 Z" />
<path fill="#5d5e5d" opacity="1.00" d=" M 119.43 47.62 C 126.68 44.75 134.37 53.12 131.44 60.15 C 129.12 66.69 119.41 68.61 115.14 62.93 C 110.63 58.04 113.04 49.44 119.43 47.62 Z" />
<path fill="#5d5e5d" opacity="1.00" d=" M 163.53 91.65 C 170.74 88.50 178.69 96.73 175.92 103.87 C 173.77 110.39 164.22 112.58 159.79 107.12 C 155.12 102.41 157.16 93.67 163.53 91.65 Z" />
<path fill="#5d5e5d" opacity="1.00" d=" M 55.44 161.66 C 64.94 158.54 75.09 157.47 85.05 158.24 C 94.61 158.98 103.49 162.94 112.04 167.02 C 119.67 170.44 127.40 174.53 135.95 174.75 C 144.66 174.94 153.37 174.65 162.07 174.87 C 165.74 174.95 168.94 178.23 169.03 181.87 C 169.27 189.88 166.47 197.76 161.90 204.27 C 165.46 204.11 169.09 204.61 172.62 204.04 C 180.53 196.48 188.07 188.52 195.94 180.90 C 200.64 176.46 206.58 173.36 212.90 172.01 C 224.91 169.36 238.26 173.32 246.55 182.47 C 249.02 185.40 248.50 190.08 245.69 192.60 C 227.87 210.47 210.02 228.31 192.16 246.15 C 186.61 251.82 178.99 255.17 171.13 256.00 L 14.22 256.00 C 10.52 255.28 7.56 251.89 7.85 248.05 C 7.82 228.69 7.82 209.34 7.86 189.98 C 7.59 185.99 10.97 182.20 15.00 182.19 C 23.17 182.03 31.35 182.21 39.52 182.12 C 40.50 173.02 46.75 164.69 55.44 161.66 M 61.34 175.50 C 57.16 176.48 54.20 180.67 54.49 184.92 C 54.47 203.60 54.50 222.29 54.48 240.98 C 92.32 241.02 130.16 240.99 168.01 241.00 C 173.82 241.23 179.30 238.34 183.08 234.05 C 198.40 218.68 213.78 203.37 229.10 187.98 C 221.48 184.63 211.95 186.11 206.00 192.03 C 197.61 200.31 189.36 208.72 180.96 217.00 C 179.42 218.58 177.21 219.34 175.02 219.26 C 148.37 219.29 121.72 219.15 95.07 219.19 C 91.91 219.41 88.78 217.57 87.54 214.65 C 85.38 210.17 88.98 204.34 93.91 204.18 C 106.93 204.00 119.96 204.26 132.98 204.18 C 141.73 204.01 149.75 197.96 152.78 189.81 C 143.84 189.52 134.74 190.62 125.96 188.48 C 112.66 185.45 101.37 177.01 88.13 173.84 C 79.25 172.17 70.01 173.13 61.34 175.50 M 22.85 197.14 C 22.83 211.76 22.84 226.37 22.84 240.99 C 28.39 241.00 33.93 241.00 39.48 241.00 C 39.48 226.38 39.49 211.75 39.47 197.13 C 33.93 197.13 28.39 197.12 22.85 197.14 Z" />
</g>
</svg>
