<?xml version="1.0" encoding="UTF-8" ?>
<!DOCTYPE svg PUBLIC "-//W3C//DTD SVG 1.1//EN" "http://www.w3.org/Graphics/SVG/1.1/DTD/svg11.dtd">
<svg width="256pt" height="256pt" viewBox="0 0 256 256" version="1.1" xmlns="http://www.w3.org/2000/svg">
<g id="#fc5830ff">
<path fill="#fc5830" opacity="1.00" d=" M 206.34 0.00 L 206.66 0.00 C 217.96 -0.10 229.22 4.74 236.53 13.42 C 249.76 28.07 255.64 48.04 256.00 67.50 L 256.00 71.55 C 255.16 94.39 248.37 116.70 238.17 137.05 C 223.01 166.86 201.04 193.08 174.84 213.82 C 171.65 216.67 167.48 219.42 163.00 218.05 C 156.73 216.65 153.46 208.52 157.17 203.22 C 160.36 199.02 165.02 196.29 168.92 192.82 C 185.47 178.65 199.94 162.04 211.60 143.62 C 225.94 120.72 236.15 94.34 235.94 66.99 C 235.61 52.01 231.06 36.51 220.50 25.50 C 215.50 20.14 207.09 18.53 200.43 21.54 C 194.89 23.97 191.57 29.31 187.50 33.51 C 181.69 40.68 175.66 48.50 174.35 57.91 C 173.32 64.65 176.74 71.07 181.24 75.83 C 186.57 81.48 192.15 86.89 197.62 92.42 C 199.80 94.67 202.41 96.88 203.15 100.08 C 203.88 102.77 203.15 105.58 201.95 108.02 C 191.13 129.05 176.16 147.71 159.28 164.18 C 146.27 176.78 132.10 188.31 116.35 197.32 C 112.65 199.44 109.05 201.89 104.93 203.11 C 101.57 204.07 97.88 202.92 95.42 200.51 C 88.95 194.33 82.76 187.85 76.28 181.67 C 71.66 177.22 65.53 173.57 58.87 174.26 C 49.52 175.12 41.69 181.00 34.55 186.62 C 31.04 189.76 27.34 192.71 24.17 196.20 C 18.38 202.84 18.76 213.77 24.99 219.99 C 35.02 229.90 49.05 234.78 62.92 235.74 C 76.17 236.60 89.48 234.37 102.12 230.44 C 108.23 228.86 113.89 225.96 119.91 224.13 C 124.74 222.38 130.50 225.19 132.22 229.99 C 134.10 234.57 131.83 240.21 127.40 242.34 C 109.49 250.25 90.22 255.41 70.58 256.00 L 67.54 256.00 C 48.31 255.67 28.61 249.94 14.00 237.03 C 4.99 229.71 -0.13 218.22 0.00 206.66 L 0.00 206.37 C 0.56 196.22 5.00 186.41 12.49 179.51 C 22.38 170.33 33.02 161.34 45.91 156.75 C 56.16 152.83 68.08 153.26 77.85 158.39 C 88.41 163.77 95.87 173.29 104.36 181.28 C 110.81 177.59 116.98 173.43 122.97 169.04 C 146.16 151.36 166.56 129.63 181.27 104.36 C 174.20 96.88 166.10 90.22 160.47 81.51 C 155.13 73.31 152.96 63.14 154.69 53.50 C 156.94 41.18 164.08 30.48 171.90 20.98 C 176.94 15.37 181.68 9.22 188.33 5.40 C 193.73 2.03 200.06 0.57 206.34 0.00 Z" />
<path fill="#fc5830" opacity="1.00" d=" M 110.07 11.18 C 115.06 11.05 120.18 9.93 125.10 11.16 C 130.84 12.85 133.73 20.29 130.58 25.41 C 128.61 29.27 124.10 30.65 120.04 30.61 C 106.56 30.82 93.14 34.01 81.05 40.00 C 59.79 50.45 42.99 69.61 35.43 92.07 C 32.36 101.04 30.80 110.51 30.62 119.98 C 30.57 123.55 29.76 127.50 26.69 129.72 C 22.62 133.13 15.91 132.36 12.77 128.08 C 9.74 124.45 10.72 119.42 10.83 115.09 C 12.34 82.92 29.03 51.98 54.86 32.82 C 70.77 20.65 90.17 13.22 110.07 11.18 Z" />
<path fill="#fc5830" opacity="1.00" d=" M 96.47 56.59 C 101.26 55.02 107.11 57.25 108.96 62.09 C 111.44 67.33 108.15 74.04 102.59 75.50 C 91.91 78.35 82.65 86.05 77.95 96.05 C 75.98 100.03 75.72 105.15 71.84 107.92 C 67.71 111.13 61.21 110.14 58.14 105.94 C 56.03 103.31 55.67 99.69 56.59 96.52 C 61.72 77.52 77.48 61.74 96.47 56.59 Z" />
</g>
</svg>
