<?xml version="1.0" encoding="UTF-8" ?>
<!DOCTYPE svg PUBLIC "-//W3C//DTD SVG 1.1//EN" "http://www.w3.org/Graphics/SVG/1.1/DTD/svg11.dtd">
<svg width="256pt" height="256pt" viewBox="0 0 256 256" version="1.1" xmlns="http://www.w3.org/2000/svg">
<g id="#fc5830ff">
<path fill="#fc5830" opacity="1.00" d=" M 35.41 0.00 L 158.02 0.00 C 160.18 1.03 162.38 2.35 163.51 4.55 C 166.14 8.81 164.77 14.88 160.62 17.64 C 158.46 19.25 155.65 19.49 153.05 19.54 C 115.39 19.57 77.72 19.45 40.07 19.60 C 29.36 19.55 20.10 29.32 20.52 39.98 C 20.46 95.97 20.52 151.95 20.50 207.94 C 20.52 211.64 20.31 215.37 20.90 219.04 C 22.18 227.05 28.95 233.82 36.95 235.10 C 40.59 235.68 44.29 235.49 47.96 235.50 C 103.97 235.48 159.99 235.53 216.00 235.48 C 226.68 235.91 236.46 226.64 236.40 215.93 C 236.60 187.27 236.35 158.60 236.52 129.94 C 236.41 125.06 240.05 120.35 245.00 119.76 C 249.71 118.87 254.22 122.03 256.00 126.28 L 256.00 220.55 C 254.35 235.38 243.43 248.59 229.29 253.24 C 222.47 255.70 215.10 255.53 207.96 255.51 C 152.95 255.49 97.95 255.50 42.94 255.50 C 38.04 255.39 33.06 255.08 28.39 253.48 C 16.51 249.78 6.70 240.15 2.76 228.35 C 0.18 221.19 0.50 213.46 0.50 205.97 C 0.50 153.64 0.50 101.31 0.50 48.98 C 0.49 41.54 0.19 33.85 2.75 26.73 C 7.39 12.59 20.59 1.67 35.41 0.00 Z" />
<path fill="#fc5830" opacity="1.00" d=" M 197.17 0.00 L 203.70 0.00 C 205.89 1.16 207.89 2.67 209.62 4.45 C 222.08 16.94 234.67 29.31 247.13 41.80 C 251.56 46.21 254.63 51.85 256.00 57.94 L 256.00 69.02 C 254.65 75.11 251.59 80.75 247.17 85.16 C 234.70 97.67 222.10 110.04 209.62 122.55 C 207.48 124.66 205.06 126.86 201.94 127.26 C 196.74 128.21 191.39 124.16 190.72 118.96 C 190.00 115.37 191.87 111.92 194.37 109.48 C 206.08 97.84 217.78 86.20 229.51 74.58 C 231.81 72.23 234.50 70.03 235.76 66.90 C 237.23 63.09 235.89 58.74 233.02 55.97 C 220.20 43.11 207.25 30.37 194.39 17.53 C 191.89 15.08 189.99 11.60 190.72 8.00 C 191.18 4.33 193.98 1.55 197.17 0.00 Z" />
<path fill="#fc5830" opacity="1.00" d=" M 187.57 53.82 C 193.08 53.54 198.67 52.70 204.16 53.42 C 210.66 54.52 214.01 62.89 210.34 68.27 C 207.88 72.63 202.48 73.20 197.99 73.24 C 168.00 73.95 138.72 87.48 118.30 109.36 C 102.26 126.35 91.49 148.35 88.30 171.52 C 86.91 179.65 87.20 187.93 86.86 196.14 C 86.65 201.52 81.40 206.02 76.03 205.33 C 71.35 204.98 67.38 200.84 67.15 196.17 C 65.98 170.14 71.66 143.59 84.88 121.00 C 95.90 101.74 111.78 85.27 130.61 73.53 C 147.74 62.64 167.44 56.11 187.57 53.82 Z" />
</g>
</svg>
