<?xml version="1.0" encoding="UTF-8" ?>
<!DOCTYPE svg PUBLIC "-//W3C//DTD SVG 1.1//EN" "http://www.w3.org/Graphics/SVG/1.1/DTD/svg11.dtd">
<svg width="256pt" height="256pt" viewBox="0 0 256 256" version="1.1" xmlns="http://www.w3.org/2000/svg">
<g id="#fc5830ff">
<path fill="#fc5830" opacity="1.00" d=" M 126.00 0.00 L 129.02 0.00 C 146.95 0.35 164.75 6.19 179.20 16.85 C 197.99 30.44 210.94 51.80 214.18 74.76 C 216.67 90.65 214.20 107.08 207.95 121.83 C 200.76 139.04 188.67 153.54 176.25 167.22 C 165.91 179.24 154.74 190.60 145.37 203.42 C 142.66 207.07 140.44 211.09 137.45 214.52 C 134.05 218.23 128.52 217.75 123.97 217.39 C 119.95 217.09 117.30 213.77 115.30 210.65 C 109.73 202.10 103.36 194.08 96.52 186.51 C 87.61 176.42 78.67 166.35 69.79 156.24 C 57.82 141.85 47.04 125.67 43.00 107.13 C 35.67 78.29 45.25 46.16 66.46 25.44 C 82.08 9.72 103.88 0.56 126.00 0.00 M 88.66 32.67 C 76.36 41.44 67.20 54.46 63.10 68.99 C 58.80 84.03 60.08 100.55 66.40 114.83 C 73.37 130.99 85.46 144.07 97.07 157.00 C 107.60 168.92 118.56 180.51 127.84 193.47 C 138.19 179.14 150.48 166.40 162.09 153.12 C 168.58 145.85 175.12 138.58 180.53 130.45 C 188.86 118.60 194.59 104.59 195.02 89.99 C 196.00 72.63 189.45 55.13 177.81 42.29 C 167.77 31.12 153.92 23.40 139.08 20.97 C 121.61 17.95 102.97 22.18 88.66 32.67 Z" />
<path fill="#fc5830" opacity="1.00" d=" M 119.44 40.81 C 132.73 38.48 147.04 41.80 157.54 50.38 C 166.87 57.59 173.22 68.45 175.13 80.06 C 175.51 84.58 176.93 89.86 173.79 93.76 C 170.36 98.66 162.44 98.99 158.59 94.43 C 156.10 91.90 156.03 88.21 155.65 84.91 C 154.81 74.99 147.99 65.92 138.81 62.16 C 131.98 59.22 123.95 59.23 117.13 62.18 C 109.89 65.18 104.12 71.45 101.63 78.87 C 99.02 86.44 99.88 95.15 104.04 102.01 C 108.36 109.42 116.31 114.66 124.88 115.48 C 128.02 115.89 131.54 115.84 134.09 118.01 C 138.94 121.56 139.06 129.59 134.34 133.30 C 131.54 135.75 127.59 135.93 124.08 135.38 C 105.58 134.17 88.61 120.89 82.86 103.28 C 80.33 96.22 79.64 88.51 80.75 81.10 C 83.22 61.19 99.71 44.21 119.44 40.81 Z" />
<path fill="#fc5830" opacity="1.00" d=" M 31.74 172.75 C 38.60 168.51 46.97 169.01 54.70 169.24 C 59.18 169.36 63.47 172.62 64.28 177.11 C 65.40 181.80 62.46 187.00 57.87 188.47 C 53.18 189.83 48.22 188.52 43.49 189.48 C 40.98 189.92 39.57 192.26 38.50 194.34 C 32.89 205.76 27.29 217.20 21.63 228.60 C 20.98 230.24 19.69 232.15 20.64 233.93 C 21.49 236.01 24.01 235.97 25.89 236.04 C 92.59 236.03 159.30 236.01 226.01 236.05 C 228.76 235.91 231.74 236.48 234.32 235.26 C 236.32 233.81 235.72 231.21 234.72 229.36 C 229.11 217.91 223.43 206.49 217.85 195.02 C 216.74 192.93 215.57 190.39 213.11 189.66 C 207.61 188.13 201.52 190.40 196.23 187.86 C 191.18 185.36 189.39 178.24 192.67 173.67 C 194.61 170.57 198.34 169.17 201.87 169.18 C 208.25 169.16 214.93 168.61 220.96 171.12 C 227.02 173.53 231.92 178.38 234.75 184.22 C 240.39 195.59 245.94 207.01 251.59 218.38 C 252.84 220.90 254.00 223.48 254.80 226.19 C 256.93 233.64 254.92 242.04 249.79 247.83 C 245.46 252.96 238.83 255.73 232.20 256.00 L 23.75 256.00 C 13.28 255.85 3.45 248.27 1.07 238.02 C -0.52 232.11 0.70 225.85 3.40 220.47 C 9.23 208.60 15.09 196.74 20.92 184.87 C 23.28 179.91 26.92 175.48 31.74 172.75 Z" />
</g>
</svg>
