<?xml version="1.0" encoding="UTF-8" ?>
<!DOCTYPE svg PUBLIC "-//W3C//DTD SVG 1.1//EN" "http://www.w3.org/Graphics/SVG/1.1/DTD/svg11.dtd">
<svg width="256pt" height="256pt" viewBox="0 0 256 256" version="1.1" xmlns="http://www.w3.org/2000/svg">
<g id="#fc5830ff">
<path fill="#fc5830" opacity="1.00" d=" M 127.28 0.00 L 131.38 0.00 C 147.89 0.35 164.43 5.34 177.78 15.19 C 190.00 23.95 199.77 35.70 207.70 48.39 C 217.65 64.31 224.75 81.77 231.78 99.11 C 235.53 108.56 239.00 118.11 242.16 127.77 C 243.17 130.67 243.35 134.01 241.75 136.74 C 237.65 143.69 231.97 149.59 225.87 154.82 C 229.99 158.09 234.84 160.79 237.87 165.20 C 241.45 171.10 236.99 179.53 230.14 179.95 C 225.72 180.61 222.30 177.38 219.18 174.79 C 211.35 168.52 202.44 163.77 193.27 159.79 C 189.06 158.11 186.44 153.32 187.34 148.86 C 188.12 143.94 193.00 140.15 197.97 140.68 C 201.11 141.12 203.91 142.73 206.79 143.96 C 212.53 140.30 217.64 135.69 221.98 130.44 C 216.18 113.15 209.21 96.27 201.81 79.61 C 200.34 98.02 191.85 115.76 178.22 128.25 C 169.28 136.64 158.16 142.45 146.41 145.76 C 143.82 148.32 141.84 151.70 138.40 153.34 C 131.79 157.21 122.95 156.77 116.79 152.20 C 110.19 147.56 107.01 138.70 109.16 130.92 C 111.38 121.77 120.75 115.09 130.14 116.09 C 136.34 116.47 141.86 120.17 145.41 125.13 C 162.52 119.32 176.22 104.50 180.41 86.89 C 185.36 67.87 178.60 46.66 163.90 33.71 C 153.95 51.94 136.40 65.01 117.17 72.18 C 109.06 75.21 100.65 77.44 92.11 78.82 C 86.63 79.94 80.95 75.51 80.57 69.97 C 79.94 64.88 83.85 59.87 88.90 59.16 C 104.34 56.39 119.77 51.13 132.06 41.10 C 138.07 36.24 143.06 30.17 146.77 23.39 C 131.70 17.89 114.49 19.33 100.05 26.06 C 84.79 33.33 73.54 46.76 64.98 61.00 C 59.82 69.59 55.48 78.65 51.57 87.88 C 45.53 101.85 39.85 116.00 35.03 130.45 C 39.27 135.56 44.21 140.10 49.81 143.70 C 58.53 139.75 67.59 136.46 76.91 134.20 C 82.13 132.82 87.85 136.63 88.80 141.90 C 89.98 146.99 86.46 152.41 81.41 153.61 C 64.08 158.29 47.08 165.66 33.47 177.60 C 25.10 184.93 20.11 195.89 20.03 207.01 C 20.03 213.68 19.86 220.36 20.11 227.03 C 20.45 232.38 25.71 236.46 30.96 236.00 C 95.64 236.00 160.31 236.00 224.99 236.00 C 229.60 236.36 234.27 233.40 235.54 228.90 C 236.77 223.12 235.18 217.10 236.53 211.34 C 238.27 205.49 245.86 202.62 251.03 205.88 C 254.02 207.56 255.78 210.84 256.00 214.21 L 256.00 226.79 C 255.86 242.26 242.21 255.91 226.73 256.00 L 28.49 256.00 C 13.32 255.43 0.12 242.01 0.00 226.79 L 0.00 204.54 C 0.74 192.56 4.87 180.76 12.21 171.21 C 17.21 164.47 23.92 159.30 30.70 154.46 C 24.76 149.31 19.22 143.52 15.23 136.70 C 13.44 133.72 13.96 130.09 15.08 126.98 C 21.70 107.01 29.55 87.46 38.42 68.39 C 48.07 48.16 60.72 28.57 79.11 15.24 C 92.98 5.09 110.16 -0.02 127.28 0.00 Z" />
</g>
</svg>
