<?xml version="1.0" encoding="UTF-8" ?>
<!DOCTYPE svg PUBLIC "-//W3C//DTD SVG 1.1//EN" "http://www.w3.org/Graphics/SVG/1.1/DTD/svg11.dtd">
<svg width="256pt" height="256pt" viewBox="0 0 256 256" version="1.1" xmlns="http://www.w3.org/2000/svg">
<g id="#fc5830ff">
<path fill="#fc5830" opacity="1.00" d=" M 124.52 0.00 L 131.39 0.00 C 145.59 0.81 159.60 5.52 171.13 13.90 C 184.57 23.57 194.68 37.80 199.16 53.75 C 204.29 71.56 202.37 91.28 193.83 107.73 C 183.69 127.67 164.10 142.51 142.09 146.63 C 132.87 148.57 123.41 147.73 114.08 148.49 C 87.18 150.31 59.83 157.61 37.97 173.92 C 30.72 179.15 24.73 186.37 22.03 194.99 C 19.12 203.34 20.22 212.30 19.99 220.96 C 20.07 224.48 19.50 228.38 21.65 231.45 C 23.62 234.58 27.36 236.20 30.99 236.00 C 95.66 236.00 160.33 236.00 225.00 236.00 C 228.65 236.21 232.40 234.56 234.37 231.41 C 236.29 228.67 235.98 225.17 236.02 222.00 C 235.78 212.00 237.09 201.52 232.90 192.11 C 227.76 179.28 215.59 171.37 203.95 165.04 C 200.04 162.72 194.91 161.74 192.45 157.56 C 189.63 153.04 191.33 146.50 195.98 143.91 C 198.81 142.18 202.46 142.12 205.44 143.53 C 217.16 148.77 228.31 155.57 237.70 164.37 C 248.49 174.63 254.86 189.04 256.00 203.81 L 256.00 226.76 C 255.88 242.25 242.21 255.91 226.72 256.00 L 28.47 256.00 C 13.28 255.41 0.08 241.96 0.00 226.72 L 0.00 204.56 C 0.73 192.83 4.69 181.26 11.75 171.83 C 16.66 165.07 23.22 159.74 30.01 154.98 C 45.84 144.00 64.07 136.76 82.84 132.71 C 75.61 126.75 69.09 119.82 64.36 111.69 C 54.43 95.17 51.49 74.69 56.22 56.02 C 60.39 39.16 70.79 23.97 84.91 13.89 C 96.41 5.54 110.36 0.81 124.52 0.00 M 118.55 20.86 C 103.46 23.49 89.76 32.92 81.86 46.03 C 74.24 58.42 72.07 73.94 75.87 87.96 C 79.75 102.71 90.27 115.53 103.94 122.27 C 115.93 128.36 130.25 129.59 143.13 125.79 C 156.15 122.04 167.55 113.12 174.42 101.46 C 180.95 90.58 183.35 77.35 181.18 64.86 C 178.88 51.10 170.91 38.41 159.59 30.27 C 147.95 21.70 132.75 18.31 118.55 20.86 Z" />
</g>
</svg>
