<?xml version="1.0" encoding="UTF-8" ?>
<!DOCTYPE svg PUBLIC "-//W3C//DTD SVG 1.1//EN" "http://www.w3.org/Graphics/SVG/1.1/DTD/svg11.dtd">
<svg width="256pt" height="256pt" viewBox="0 0 256 256" version="1.1" xmlns="http://www.w3.org/2000/svg">
<g id="#fc5830ff">
<path fill="#fc5830" opacity="1.00" d=" M 139.62 2.52 C 142.64 0.62 146.43 -0.69 149.92 0.72 C 153.09 1.76 155.06 4.63 156.67 7.37 C 159.91 12.94 163.22 18.49 166.48 24.05 C 174.23 19.30 181.94 14.49 189.66 9.68 C 192.17 8.15 195.03 6.70 198.07 7.21 C 201.86 7.52 204.71 10.44 206.51 13.57 C 217.08 30.98 227.73 48.34 238.29 65.75 C 239.73 68.23 242.22 69.77 244.21 71.77 C 251.38 78.78 255.51 88.58 256.00 98.57 L 256.00 178.51 C 255.81 183.81 251.34 188.53 245.92 188.41 C 232.27 188.63 218.61 188.43 204.96 188.51 C 198.46 188.61 191.81 187.27 186.32 183.64 C 178.58 178.75 173.41 170.08 172.72 160.96 C 171.81 151.17 176.19 141.11 183.95 135.07 C 189.33 130.71 196.25 128.57 203.13 128.53 C 214.08 128.45 225.04 128.53 236.00 128.50 C 235.92 118.64 236.15 108.77 235.89 98.92 C 235.63 88.66 226.27 79.84 216.03 80.05 C 154.36 79.93 92.69 80.05 31.01 79.99 C 27.27 80.00 23.57 79.37 19.99 78.32 C 20.04 124.20 19.94 170.09 20.04 215.97 C 19.78 226.64 29.31 236.20 39.98 235.96 C 98.31 236.06 156.64 235.97 214.97 236.00 C 223.25 236.35 231.37 231.07 234.53 223.43 C 235.86 220.04 238.27 216.72 242.05 215.93 C 248.55 213.96 255.64 220.37 254.18 227.05 C 250.16 243.53 234.03 255.48 217.27 256.00 L 39.59 256.00 C 27.84 255.65 16.25 250.28 8.94 240.98 C 3.41 234.28 0.56 225.73 0.00 217.12 L 0.00 47.32 C 1.49 37.40 7.53 28.07 16.70 23.69 C 25.11 19.26 34.87 20.78 43.99 20.48 C 48.38 20.33 53.62 20.54 56.38 24.54 C 60.68 29.74 57.63 38.66 51.01 40.03 C 43.40 41.28 35.61 39.79 27.99 40.85 C 21.31 41.83 17.68 50.69 22.08 55.94 C 25.44 60.76 31.85 60.00 36.97 60.01 C 40.29 59.74 44.03 60.84 46.98 58.86 C 77.83 40.04 108.76 21.33 139.62 2.52 M 83.59 59.98 C 110.56 60.02 137.53 59.99 164.50 60.00 C 157.38 47.93 150.27 35.86 143.12 23.82 C 123.28 35.87 103.43 47.92 83.59 59.98 M 176.69 41.28 C 180.37 47.53 184.06 53.77 187.76 60.01 C 195.63 59.99 203.50 60.01 211.37 60.00 C 205.44 50.27 199.50 40.55 193.57 30.82 C 187.93 34.29 182.32 37.79 176.69 41.28 M 192.74 157.09 C 191.70 162.70 196.50 168.33 202.17 168.39 C 213.44 168.65 224.72 168.43 236.00 168.50 C 236.00 161.83 236.00 155.17 236.00 148.50 C 225.00 148.53 213.99 148.44 202.99 148.54 C 198.07 148.39 193.29 152.11 192.74 157.09 Z" />
</g>
</svg>
